G04*
G04 #@! TF.GenerationSoftware,Altium Limited,Altium Designer,25.6.2 (33)*
G04*
G04 Layer_Physical_Order=1*
G04 Layer_Color=255*
%FSLAX25Y25*%
%MOIN*%
G70*
G04*
G04 #@! TF.SameCoordinates,A6983FEA-D560-4925-98B3-38CB5C928B3C*
G04*
G04*
G04 #@! TF.FilePolarity,Positive*
G04*
G01*
G75*
%ADD10C,0.01000*%
%ADD16R,0.06102X0.05118*%
%ADD26C,0.02000*%
%ADD27R,0.06000X0.06000*%
%ADD28C,0.06000*%
%ADD29C,0.06299*%
%ADD30O,0.08268X0.03937*%
%ADD31O,0.07087X0.03937*%
%ADD32C,0.01575*%
%ADD33C,0.02559*%
G04:AMPARAMS|DCode=34|XSize=62.99mil|YSize=62.99mil|CornerRadius=15.75mil|HoleSize=0mil|Usage=FLASHONLY|Rotation=0.000|XOffset=0mil|YOffset=0mil|HoleType=Round|Shape=RoundedRectangle|*
%AMROUNDEDRECTD34*
21,1,0.06299,0.03150,0,0,0.0*
21,1,0.03150,0.06299,0,0,0.0*
1,1,0.03150,0.01575,-0.01575*
1,1,0.03150,-0.01575,-0.01575*
1,1,0.03150,-0.01575,0.01575*
1,1,0.03150,0.01575,0.01575*
%
%ADD34ROUNDEDRECTD34*%
%ADD35C,0.13780*%
G04:AMPARAMS|DCode=36|XSize=62.99mil|YSize=62.99mil|CornerRadius=15.75mil|HoleSize=0mil|Usage=FLASHONLY|Rotation=90.000|XOffset=0mil|YOffset=0mil|HoleType=Round|Shape=RoundedRectangle|*
%AMROUNDEDRECTD36*
21,1,0.06299,0.03150,0,0,90.0*
21,1,0.03150,0.06299,0,0,90.0*
1,1,0.03150,0.01575,0.01575*
1,1,0.03150,0.01575,-0.01575*
1,1,0.03150,-0.01575,-0.01575*
1,1,0.03150,-0.01575,0.01575*
%
%ADD36ROUNDEDRECTD36*%
%ADD37C,0.02400*%
G36*
X165512Y301590D02*
X165548Y301308D01*
X165608Y301032D01*
X165693Y300762D01*
X165801Y300497D01*
X165934Y300236D01*
X166090Y299982D01*
X166271Y299732D01*
X166476Y299488D01*
X166705Y299249D01*
X162295D01*
X162524Y299488D01*
X162729Y299732D01*
X162910Y299982D01*
X163066Y300236D01*
X163199Y300497D01*
X163307Y300762D01*
X163392Y301032D01*
X163452Y301308D01*
X163488Y301590D01*
X163500Y301876D01*
X165500D01*
X165512Y301590D01*
D02*
G37*
G36*
X250275Y290574D02*
X250218Y290498D01*
X250167Y290417D01*
X250122Y290330D01*
X250085Y290238D01*
X250054Y290140D01*
X250031Y290036D01*
X250014Y289926D01*
X250003Y289810D01*
X250000Y289689D01*
X249000D01*
X248997Y289810D01*
X248986Y289926D01*
X248969Y290036D01*
X248946Y290140D01*
X248915Y290238D01*
X248878Y290330D01*
X248833Y290417D01*
X248782Y290498D01*
X248725Y290574D01*
X248660Y290643D01*
X250340D01*
X250275Y290574D01*
D02*
G37*
G36*
X247275D02*
X247218Y290498D01*
X247167Y290417D01*
X247122Y290330D01*
X247085Y290238D01*
X247054Y290140D01*
X247031Y290036D01*
X247014Y289926D01*
X247003Y289810D01*
X247000Y289689D01*
X246000D01*
X245997Y289810D01*
X245986Y289926D01*
X245969Y290036D01*
X245946Y290140D01*
X245915Y290238D01*
X245878Y290330D01*
X245833Y290417D01*
X245782Y290498D01*
X245725Y290574D01*
X245660Y290643D01*
X247340D01*
X247275Y290574D01*
D02*
G37*
G36*
X187576Y229417D02*
X187651Y229359D01*
X187732Y229308D01*
X187819Y229264D01*
X187912Y229227D01*
X188010Y229196D01*
X188114Y229172D01*
X188224Y229155D01*
X188339Y229145D01*
X188461Y229142D01*
Y228142D01*
X188339Y228138D01*
X188224Y228128D01*
X188114Y228111D01*
X188010Y228087D01*
X187912Y228057D01*
X187819Y228019D01*
X187732Y227975D01*
X187651Y227924D01*
X187576Y227866D01*
X187507Y227802D01*
Y229482D01*
X187576Y229417D01*
D02*
G37*
G36*
X189699Y229547D02*
X189729Y229462D01*
X189779Y229387D01*
X189849Y229322D01*
X189939Y229267D01*
X190049Y229222D01*
X190179Y229187D01*
X190329Y229162D01*
X190499Y229147D01*
X190689Y229142D01*
Y228142D01*
X190499Y228137D01*
X190329Y228122D01*
X190179Y228097D01*
X190049Y228062D01*
X189939Y228017D01*
X189849Y227962D01*
X189779Y227897D01*
X189729Y227822D01*
X189699Y227737D01*
X189689Y227642D01*
Y229642D01*
X189699Y229547D01*
D02*
G37*
G36*
X243426Y227775D02*
X243502Y227718D01*
X243583Y227667D01*
X243670Y227622D01*
X243762Y227585D01*
X243860Y227554D01*
X243964Y227531D01*
X244074Y227514D01*
X244190Y227503D01*
X244311Y227500D01*
Y226500D01*
X244190Y226497D01*
X244074Y226486D01*
X243964Y226469D01*
X243860Y226446D01*
X243762Y226415D01*
X243670Y226378D01*
X243583Y226333D01*
X243502Y226282D01*
X243426Y226225D01*
X243357Y226160D01*
Y227840D01*
X243426Y227775D01*
D02*
G37*
G36*
X216661Y220551D02*
X216750Y220476D01*
X216840Y220411D01*
X216930Y220354D01*
X217021Y220306D01*
X217113Y220267D01*
X217206Y220237D01*
X217299Y220216D01*
X217393Y220203D01*
X217488Y220200D01*
X216300Y219012D01*
X216297Y219107D01*
X216284Y219201D01*
X216263Y219294D01*
X216233Y219387D01*
X216194Y219479D01*
X216146Y219570D01*
X216089Y219660D01*
X216024Y219750D01*
X215949Y219839D01*
X215866Y219927D01*
X216573Y220634D01*
X216661Y220551D01*
D02*
G37*
G36*
X164000Y206414D02*
X164014Y206020D01*
X164057Y205638D01*
X164127Y205267D01*
X164226Y204908D01*
X164354Y204561D01*
X164509Y204225D01*
X164693Y203901D01*
X164905Y203589D01*
X165146Y203289D01*
X165414Y203000D01*
X164000Y201586D01*
X163711Y201854D01*
X163411Y202095D01*
X163099Y202307D01*
X162775Y202491D01*
X162439Y202646D01*
X162092Y202774D01*
X161733Y202873D01*
X161362Y202943D01*
X160980Y202986D01*
X160586Y203000D01*
X160000Y205000D01*
X160380Y205020D01*
X160720Y205080D01*
X161020Y205180D01*
X161280Y205320D01*
X161500Y205500D01*
X161680Y205720D01*
X161820Y205980D01*
X161920Y206280D01*
X161980Y206620D01*
X162000Y207000D01*
X164000Y206414D01*
D02*
G37*
G36*
X145775Y194573D02*
X145718Y194498D01*
X145667Y194417D01*
X145622Y194330D01*
X145585Y194238D01*
X145554Y194140D01*
X145531Y194036D01*
X145514Y193926D01*
X145503Y193810D01*
X145500Y193689D01*
X144500D01*
X144497Y193810D01*
X144486Y193926D01*
X144469Y194036D01*
X144446Y194140D01*
X144415Y194238D01*
X144378Y194330D01*
X144333Y194417D01*
X144282Y194498D01*
X144225Y194573D01*
X144160Y194643D01*
X145840D01*
X145775Y194573D01*
D02*
G37*
G36*
X155427Y194275D02*
X155502Y194218D01*
X155583Y194167D01*
X155670Y194122D01*
X155762Y194085D01*
X155860Y194054D01*
X155964Y194031D01*
X156074Y194014D01*
X156190Y194003D01*
X156311Y194000D01*
Y193000D01*
X156190Y192997D01*
X156074Y192986D01*
X155964Y192969D01*
X155860Y192946D01*
X155762Y192915D01*
X155670Y192878D01*
X155583Y192833D01*
X155502Y192782D01*
X155427Y192725D01*
X155357Y192660D01*
Y194340D01*
X155427Y194275D01*
D02*
G37*
G36*
X312427Y183866D02*
X312339Y183949D01*
X312250Y184024D01*
X312160Y184089D01*
X312070Y184146D01*
X311979Y184194D01*
X311887Y184233D01*
X311794Y184263D01*
X311701Y184284D01*
X311607Y184297D01*
X311512Y184300D01*
X312700Y185488D01*
X312703Y185393D01*
X312716Y185299D01*
X312737Y185206D01*
X312767Y185113D01*
X312806Y185021D01*
X312854Y184930D01*
X312911Y184840D01*
X312976Y184750D01*
X313051Y184661D01*
X313134Y184573D01*
X312427Y183866D01*
D02*
G37*
G36*
X309638Y209705D02*
X309759Y209708D01*
X309875Y209718D01*
X309984Y209735D01*
X310088Y209759D01*
X310187Y209790D01*
X310279Y209827D01*
X310366Y209871D01*
X310447Y209922D01*
X310522Y209980D01*
X310592Y210045D01*
Y208365D01*
X310522Y208429D01*
X310447Y208487D01*
X310366Y208538D01*
X310279Y208582D01*
X310187Y208620D01*
X310088Y208650D01*
X309984Y208674D01*
X309875Y208691D01*
X309759Y208701D01*
X309638Y208705D01*
Y209705D01*
D02*
G37*
G36*
X309689Y215500D02*
X309810Y215503D01*
X309926Y215514D01*
X310036Y215531D01*
X310140Y215554D01*
X310238Y215585D01*
X310330Y215622D01*
X310417Y215667D01*
X310498Y215718D01*
X310574Y215775D01*
X310643Y215840D01*
Y214160D01*
X310574Y214225D01*
X310498Y214282D01*
X310417Y214333D01*
X310330Y214378D01*
X310238Y214415D01*
X310140Y214446D01*
X310036Y214469D01*
X309926Y214486D01*
X309810Y214497D01*
X309689Y214500D01*
Y215500D01*
D02*
G37*
G36*
X361284Y175500D02*
X361405Y175503D01*
X361520Y175514D01*
X361630Y175531D01*
X361734Y175554D01*
X361832Y175585D01*
X361925Y175622D01*
X362012Y175667D01*
X362093Y175718D01*
X362168Y175775D01*
X362238Y175840D01*
Y174160D01*
X362168Y174225D01*
X362093Y174282D01*
X362012Y174333D01*
X361925Y174378D01*
X361832Y174415D01*
X361734Y174446D01*
X361630Y174469D01*
X361520Y174486D01*
X361405Y174497D01*
X361284Y174500D01*
Y175500D01*
D02*
G37*
G36*
X336869Y212045D02*
X337149Y211779D01*
X337429Y211541D01*
X337710Y211331D01*
X337991Y211149D01*
X338273Y210995D01*
X338554Y210869D01*
X338836Y210771D01*
X339118Y210701D01*
X339401Y210659D01*
X339683Y210645D01*
X336855Y207817D01*
X336841Y208099D01*
X336799Y208382D01*
X336729Y208664D01*
X336631Y208946D01*
X336505Y209227D01*
X336351Y209509D01*
X336169Y209790D01*
X335959Y210070D01*
X335721Y210351D01*
X335455Y210631D01*
X336869Y212045D01*
D02*
G37*
G36*
X309638Y221516D02*
X309759Y221519D01*
X309875Y221529D01*
X309984Y221546D01*
X310088Y221570D01*
X310187Y221601D01*
X310279Y221638D01*
X310366Y221682D01*
X310447Y221733D01*
X310522Y221791D01*
X310592Y221856D01*
Y220176D01*
X310522Y220240D01*
X310447Y220298D01*
X310366Y220349D01*
X310279Y220393D01*
X310187Y220431D01*
X310088Y220461D01*
X309984Y220485D01*
X309875Y220502D01*
X309759Y220512D01*
X309638Y220516D01*
Y221516D01*
D02*
G37*
G36*
Y227421D02*
X309759Y227425D01*
X309875Y227435D01*
X309984Y227452D01*
X310088Y227476D01*
X310187Y227506D01*
X310279Y227544D01*
X310366Y227588D01*
X310447Y227639D01*
X310522Y227697D01*
X310592Y227761D01*
Y226081D01*
X310522Y226146D01*
X310447Y226204D01*
X310366Y226255D01*
X310279Y226299D01*
X310187Y226336D01*
X310088Y226367D01*
X309984Y226391D01*
X309875Y226408D01*
X309759Y226418D01*
X309638Y226421D01*
Y227421D01*
D02*
G37*
G36*
X273566Y273020D02*
X273361Y273209D01*
X273146Y273378D01*
X272919Y273526D01*
X272682Y273655D01*
X272434Y273763D01*
X272175Y273851D01*
X271905Y273918D01*
X271624Y273966D01*
X271333Y273993D01*
X271030Y274000D01*
X274000Y276970D01*
X274007Y276667D01*
X274034Y276376D01*
X274082Y276095D01*
X274149Y275825D01*
X274237Y275566D01*
X274345Y275318D01*
X274474Y275081D01*
X274622Y274854D01*
X274791Y274639D01*
X274980Y274434D01*
X273566Y273020D01*
D02*
G37*
G36*
X252000Y289645D02*
X251997Y289766D01*
X251988Y289881D01*
X251972Y289992D01*
X251950Y290097D01*
X251922Y290197D01*
X251888Y290292D01*
X251847Y290381D01*
X251801Y290465D01*
X251748Y290545D01*
X251688Y290618D01*
X253364Y290491D01*
X253294Y290426D01*
X253233Y290356D01*
X253178Y290279D01*
X253131Y290195D01*
X253091Y290105D01*
X253058Y290009D01*
X253033Y289907D01*
X253014Y289798D01*
X253004Y289683D01*
X253000Y289561D01*
X252000Y289645D01*
D02*
G37*
G36*
X268434Y280980D02*
X268639Y280791D01*
X268854Y280622D01*
X269081Y280474D01*
X269318Y280345D01*
X269566Y280237D01*
X269825Y280149D01*
X270095Y280082D01*
X270376Y280034D01*
X270667Y280007D01*
X270970Y280000D01*
X268000Y277030D01*
X267993Y277333D01*
X267966Y277624D01*
X267918Y277905D01*
X267851Y278175D01*
X267763Y278434D01*
X267655Y278682D01*
X267526Y278919D01*
X267378Y279146D01*
X267209Y279361D01*
X267020Y279566D01*
X268434Y280980D01*
D02*
G37*
D10*
X249500Y229000D02*
Y274000D01*
X246500Y277000D02*
Y291500D01*
Y277000D02*
X249500Y274000D01*
X247500Y227000D02*
X249500Y229000D01*
X242500Y227000D02*
X247500D01*
X207858Y228642D02*
X217500Y219000D01*
X186650Y228642D02*
X207858D01*
X145000Y187500D02*
Y195500D01*
X146591Y185909D02*
X146640D01*
X150000Y182500D02*
X179500D01*
X148268Y184232D02*
X150000Y182500D01*
X145000Y187500D02*
X146591Y185909D01*
X148268Y184232D02*
Y184281D01*
X146640Y185909D02*
X148268Y184281D01*
X154500Y193500D02*
X175000D01*
X182000Y186500D01*
X272500D02*
X299000Y213000D01*
X182000Y186500D02*
X272500D01*
X181500Y184500D02*
X274000D01*
X300086Y210586D01*
X179500Y182500D02*
X181500Y184500D01*
X300086Y210586D02*
X304414D01*
X305795Y209205D01*
X311449D01*
X252500Y291318D02*
X252591Y291409D01*
X252500Y277379D02*
Y291318D01*
Y277379D02*
X302957Y226921D01*
X249500Y277500D02*
X305984Y221016D01*
X249500Y277500D02*
Y291500D01*
X305984Y221016D02*
X311449D01*
X302957Y226921D02*
X311449D01*
X311500Y185500D02*
X322000Y175000D01*
X363094D01*
X306500Y215000D02*
X311500D01*
X304500Y213000D02*
X306500Y215000D01*
X299000Y213000D02*
X304500D01*
D16*
X186650Y246358D02*
D03*
X155350D02*
D03*
X186650Y228642D02*
D03*
X155350D02*
D03*
D26*
X308000Y240000D02*
X314500D01*
X271000Y277000D02*
X308000Y240000D01*
X314500D02*
X318000Y236500D01*
Y229500D02*
X340000Y207500D01*
X318000Y229500D02*
Y236500D01*
X162500Y185000D02*
X165424Y187924D01*
Y190424D02*
X165500Y190500D01*
X165424Y187924D02*
Y190424D01*
X201500Y244500D02*
X225000Y221000D01*
X201500Y244500D02*
Y279000D01*
X216500Y191000D02*
Y212500D01*
X225000Y221000D01*
X155500Y256000D02*
Y262000D01*
Y256000D02*
X163000Y248500D01*
Y204000D02*
Y248500D01*
X149500Y204000D02*
X163000D01*
X165500Y201500D01*
Y196278D02*
Y201500D01*
X151000Y185000D02*
X162500D01*
X164500Y302500D02*
X168500Y306500D01*
X164500Y297000D02*
Y302500D01*
X168500Y306500D02*
X241500D01*
X271000Y277000D01*
D27*
X261000D02*
D03*
D28*
X271000D02*
D03*
X281000D02*
D03*
X291000D02*
D03*
X395185Y188000D02*
D03*
X385343D02*
D03*
X365657D02*
D03*
X375500D02*
D03*
D29*
X340000Y237500D02*
D03*
X174500Y297000D02*
D03*
X184500D02*
D03*
X164500D02*
D03*
X340000Y217500D02*
D03*
Y227500D02*
D03*
D30*
X147457Y211516D02*
D03*
Y177500D02*
D03*
D31*
X131000Y211516D02*
D03*
Y177500D02*
D03*
D32*
X276449Y212158D02*
D03*
X280780D02*
D03*
X278614Y214323D02*
D03*
X282945D02*
D03*
X278614Y209992D02*
D03*
X276449Y207827D02*
D03*
X280780D02*
D03*
X282945Y209992D02*
D03*
X278614Y205661D02*
D03*
X285110Y212158D02*
D03*
Y207827D02*
D03*
X282945Y205661D02*
D03*
D33*
X145488Y183130D02*
D03*
Y205886D02*
D03*
D34*
X154500Y297000D02*
D03*
D35*
X129500Y163000D02*
D03*
X423000D02*
D03*
X129500Y313000D02*
D03*
X423000D02*
D03*
D36*
X340000Y207500D02*
D03*
D37*
X246500Y291500D02*
D03*
X165500Y190500D02*
D03*
X217500Y219000D02*
D03*
X186500Y246000D02*
D03*
X155000D02*
D03*
X171360Y187750D02*
D03*
Y201250D02*
D03*
X165500Y196278D02*
D03*
X151000Y185000D02*
D03*
X201500Y279000D02*
D03*
X155500Y262000D02*
D03*
X186650Y228642D02*
D03*
X155350D02*
D03*
X149500Y204000D02*
D03*
X145000Y195500D02*
D03*
X154500Y193500D02*
D03*
X252591Y291409D02*
D03*
X249500Y291500D02*
D03*
X311500Y185500D02*
D03*
X242500Y227000D02*
D03*
X375608Y196392D02*
D03*
X363094Y175000D02*
D03*
X311449Y221016D02*
D03*
Y226921D02*
D03*
X216500Y191000D02*
D03*
X225000Y221000D02*
D03*
X311500Y215000D02*
D03*
X311449Y209205D02*
D03*
M02*
