G04*
G04 #@! TF.GenerationSoftware,Altium Limited,Altium Designer,25.6.2 (33)*
G04*
G04 Layer_Color=8388736*
%FSLAX25Y25*%
%MOIN*%
G70*
G04*
G04 #@! TF.SameCoordinates,A6983FEA-D560-4925-98B3-38CB5C928B3C*
G04*
G04*
G04 #@! TF.FilePolarity,Negative*
G04*
G01*
G75*
%ADD16R,0.06102X0.05118*%
%ADD17R,0.06400X0.06400*%
%ADD18C,0.06400*%
%ADD19C,0.06699*%
%ADD20O,0.08668X0.04337*%
%ADD21O,0.07487X0.04337*%
%ADD22C,0.02959*%
G04:AMPARAMS|DCode=23|XSize=66.99mil|YSize=66.99mil|CornerRadius=17.75mil|HoleSize=0mil|Usage=FLASHONLY|Rotation=0.000|XOffset=0mil|YOffset=0mil|HoleType=Round|Shape=RoundedRectangle|*
%AMROUNDEDRECTD23*
21,1,0.06699,0.03150,0,0,0.0*
21,1,0.03150,0.06699,0,0,0.0*
1,1,0.03550,0.01575,-0.01575*
1,1,0.03550,-0.01575,-0.01575*
1,1,0.03550,-0.01575,0.01575*
1,1,0.03550,0.01575,0.01575*
%
%ADD23ROUNDEDRECTD23*%
%ADD24C,0.14179*%
G04:AMPARAMS|DCode=25|XSize=66.99mil|YSize=66.99mil|CornerRadius=17.75mil|HoleSize=0mil|Usage=FLASHONLY|Rotation=90.000|XOffset=0mil|YOffset=0mil|HoleType=Round|Shape=RoundedRectangle|*
%AMROUNDEDRECTD25*
21,1,0.06699,0.03150,0,0,90.0*
21,1,0.03150,0.06699,0,0,90.0*
1,1,0.03550,0.01575,0.01575*
1,1,0.03550,0.01575,-0.01575*
1,1,0.03550,-0.01575,-0.01575*
1,1,0.03550,-0.01575,0.01575*
%
%ADD25ROUNDEDRECTD25*%
D16*
X186650Y246358D02*
D03*
X155350D02*
D03*
X186650Y228642D02*
D03*
X155350D02*
D03*
D17*
X261000Y277000D02*
D03*
D18*
X271000D02*
D03*
X281000D02*
D03*
X291000D02*
D03*
X395185Y188000D02*
D03*
X385343D02*
D03*
X365657D02*
D03*
X375500D02*
D03*
D19*
X340000Y237500D02*
D03*
X174500Y297000D02*
D03*
X184500D02*
D03*
X164500D02*
D03*
X340000Y217500D02*
D03*
Y227500D02*
D03*
D20*
X147457Y211516D02*
D03*
Y177500D02*
D03*
D21*
X131000Y211516D02*
D03*
Y177500D02*
D03*
D22*
X145488Y183130D02*
D03*
Y205886D02*
D03*
D23*
X154500Y297000D02*
D03*
D24*
X129500Y163000D02*
D03*
X423000D02*
D03*
X129500Y313000D02*
D03*
X423000D02*
D03*
D25*
X340000Y207500D02*
D03*
M02*
