G04*
G04 #@! TF.GenerationSoftware,Altium Limited,Altium Designer,25.6.2 (33)*
G04*
G04 Layer_Color=32896*
%FSLAX25Y25*%
%MOIN*%
G70*
G04*
G04 #@! TF.SameCoordinates,A6983FEA-D560-4925-98B3-38CB5C928B3C*
G04*
G04*
G04 #@! TF.FilePolarity,Positive*
G04*
G01*
G75*
%ADD12C,0.00787*%
G36*
X215309Y174994D02*
X215437Y174980D01*
X215493Y174970D01*
X215549Y174957D01*
X215601Y174948D01*
X215651Y174934D01*
X215696Y174921D01*
X215736Y174911D01*
X215769Y174898D01*
X215798Y174889D01*
X215821Y174882D01*
X215841Y174875D01*
X215851Y174869D01*
X215854D01*
X215910Y174843D01*
X215965Y174813D01*
X216015Y174784D01*
X216060Y174751D01*
X216106Y174718D01*
X216146Y174685D01*
X216182Y174656D01*
X216211Y174623D01*
X216241Y174593D01*
X216267Y174567D01*
X216287Y174541D01*
X216303Y174521D01*
X216320Y174502D01*
X216330Y174488D01*
X216333Y174482D01*
X216336Y174478D01*
X216366Y174429D01*
X216389Y174377D01*
X216411Y174321D01*
X216431Y174265D01*
X216461Y174154D01*
X216480Y174049D01*
X216487Y174000D01*
X216490Y173957D01*
X216494Y173914D01*
X216497Y173882D01*
X216500Y173852D01*
Y173813D01*
X216497Y173740D01*
X216490Y173672D01*
X216480Y173606D01*
X216467Y173544D01*
X216451Y173485D01*
X216431Y173429D01*
X216415Y173380D01*
X216392Y173330D01*
X216372Y173291D01*
X216356Y173255D01*
X216336Y173222D01*
X216320Y173196D01*
X216306Y173173D01*
X216297Y173160D01*
X216290Y173150D01*
X216287Y173147D01*
X216244Y173098D01*
X216198Y173052D01*
X216149Y173009D01*
X216097Y172973D01*
X216044Y172937D01*
X215995Y172907D01*
X215942Y172878D01*
X215893Y172855D01*
X215844Y172832D01*
X215801Y172816D01*
X215762Y172799D01*
X215729Y172786D01*
X215700Y172780D01*
X215677Y172773D01*
X215664Y172766D01*
X215660D01*
X215575Y173101D01*
X215634Y173117D01*
X215687Y173134D01*
X215736Y173153D01*
X215785Y173173D01*
X215828Y173196D01*
X215867Y173216D01*
X215903Y173239D01*
X215933Y173262D01*
X215962Y173281D01*
X215985Y173301D01*
X216008Y173321D01*
X216024Y173334D01*
X216038Y173347D01*
X216047Y173357D01*
X216051Y173363D01*
X216054Y173367D01*
X216084Y173403D01*
X216106Y173442D01*
X216129Y173481D01*
X216146Y173524D01*
X216175Y173603D01*
X216195Y173678D01*
X216201Y173711D01*
X216205Y173744D01*
X216208Y173770D01*
X216211Y173796D01*
X216215Y173816D01*
Y173842D01*
X216208Y173927D01*
X216195Y174006D01*
X216179Y174078D01*
X216156Y174144D01*
X216133Y174197D01*
X216123Y174219D01*
X216116Y174236D01*
X216106Y174252D01*
X216103Y174262D01*
X216097Y174269D01*
Y174272D01*
X216047Y174341D01*
X215992Y174400D01*
X215933Y174449D01*
X215874Y174492D01*
X215821Y174524D01*
X215798Y174534D01*
X215778Y174544D01*
X215762Y174554D01*
X215749Y174560D01*
X215742Y174564D01*
X215739D01*
X215647Y174593D01*
X215549Y174616D01*
X215457Y174633D01*
X215368Y174643D01*
X215329Y174649D01*
X215293D01*
X215260Y174652D01*
X215231Y174656D01*
X215208D01*
X215191D01*
X215181D01*
X215178D01*
X215086Y174652D01*
X214998Y174643D01*
X214916Y174629D01*
X214840Y174616D01*
X214811Y174610D01*
X214781Y174603D01*
X214755Y174597D01*
X214732Y174590D01*
X214716Y174583D01*
X214703Y174580D01*
X214696Y174577D01*
X214693D01*
X214608Y174544D01*
X214535Y174502D01*
X214470Y174456D01*
X214417Y174410D01*
X214375Y174370D01*
X214345Y174337D01*
X214332Y174324D01*
X214325Y174314D01*
X214319Y174308D01*
Y174305D01*
X214293Y174265D01*
X214273Y174226D01*
X214237Y174144D01*
X214211Y174062D01*
X214194Y173986D01*
X214191Y173951D01*
X214184Y173918D01*
X214181Y173888D01*
Y173865D01*
X214178Y173846D01*
Y173816D01*
X214184Y173724D01*
X214197Y173642D01*
X214217Y173570D01*
X214240Y173508D01*
X214266Y173458D01*
X214276Y173439D01*
X214286Y173422D01*
X214293Y173409D01*
X214299Y173399D01*
X214306Y173396D01*
Y173393D01*
X214332Y173363D01*
X214358Y173334D01*
X214421Y173281D01*
X214486Y173239D01*
X214552Y173203D01*
X214611Y173173D01*
X214637Y173163D01*
X214660Y173153D01*
X214680Y173147D01*
X214693Y173140D01*
X214703Y173137D01*
X214706D01*
X214627Y172809D01*
X214565Y172829D01*
X214503Y172855D01*
X214447Y172881D01*
X214394Y172911D01*
X214348Y172940D01*
X214302Y172970D01*
X214263Y172999D01*
X214227Y173029D01*
X214194Y173058D01*
X214165Y173084D01*
X214142Y173111D01*
X214122Y173130D01*
X214106Y173147D01*
X214096Y173163D01*
X214089Y173170D01*
X214086Y173173D01*
X214053Y173222D01*
X214020Y173275D01*
X213997Y173327D01*
X213974Y173380D01*
X213955Y173435D01*
X213938Y173488D01*
X213915Y173586D01*
X213909Y173632D01*
X213902Y173675D01*
X213899Y173714D01*
X213896Y173747D01*
X213892Y173773D01*
Y173872D01*
X213899Y173931D01*
X213915Y174046D01*
X213942Y174151D01*
X213955Y174197D01*
X213968Y174242D01*
X213984Y174282D01*
X213997Y174318D01*
X214011Y174347D01*
X214024Y174374D01*
X214034Y174393D01*
X214040Y174410D01*
X214043Y174419D01*
X214047Y174423D01*
X214076Y174472D01*
X214109Y174521D01*
X214181Y174606D01*
X214253Y174682D01*
X214325Y174741D01*
X214362Y174767D01*
X214391Y174790D01*
X214421Y174810D01*
X214443Y174823D01*
X214463Y174836D01*
X214480Y174846D01*
X214489Y174849D01*
X214493Y174852D01*
X214548Y174879D01*
X214608Y174902D01*
X214722Y174938D01*
X214837Y174964D01*
X214893Y174974D01*
X214945Y174980D01*
X214995Y174987D01*
X215037Y174994D01*
X215076Y174997D01*
X215113D01*
X215139Y175000D01*
X215162D01*
X215175D01*
X215178D01*
X215309Y174994D01*
D02*
G37*
G36*
X214837Y172189D02*
X214811Y172133D01*
X214785Y172078D01*
X214758Y172028D01*
X214735Y171986D01*
X214716Y171950D01*
X214709Y171937D01*
X214703Y171927D01*
X214699Y171923D01*
Y171920D01*
X214660Y171854D01*
X214621Y171799D01*
X214584Y171746D01*
X214552Y171704D01*
X214526Y171671D01*
X214503Y171645D01*
X214489Y171632D01*
X214486Y171625D01*
X216457D01*
Y171317D01*
X213925D01*
Y171517D01*
X213988Y171553D01*
X214047Y171595D01*
X214106Y171641D01*
X214155Y171684D01*
X214201Y171727D01*
X214234Y171759D01*
X214247Y171773D01*
X214257Y171782D01*
X214260Y171789D01*
X214263Y171792D01*
X214325Y171868D01*
X214381Y171943D01*
X214434Y172022D01*
X214476Y172091D01*
X214509Y172153D01*
X214526Y172179D01*
X214535Y172202D01*
X214545Y172219D01*
X214552Y172232D01*
X214558Y172242D01*
Y172245D01*
X214860D01*
X214837Y172189D01*
D02*
G37*
G36*
X224309Y174994D02*
X224437Y174980D01*
X224493Y174970D01*
X224549Y174957D01*
X224601Y174948D01*
X224651Y174934D01*
X224696Y174921D01*
X224736Y174911D01*
X224769Y174898D01*
X224798Y174889D01*
X224821Y174882D01*
X224841Y174875D01*
X224851Y174869D01*
X224854D01*
X224910Y174843D01*
X224965Y174813D01*
X225015Y174784D01*
X225061Y174751D01*
X225106Y174718D01*
X225146Y174685D01*
X225182Y174656D01*
X225211Y174623D01*
X225241Y174593D01*
X225267Y174567D01*
X225287Y174541D01*
X225303Y174521D01*
X225320Y174502D01*
X225329Y174488D01*
X225333Y174482D01*
X225336Y174478D01*
X225365Y174429D01*
X225389Y174377D01*
X225412Y174321D01*
X225431Y174265D01*
X225461Y174154D01*
X225480Y174049D01*
X225487Y174000D01*
X225490Y173957D01*
X225494Y173914D01*
X225497Y173882D01*
X225500Y173852D01*
Y173813D01*
X225497Y173740D01*
X225490Y173672D01*
X225480Y173606D01*
X225467Y173544D01*
X225451Y173485D01*
X225431Y173429D01*
X225415Y173380D01*
X225392Y173330D01*
X225372Y173291D01*
X225356Y173255D01*
X225336Y173222D01*
X225320Y173196D01*
X225307Y173173D01*
X225297Y173160D01*
X225290Y173150D01*
X225287Y173147D01*
X225244Y173098D01*
X225198Y173052D01*
X225149Y173009D01*
X225097Y172973D01*
X225044Y172937D01*
X224995Y172907D01*
X224942Y172878D01*
X224893Y172855D01*
X224844Y172832D01*
X224801Y172816D01*
X224762Y172799D01*
X224729Y172786D01*
X224700Y172780D01*
X224677Y172773D01*
X224664Y172766D01*
X224660D01*
X224575Y173101D01*
X224634Y173117D01*
X224687Y173134D01*
X224736Y173153D01*
X224785Y173173D01*
X224828Y173196D01*
X224867Y173216D01*
X224903Y173239D01*
X224933Y173262D01*
X224962Y173281D01*
X224985Y173301D01*
X225008Y173321D01*
X225024Y173334D01*
X225038Y173347D01*
X225047Y173357D01*
X225051Y173363D01*
X225054Y173367D01*
X225083Y173403D01*
X225106Y173442D01*
X225129Y173481D01*
X225146Y173524D01*
X225175Y173603D01*
X225195Y173678D01*
X225202Y173711D01*
X225205Y173744D01*
X225208Y173770D01*
X225211Y173796D01*
X225215Y173816D01*
Y173842D01*
X225208Y173927D01*
X225195Y174006D01*
X225179Y174078D01*
X225156Y174144D01*
X225133Y174197D01*
X225123Y174219D01*
X225116Y174236D01*
X225106Y174252D01*
X225103Y174262D01*
X225097Y174269D01*
Y174272D01*
X225047Y174341D01*
X224992Y174400D01*
X224933Y174449D01*
X224873Y174492D01*
X224821Y174524D01*
X224798Y174534D01*
X224778Y174544D01*
X224762Y174554D01*
X224749Y174560D01*
X224742Y174564D01*
X224739D01*
X224647Y174593D01*
X224549Y174616D01*
X224457Y174633D01*
X224368Y174643D01*
X224329Y174649D01*
X224293D01*
X224260Y174652D01*
X224231Y174656D01*
X224208D01*
X224191D01*
X224182D01*
X224178D01*
X224086Y174652D01*
X223998Y174643D01*
X223916Y174629D01*
X223840Y174616D01*
X223811Y174610D01*
X223781Y174603D01*
X223755Y174597D01*
X223732Y174590D01*
X223716Y174583D01*
X223703Y174580D01*
X223696Y174577D01*
X223693D01*
X223607Y174544D01*
X223535Y174502D01*
X223470Y174456D01*
X223417Y174410D01*
X223375Y174370D01*
X223345Y174337D01*
X223332Y174324D01*
X223325Y174314D01*
X223319Y174308D01*
Y174305D01*
X223293Y174265D01*
X223273Y174226D01*
X223237Y174144D01*
X223211Y174062D01*
X223194Y173986D01*
X223191Y173951D01*
X223184Y173918D01*
X223181Y173888D01*
Y173865D01*
X223178Y173846D01*
Y173816D01*
X223184Y173724D01*
X223198Y173642D01*
X223217Y173570D01*
X223240Y173508D01*
X223266Y173458D01*
X223276Y173439D01*
X223286Y173422D01*
X223293Y173409D01*
X223299Y173399D01*
X223306Y173396D01*
Y173393D01*
X223332Y173363D01*
X223358Y173334D01*
X223421Y173281D01*
X223486Y173239D01*
X223552Y173203D01*
X223611Y173173D01*
X223637Y173163D01*
X223660Y173153D01*
X223680Y173147D01*
X223693Y173140D01*
X223703Y173137D01*
X223706D01*
X223627Y172809D01*
X223565Y172829D01*
X223502Y172855D01*
X223447Y172881D01*
X223394Y172911D01*
X223348Y172940D01*
X223302Y172970D01*
X223263Y172999D01*
X223227Y173029D01*
X223194Y173058D01*
X223165Y173084D01*
X223142Y173111D01*
X223122Y173130D01*
X223106Y173147D01*
X223096Y173163D01*
X223089Y173170D01*
X223086Y173173D01*
X223053Y173222D01*
X223020Y173275D01*
X222997Y173327D01*
X222974Y173380D01*
X222955Y173435D01*
X222938Y173488D01*
X222915Y173586D01*
X222909Y173632D01*
X222902Y173675D01*
X222899Y173714D01*
X222896Y173747D01*
X222892Y173773D01*
Y173872D01*
X222899Y173931D01*
X222915Y174046D01*
X222942Y174151D01*
X222955Y174197D01*
X222968Y174242D01*
X222984Y174282D01*
X222997Y174318D01*
X223010Y174347D01*
X223024Y174374D01*
X223033Y174393D01*
X223040Y174410D01*
X223043Y174419D01*
X223047Y174423D01*
X223076Y174472D01*
X223109Y174521D01*
X223181Y174606D01*
X223253Y174682D01*
X223325Y174741D01*
X223361Y174767D01*
X223391Y174790D01*
X223421Y174810D01*
X223444Y174823D01*
X223463Y174836D01*
X223480Y174846D01*
X223489Y174849D01*
X223493Y174852D01*
X223548Y174879D01*
X223607Y174902D01*
X223722Y174938D01*
X223837Y174964D01*
X223893Y174974D01*
X223945Y174980D01*
X223994Y174987D01*
X224037Y174994D01*
X224077Y174997D01*
X224113D01*
X224139Y175000D01*
X224162D01*
X224175D01*
X224178D01*
X224309Y174994D01*
D02*
G37*
G36*
X224847Y172475D02*
X224903Y172461D01*
X224952Y172448D01*
X225002Y172429D01*
X225047Y172409D01*
X225090Y172389D01*
X225129Y172366D01*
X225166Y172346D01*
X225195Y172324D01*
X225224Y172304D01*
X225248Y172284D01*
X225267Y172268D01*
X225284Y172251D01*
X225293Y172242D01*
X225300Y172235D01*
X225303Y172232D01*
X225339Y172189D01*
X225369Y172146D01*
X225395Y172100D01*
X225418Y172051D01*
X225434Y172005D01*
X225451Y171959D01*
X225474Y171874D01*
X225484Y171835D01*
X225490Y171795D01*
X225494Y171763D01*
X225497Y171736D01*
X225500Y171713D01*
Y171681D01*
X225497Y171612D01*
X225490Y171549D01*
X225480Y171487D01*
X225464Y171431D01*
X225448Y171376D01*
X225428Y171326D01*
X225408Y171281D01*
X225385Y171238D01*
X225365Y171202D01*
X225346Y171169D01*
X225326Y171140D01*
X225310Y171116D01*
X225293Y171097D01*
X225284Y171084D01*
X225277Y171077D01*
X225274Y171074D01*
X225231Y171031D01*
X225185Y170995D01*
X225136Y170962D01*
X225090Y170933D01*
X225041Y170910D01*
X224995Y170890D01*
X224949Y170874D01*
X224906Y170861D01*
X224867Y170851D01*
X224831Y170844D01*
X224798Y170838D01*
X224769Y170834D01*
X224746Y170831D01*
X224726D01*
X224716D01*
X224713D01*
X224624Y170838D01*
X224549Y170851D01*
X224480Y170870D01*
X224421Y170894D01*
X224372Y170916D01*
X224355Y170926D01*
X224339Y170936D01*
X224326Y170943D01*
X224316Y170949D01*
X224313Y170956D01*
X224309D01*
X224254Y171005D01*
X224208Y171064D01*
X224168Y171120D01*
X224139Y171176D01*
X224119Y171225D01*
X224109Y171248D01*
X224103Y171267D01*
X224099Y171281D01*
X224096Y171294D01*
X224093Y171300D01*
Y171303D01*
X224060Y171245D01*
X224027Y171192D01*
X223991Y171146D01*
X223955Y171110D01*
X223926Y171080D01*
X223903Y171061D01*
X223886Y171048D01*
X223880Y171044D01*
X223827Y171015D01*
X223775Y170992D01*
X223726Y170979D01*
X223680Y170966D01*
X223640Y170959D01*
X223607Y170956D01*
X223588D01*
X223585D01*
X223581D01*
X223519Y170959D01*
X223460Y170969D01*
X223404Y170985D01*
X223355Y171002D01*
X223316Y171021D01*
X223283Y171035D01*
X223263Y171048D01*
X223260Y171051D01*
X223256D01*
X223201Y171087D01*
X223155Y171130D01*
X223112Y171176D01*
X223076Y171218D01*
X223050Y171258D01*
X223030Y171287D01*
X223024Y171300D01*
X223017Y171310D01*
X223014Y171313D01*
Y171317D01*
X222984Y171382D01*
X222961Y171448D01*
X222948Y171510D01*
X222935Y171569D01*
X222929Y171618D01*
Y171641D01*
X222925Y171658D01*
Y171694D01*
X222929Y171750D01*
X222932Y171802D01*
X222952Y171900D01*
X222981Y171986D01*
X222997Y172022D01*
X223010Y172058D01*
X223027Y172087D01*
X223043Y172117D01*
X223060Y172140D01*
X223073Y172160D01*
X223083Y172176D01*
X223093Y172186D01*
X223096Y172192D01*
X223099Y172196D01*
X223132Y172232D01*
X223168Y172265D01*
X223247Y172320D01*
X223325Y172363D01*
X223401Y172399D01*
X223437Y172412D01*
X223470Y172422D01*
X223502Y172432D01*
X223526Y172438D01*
X223548Y172445D01*
X223565Y172448D01*
X223575Y172451D01*
X223578D01*
X223634Y172143D01*
X223555Y172127D01*
X223486Y172107D01*
X223427Y172081D01*
X223381Y172055D01*
X223342Y172032D01*
X223316Y172012D01*
X223302Y171999D01*
X223296Y171992D01*
X223256Y171943D01*
X223230Y171894D01*
X223211Y171841D01*
X223194Y171795D01*
X223188Y171753D01*
X223184Y171717D01*
X223181Y171704D01*
Y171687D01*
X223184Y171622D01*
X223198Y171566D01*
X223217Y171513D01*
X223237Y171471D01*
X223260Y171438D01*
X223276Y171412D01*
X223289Y171399D01*
X223296Y171392D01*
X223339Y171353D01*
X223388Y171323D01*
X223434Y171303D01*
X223476Y171287D01*
X223516Y171281D01*
X223545Y171277D01*
X223568Y171274D01*
X223571D01*
X223575D01*
X223614Y171277D01*
X223650Y171281D01*
X223716Y171300D01*
X223772Y171323D01*
X223817Y171353D01*
X223850Y171382D01*
X223876Y171408D01*
X223890Y171428D01*
X223896Y171431D01*
Y171435D01*
X223929Y171494D01*
X223955Y171556D01*
X223972Y171615D01*
X223985Y171671D01*
X223991Y171717D01*
X223994Y171756D01*
X223998Y171769D01*
Y171805D01*
X223994Y171822D01*
X223991Y171832D01*
Y171838D01*
X224264Y171874D01*
X224254Y171828D01*
X224244Y171786D01*
X224237Y171746D01*
X224234Y171713D01*
X224231Y171690D01*
Y171654D01*
X224237Y171576D01*
X224254Y171507D01*
X224273Y171448D01*
X224300Y171395D01*
X224326Y171356D01*
X224345Y171326D01*
X224362Y171307D01*
X224368Y171300D01*
X224395Y171274D01*
X224424Y171254D01*
X224480Y171218D01*
X224539Y171192D01*
X224595Y171176D01*
X224644Y171166D01*
X224667Y171162D01*
X224683D01*
X224700Y171159D01*
X224710D01*
X224716D01*
X224719D01*
X224759D01*
X224798Y171166D01*
X224870Y171182D01*
X224936Y171208D01*
X224988Y171235D01*
X225034Y171261D01*
X225067Y171287D01*
X225077Y171297D01*
X225087Y171303D01*
X225090Y171307D01*
X225093Y171310D01*
X225119Y171340D01*
X225143Y171369D01*
X225182Y171431D01*
X225208Y171494D01*
X225224Y171553D01*
X225238Y171602D01*
X225241Y171625D01*
Y171645D01*
X225244Y171658D01*
Y171681D01*
X225238Y171746D01*
X225224Y171809D01*
X225208Y171861D01*
X225185Y171907D01*
X225166Y171946D01*
X225146Y171973D01*
X225133Y171989D01*
X225129Y171996D01*
X225106Y172019D01*
X225080Y172038D01*
X225018Y172074D01*
X224956Y172107D01*
X224893Y172130D01*
X224834Y172150D01*
X224811Y172156D01*
X224788Y172163D01*
X224772Y172166D01*
X224759Y172169D01*
X224749Y172173D01*
X224746D01*
X224788Y172481D01*
X224847Y172475D01*
D02*
G37*
G36*
X266759Y268497D02*
X266828Y268490D01*
X266894Y268480D01*
X266956Y268467D01*
X267015Y268451D01*
X267071Y268431D01*
X267120Y268415D01*
X267169Y268392D01*
X267209Y268372D01*
X267245Y268356D01*
X267278Y268336D01*
X267304Y268320D01*
X267327Y268306D01*
X267340Y268297D01*
X267350Y268290D01*
X267353Y268287D01*
X267402Y268244D01*
X267448Y268198D01*
X267491Y268149D01*
X267527Y268097D01*
X267563Y268044D01*
X267593Y267995D01*
X267622Y267942D01*
X267645Y267893D01*
X267668Y267844D01*
X267684Y267801D01*
X267701Y267762D01*
X267714Y267729D01*
X267721Y267700D01*
X267727Y267677D01*
X267734Y267664D01*
Y267660D01*
X267399Y267575D01*
X267383Y267634D01*
X267366Y267687D01*
X267347Y267736D01*
X267327Y267785D01*
X267304Y267828D01*
X267284Y267867D01*
X267261Y267903D01*
X267238Y267933D01*
X267219Y267962D01*
X267199Y267985D01*
X267179Y268008D01*
X267166Y268024D01*
X267153Y268038D01*
X267143Y268047D01*
X267137Y268051D01*
X267133Y268054D01*
X267097Y268084D01*
X267058Y268106D01*
X267019Y268129D01*
X266976Y268146D01*
X266897Y268175D01*
X266822Y268195D01*
X266789Y268201D01*
X266756Y268205D01*
X266730Y268208D01*
X266704Y268211D01*
X266684Y268215D01*
X266658D01*
X266572Y268208D01*
X266494Y268195D01*
X266422Y268179D01*
X266356Y268156D01*
X266303Y268133D01*
X266281Y268123D01*
X266264Y268116D01*
X266248Y268106D01*
X266238Y268103D01*
X266231Y268097D01*
X266228D01*
X266159Y268047D01*
X266100Y267992D01*
X266051Y267933D01*
X266008Y267874D01*
X265975Y267821D01*
X265966Y267798D01*
X265956Y267778D01*
X265946Y267762D01*
X265939Y267749D01*
X265936Y267742D01*
Y267739D01*
X265907Y267647D01*
X265884Y267549D01*
X265867Y267457D01*
X265858Y267368D01*
X265851Y267329D01*
Y267293D01*
X265848Y267260D01*
X265844Y267231D01*
Y267208D01*
Y267191D01*
Y267181D01*
Y267178D01*
X265848Y267086D01*
X265858Y266998D01*
X265871Y266916D01*
X265884Y266840D01*
X265890Y266811D01*
X265897Y266781D01*
X265903Y266755D01*
X265910Y266732D01*
X265916Y266716D01*
X265920Y266703D01*
X265923Y266696D01*
Y266693D01*
X265956Y266607D01*
X265999Y266535D01*
X266044Y266470D01*
X266090Y266417D01*
X266130Y266375D01*
X266162Y266345D01*
X266176Y266332D01*
X266185Y266325D01*
X266192Y266319D01*
X266195D01*
X266235Y266293D01*
X266274Y266273D01*
X266356Y266237D01*
X266438Y266211D01*
X266513Y266194D01*
X266549Y266191D01*
X266582Y266184D01*
X266612Y266181D01*
X266635D01*
X266654Y266178D01*
X266684D01*
X266776Y266184D01*
X266858Y266197D01*
X266930Y266217D01*
X266992Y266240D01*
X267041Y266266D01*
X267061Y266276D01*
X267078Y266286D01*
X267091Y266293D01*
X267101Y266299D01*
X267104Y266306D01*
X267107D01*
X267137Y266332D01*
X267166Y266358D01*
X267219Y266421D01*
X267261Y266486D01*
X267297Y266552D01*
X267327Y266611D01*
X267337Y266637D01*
X267347Y266660D01*
X267353Y266680D01*
X267360Y266693D01*
X267363Y266703D01*
Y266706D01*
X267691Y266627D01*
X267671Y266565D01*
X267645Y266502D01*
X267619Y266447D01*
X267589Y266394D01*
X267560Y266348D01*
X267530Y266302D01*
X267501Y266263D01*
X267471Y266227D01*
X267442Y266194D01*
X267415Y266165D01*
X267389Y266142D01*
X267370Y266122D01*
X267353Y266106D01*
X267337Y266096D01*
X267330Y266089D01*
X267327Y266086D01*
X267278Y266053D01*
X267225Y266020D01*
X267173Y265997D01*
X267120Y265974D01*
X267064Y265955D01*
X267012Y265938D01*
X266914Y265915D01*
X266868Y265909D01*
X266825Y265902D01*
X266786Y265899D01*
X266753Y265896D01*
X266727Y265892D01*
X266628D01*
X266569Y265899D01*
X266454Y265915D01*
X266349Y265942D01*
X266303Y265955D01*
X266258Y265968D01*
X266218Y265984D01*
X266182Y265997D01*
X266153Y266010D01*
X266126Y266024D01*
X266107Y266034D01*
X266090Y266040D01*
X266080Y266043D01*
X266077Y266047D01*
X266028Y266076D01*
X265979Y266109D01*
X265894Y266181D01*
X265818Y266253D01*
X265759Y266325D01*
X265733Y266361D01*
X265710Y266391D01*
X265690Y266421D01*
X265677Y266443D01*
X265664Y266463D01*
X265654Y266480D01*
X265651Y266489D01*
X265648Y266493D01*
X265621Y266548D01*
X265598Y266607D01*
X265562Y266722D01*
X265536Y266837D01*
X265526Y266893D01*
X265520Y266945D01*
X265513Y266995D01*
X265507Y267037D01*
X265503Y267076D01*
Y267113D01*
X265500Y267139D01*
Y267162D01*
Y267175D01*
Y267178D01*
X265507Y267309D01*
X265520Y267437D01*
X265529Y267493D01*
X265543Y267549D01*
X265552Y267601D01*
X265565Y267651D01*
X265579Y267696D01*
X265588Y267736D01*
X265602Y267769D01*
X265612Y267798D01*
X265618Y267821D01*
X265625Y267841D01*
X265631Y267851D01*
Y267854D01*
X265657Y267910D01*
X265687Y267965D01*
X265716Y268015D01*
X265749Y268060D01*
X265782Y268106D01*
X265815Y268146D01*
X265844Y268182D01*
X265877Y268211D01*
X265907Y268241D01*
X265933Y268267D01*
X265959Y268287D01*
X265979Y268303D01*
X265999Y268320D01*
X266012Y268330D01*
X266018Y268333D01*
X266021Y268336D01*
X266071Y268366D01*
X266123Y268389D01*
X266179Y268411D01*
X266235Y268431D01*
X266346Y268461D01*
X266451Y268480D01*
X266500Y268487D01*
X266543Y268490D01*
X266586Y268494D01*
X266618Y268497D01*
X266648Y268500D01*
X266687D01*
X266759Y268497D01*
D02*
G37*
G36*
X268724Y268320D02*
X268741Y268192D01*
X268747Y268133D01*
X268757Y268074D01*
X268770Y268021D01*
X268780Y267972D01*
X268790Y267926D01*
X268796Y267887D01*
X268806Y267851D01*
X268813Y267821D01*
X268819Y267798D01*
X268826Y267778D01*
X268829Y267769D01*
Y267765D01*
X268882Y267598D01*
X268941Y267441D01*
X268970Y267365D01*
X269000Y267293D01*
X269029Y267224D01*
X269059Y267162D01*
X269085Y267103D01*
X269111Y267050D01*
X269131Y267004D01*
X269151Y266965D01*
X269167Y266935D01*
X269180Y266913D01*
X269187Y266896D01*
X269190Y266893D01*
X269236Y266814D01*
X269279Y266742D01*
X269321Y266670D01*
X269364Y266607D01*
X269406Y266545D01*
X269446Y266489D01*
X269482Y266437D01*
X269518Y266391D01*
X269551Y266352D01*
X269580Y266316D01*
X269606Y266283D01*
X269626Y266256D01*
X269646Y266237D01*
X269659Y266224D01*
X269666Y266214D01*
X269669Y266211D01*
Y265968D01*
X268039D01*
Y266266D01*
X269272D01*
X269187Y266371D01*
X269101Y266483D01*
X269026Y266594D01*
X268960Y266699D01*
X268931Y266745D01*
X268905Y266791D01*
X268882Y266830D01*
X268862Y266863D01*
X268846Y266890D01*
X268836Y266913D01*
X268829Y266926D01*
X268826Y266929D01*
X268754Y267076D01*
X268688Y267221D01*
X268636Y267359D01*
X268609Y267421D01*
X268590Y267483D01*
X268570Y267539D01*
X268554Y267588D01*
X268541Y267631D01*
X268527Y267670D01*
X268521Y267700D01*
X268514Y267723D01*
X268508Y267736D01*
Y267742D01*
X268488Y267821D01*
X268472Y267893D01*
X268455Y267965D01*
X268442Y268031D01*
X268432Y268093D01*
X268422Y268152D01*
X268416Y268208D01*
X268409Y268257D01*
X268403Y268303D01*
X268399Y268343D01*
X268396Y268375D01*
Y268405D01*
X268393Y268428D01*
Y268444D01*
Y268454D01*
Y268457D01*
X268711D01*
X268724Y268320D01*
D02*
G37*
G36*
X369431Y207601D02*
X369546Y207585D01*
X369651Y207558D01*
X369696Y207545D01*
X369742Y207532D01*
X369782Y207516D01*
X369818Y207503D01*
X369847Y207489D01*
X369874Y207476D01*
X369893Y207467D01*
X369910Y207460D01*
X369919Y207457D01*
X369923Y207453D01*
X369972Y207424D01*
X370021Y207391D01*
X370106Y207319D01*
X370182Y207247D01*
X370241Y207175D01*
X370267Y207138D01*
X370290Y207109D01*
X370310Y207080D01*
X370323Y207056D01*
X370336Y207037D01*
X370346Y207020D01*
X370349Y207011D01*
X370352Y207007D01*
X370379Y206951D01*
X370402Y206892D01*
X370438Y206778D01*
X370464Y206663D01*
X370474Y206607D01*
X370480Y206555D01*
X370487Y206505D01*
X370494Y206463D01*
X370497Y206423D01*
Y206387D01*
X370500Y206361D01*
Y206338D01*
Y206325D01*
Y206322D01*
X370494Y206191D01*
X370480Y206063D01*
X370470Y206007D01*
X370457Y205951D01*
X370448Y205899D01*
X370434Y205850D01*
X370421Y205803D01*
X370411Y205764D01*
X370398Y205731D01*
X370389Y205702D01*
X370382Y205679D01*
X370375Y205659D01*
X370369Y205649D01*
Y205646D01*
X370343Y205590D01*
X370313Y205535D01*
X370284Y205485D01*
X370251Y205439D01*
X370218Y205394D01*
X370185Y205354D01*
X370156Y205318D01*
X370123Y205289D01*
X370093Y205259D01*
X370067Y205233D01*
X370041Y205213D01*
X370021Y205197D01*
X370002Y205180D01*
X369988Y205170D01*
X369982Y205167D01*
X369978Y205164D01*
X369929Y205134D01*
X369877Y205112D01*
X369821Y205088D01*
X369765Y205069D01*
X369654Y205039D01*
X369549Y205020D01*
X369500Y205013D01*
X369457Y205010D01*
X369414Y205007D01*
X369382Y205003D01*
X369352Y205000D01*
X369313D01*
X369240Y205003D01*
X369172Y205010D01*
X369106Y205020D01*
X369044Y205033D01*
X368985Y205049D01*
X368929Y205069D01*
X368880Y205085D01*
X368830Y205108D01*
X368791Y205128D01*
X368755Y205144D01*
X368722Y205164D01*
X368696Y205180D01*
X368673Y205193D01*
X368660Y205203D01*
X368650Y205210D01*
X368647Y205213D01*
X368598Y205256D01*
X368552Y205302D01*
X368509Y205351D01*
X368473Y205403D01*
X368437Y205456D01*
X368407Y205505D01*
X368378Y205557D01*
X368355Y205607D01*
X368332Y205656D01*
X368316Y205699D01*
X368299Y205738D01*
X368286Y205771D01*
X368280Y205800D01*
X368273Y205823D01*
X368266Y205836D01*
Y205840D01*
X368601Y205925D01*
X368617Y205866D01*
X368634Y205813D01*
X368653Y205764D01*
X368673Y205715D01*
X368696Y205672D01*
X368716Y205633D01*
X368739Y205597D01*
X368762Y205567D01*
X368781Y205538D01*
X368801Y205515D01*
X368821Y205492D01*
X368834Y205476D01*
X368847Y205462D01*
X368857Y205453D01*
X368863Y205449D01*
X368867Y205446D01*
X368903Y205416D01*
X368942Y205394D01*
X368981Y205371D01*
X369024Y205354D01*
X369103Y205325D01*
X369178Y205305D01*
X369211Y205298D01*
X369244Y205295D01*
X369270Y205292D01*
X369296Y205289D01*
X369316Y205285D01*
X369342D01*
X369427Y205292D01*
X369506Y205305D01*
X369578Y205321D01*
X369644Y205344D01*
X369696Y205367D01*
X369719Y205377D01*
X369736Y205384D01*
X369752Y205394D01*
X369762Y205397D01*
X369769Y205403D01*
X369772D01*
X369841Y205453D01*
X369900Y205508D01*
X369949Y205567D01*
X369992Y205626D01*
X370024Y205679D01*
X370034Y205702D01*
X370044Y205721D01*
X370054Y205738D01*
X370060Y205751D01*
X370064Y205758D01*
Y205761D01*
X370093Y205853D01*
X370116Y205951D01*
X370133Y206043D01*
X370143Y206132D01*
X370149Y206171D01*
Y206207D01*
X370152Y206240D01*
X370156Y206269D01*
Y206292D01*
Y206309D01*
Y206318D01*
Y206322D01*
X370152Y206414D01*
X370143Y206502D01*
X370129Y206584D01*
X370116Y206660D01*
X370110Y206689D01*
X370103Y206719D01*
X370097Y206745D01*
X370090Y206768D01*
X370083Y206784D01*
X370080Y206797D01*
X370077Y206804D01*
Y206807D01*
X370044Y206892D01*
X370002Y206965D01*
X369956Y207030D01*
X369910Y207083D01*
X369870Y207125D01*
X369837Y207155D01*
X369824Y207168D01*
X369814Y207175D01*
X369808Y207181D01*
X369805D01*
X369765Y207207D01*
X369726Y207227D01*
X369644Y207263D01*
X369562Y207289D01*
X369486Y207306D01*
X369450Y207309D01*
X369418Y207316D01*
X369388Y207319D01*
X369365D01*
X369345Y207322D01*
X369316D01*
X369224Y207316D01*
X369142Y207302D01*
X369070Y207283D01*
X369008Y207260D01*
X368958Y207234D01*
X368939Y207224D01*
X368922Y207214D01*
X368909Y207207D01*
X368899Y207201D01*
X368896Y207194D01*
X368893D01*
X368863Y207168D01*
X368834Y207142D01*
X368781Y207080D01*
X368739Y207014D01*
X368703Y206948D01*
X368673Y206889D01*
X368663Y206863D01*
X368653Y206840D01*
X368647Y206820D01*
X368640Y206807D01*
X368637Y206797D01*
Y206794D01*
X368309Y206873D01*
X368329Y206935D01*
X368355Y206997D01*
X368381Y207053D01*
X368411Y207106D01*
X368440Y207152D01*
X368470Y207198D01*
X368499Y207237D01*
X368529Y207273D01*
X368558Y207306D01*
X368584Y207335D01*
X368611Y207358D01*
X368631Y207378D01*
X368647Y207394D01*
X368663Y207404D01*
X368670Y207411D01*
X368673Y207414D01*
X368722Y207447D01*
X368775Y207480D01*
X368827Y207503D01*
X368880Y207526D01*
X368935Y207545D01*
X368988Y207562D01*
X369086Y207585D01*
X369132Y207591D01*
X369175Y207598D01*
X369214Y207601D01*
X369247Y207604D01*
X369273Y207608D01*
X369372D01*
X369431Y207601D01*
D02*
G37*
G36*
X367220Y207572D02*
X367279Y207568D01*
X367332Y207558D01*
X367381Y207545D01*
X367427Y207532D01*
X367473Y207516D01*
X367512Y207496D01*
X367545Y207480D01*
X367578Y207463D01*
X367607Y207444D01*
X367630Y207427D01*
X367650Y207414D01*
X367666Y207401D01*
X367676Y207394D01*
X367683Y207388D01*
X367686Y207384D01*
X367722Y207348D01*
X367751Y207312D01*
X367778Y207273D01*
X367801Y207234D01*
X367817Y207194D01*
X367833Y207155D01*
X367856Y207083D01*
X367873Y207020D01*
X367876Y206991D01*
X367879Y206968D01*
X367883Y206948D01*
Y206935D01*
Y206925D01*
Y206922D01*
X367879Y206856D01*
X367869Y206797D01*
X367853Y206745D01*
X367837Y206699D01*
X367820Y206663D01*
X367804Y206633D01*
X367794Y206617D01*
X367791Y206610D01*
X367751Y206564D01*
X367709Y206522D01*
X367660Y206489D01*
X367614Y206459D01*
X367571Y206437D01*
X367538Y206420D01*
X367525Y206414D01*
X367515Y206410D01*
X367509Y206407D01*
X367505D01*
X367587Y206381D01*
X367656Y206348D01*
X367719Y206309D01*
X367768Y206273D01*
X367807Y206237D01*
X367837Y206207D01*
X367853Y206187D01*
X367860Y206184D01*
Y206181D01*
X367902Y206115D01*
X367932Y206046D01*
X367955Y205981D01*
X367968Y205915D01*
X367978Y205856D01*
X367981Y205833D01*
Y205813D01*
X367984Y205794D01*
Y205781D01*
Y205774D01*
Y205771D01*
X367981Y205712D01*
X367974Y205653D01*
X367965Y205597D01*
X367948Y205544D01*
X367932Y205495D01*
X367912Y205449D01*
X367893Y205410D01*
X367869Y205371D01*
X367850Y205338D01*
X367830Y205308D01*
X367810Y205282D01*
X367794Y205259D01*
X367778Y205243D01*
X367768Y205230D01*
X367761Y205223D01*
X367758Y205220D01*
X367712Y205180D01*
X367666Y205148D01*
X367617Y205118D01*
X367568Y205092D01*
X367515Y205072D01*
X367466Y205052D01*
X367371Y205026D01*
X367325Y205020D01*
X367286Y205013D01*
X367250Y205007D01*
X367217Y205003D01*
X367191Y205000D01*
X367154D01*
X367086Y205003D01*
X367023Y205010D01*
X366961Y205020D01*
X366905Y205036D01*
X366849Y205052D01*
X366800Y205069D01*
X366758Y205088D01*
X366715Y205112D01*
X366679Y205131D01*
X366646Y205151D01*
X366620Y205167D01*
X366597Y205187D01*
X366577Y205200D01*
X366564Y205210D01*
X366558Y205216D01*
X366554Y205220D01*
X366515Y205262D01*
X366479Y205305D01*
X366449Y205351D01*
X366420Y205397D01*
X366400Y205443D01*
X366380Y205489D01*
X366364Y205531D01*
X366354Y205574D01*
X366344Y205613D01*
X366338Y205646D01*
X366331Y205679D01*
X366328Y205708D01*
X366325Y205731D01*
Y205748D01*
Y205758D01*
Y205761D01*
X366331Y205846D01*
X366344Y205925D01*
X366364Y205994D01*
X366384Y206053D01*
X366407Y206099D01*
X366416Y206118D01*
X366426Y206135D01*
X366436Y206148D01*
X366439Y206158D01*
X366446Y206161D01*
Y206164D01*
X366495Y206223D01*
X366551Y206273D01*
X366610Y206315D01*
X366669Y206348D01*
X366722Y206374D01*
X366741Y206384D01*
X366761Y206394D01*
X366777Y206400D01*
X366790Y206404D01*
X366797Y206407D01*
X366800D01*
X366735Y206437D01*
X366679Y206469D01*
X366630Y206502D01*
X366590Y206535D01*
X366561Y206564D01*
X366538Y206588D01*
X366525Y206601D01*
X366521Y206607D01*
X366489Y206660D01*
X366466Y206712D01*
X366449Y206761D01*
X366439Y206810D01*
X366430Y206853D01*
X366426Y206886D01*
Y206899D01*
Y206909D01*
Y206912D01*
Y206915D01*
X366430Y206965D01*
X366436Y207014D01*
X366446Y207060D01*
X366459Y207106D01*
X366492Y207184D01*
X366528Y207253D01*
X366548Y207280D01*
X366564Y207306D01*
X366584Y207329D01*
X366597Y207348D01*
X366610Y207362D01*
X366620Y207371D01*
X366626Y207378D01*
X366630Y207381D01*
X366669Y207414D01*
X366708Y207447D01*
X366754Y207470D01*
X366797Y207493D01*
X366843Y207512D01*
X366885Y207529D01*
X366971Y207552D01*
X367010Y207558D01*
X367046Y207565D01*
X367079Y207568D01*
X367105Y207572D01*
X367128Y207575D01*
X367161D01*
X367220Y207572D01*
D02*
G37*
%LPC*%
G36*
X367171Y207319D02*
X367154D01*
X367092Y207312D01*
X367036Y207299D01*
X366987Y207283D01*
X366945Y207260D01*
X366908Y207237D01*
X366882Y207221D01*
X366869Y207207D01*
X366863Y207201D01*
X366823Y207155D01*
X366794Y207109D01*
X366774Y207060D01*
X366758Y207014D01*
X366751Y206975D01*
X366748Y206945D01*
X366744Y206932D01*
Y206922D01*
Y206919D01*
Y206915D01*
X366748Y206856D01*
X366761Y206804D01*
X366780Y206755D01*
X366800Y206715D01*
X366823Y206683D01*
X366840Y206660D01*
X366853Y206646D01*
X366859Y206640D01*
X366905Y206604D01*
X366954Y206574D01*
X367004Y206555D01*
X367050Y206542D01*
X367089Y206535D01*
X367122Y206532D01*
X367135Y206528D01*
X367151D01*
X367217Y206532D01*
X367276Y206545D01*
X367328Y206564D01*
X367371Y206584D01*
X367407Y206604D01*
X367433Y206624D01*
X367446Y206637D01*
X367453Y206640D01*
X367489Y206686D01*
X367518Y206735D01*
X367538Y206784D01*
X367551Y206830D01*
X367558Y206870D01*
X367561Y206902D01*
X367564Y206915D01*
Y206925D01*
Y206929D01*
Y206932D01*
X367558Y206988D01*
X367545Y207040D01*
X367528Y207086D01*
X367505Y207129D01*
X367486Y207158D01*
X367466Y207184D01*
X367453Y207198D01*
X367450Y207204D01*
X367404Y207243D01*
X367354Y207270D01*
X367305Y207289D01*
X367259Y207306D01*
X367217Y207312D01*
X367184Y207316D01*
X367171Y207319D01*
D02*
G37*
G36*
X367184Y206276D02*
X367122D01*
X367082Y206269D01*
X367010Y206253D01*
X366948Y206230D01*
X366892Y206204D01*
X366849Y206174D01*
X366817Y206151D01*
X366797Y206135D01*
X366790Y206132D01*
Y206128D01*
X366764Y206102D01*
X366741Y206072D01*
X366705Y206010D01*
X366679Y205948D01*
X366662Y205889D01*
X366649Y205836D01*
X366646Y205813D01*
Y205797D01*
X366643Y205781D01*
Y205767D01*
Y205761D01*
Y205758D01*
Y205718D01*
X366649Y205679D01*
X366666Y205610D01*
X366689Y205548D01*
X366715Y205495D01*
X366741Y205453D01*
X366764Y205423D01*
X366780Y205403D01*
X366784Y205400D01*
X366787Y205397D01*
X366813Y205371D01*
X366843Y205351D01*
X366905Y205315D01*
X366968Y205292D01*
X367023Y205272D01*
X367076Y205262D01*
X367099Y205259D01*
X367118D01*
X367131Y205256D01*
X367154D01*
X367207Y205259D01*
X367256Y205266D01*
X367299Y205276D01*
X367341Y205289D01*
X367374Y205302D01*
X367397Y205311D01*
X367414Y205318D01*
X367420Y205321D01*
X367463Y205351D01*
X367502Y205380D01*
X367535Y205413D01*
X367561Y205443D01*
X367581Y205469D01*
X367594Y205492D01*
X367604Y205505D01*
X367607Y205512D01*
X367627Y205557D01*
X367640Y205604D01*
X367653Y205649D01*
X367660Y205689D01*
X367663Y205721D01*
X367666Y205748D01*
Y205764D01*
Y205771D01*
X367663Y205810D01*
X367660Y205850D01*
X367643Y205918D01*
X367620Y205981D01*
X367594Y206033D01*
X367571Y206076D01*
X367548Y206105D01*
X367532Y206125D01*
X367525Y206132D01*
X367499Y206158D01*
X367469Y206181D01*
X367410Y206213D01*
X367348Y206240D01*
X367292Y206259D01*
X367240Y206269D01*
X367220Y206273D01*
X367200D01*
X367184Y206276D01*
D02*
G37*
%LPD*%
D12*
X212563Y167126D02*
Y182874D01*
Y167126D02*
X220437D01*
Y182874D01*
X212563D02*
X220437D01*
X221563Y166732D02*
Y183268D01*
Y166732D02*
X229437D01*
Y183268D01*
X221563D02*
X229437D01*
X257626Y264563D02*
X273374D01*
Y272437D01*
X257626D02*
X273374D01*
X257626Y264563D02*
Y272437D01*
X362626Y208937D02*
X378374D01*
X362626Y201063D02*
Y208937D01*
Y201063D02*
X378374D01*
Y208937D01*
M02*
