M48
;Layer_Color=9474304
;FILE_FORMAT=2:5
INCH,TZ
;TYPE=PLATED
T01F00S00C0.01181
T02F00S00C0.01200
T04F00S00C0.03000
T05F00S00C0.04000
T06F00S00C0.04331
T07F00S00C0.07874
;TYPE=NON_PLATED
T08F00S00C0.02559
%
T01
X276449Y207827
X278614Y205661
Y209992
X276449Y212158
X278614Y214323
X280780Y212158
X282945Y214323
Y209992
X280780Y207827
X282945Y205661
X285110Y207827
Y212158
T02
X363094Y175000
X375608Y196392
X311500Y185500
X311449Y209205
X311500Y215000
X311449Y221016
Y226921
X242500Y227000
X225000Y221000
X217500Y219000
X216500Y191000
X171360Y187750
X165500Y190500
Y196278
X171360Y201250
X186650Y228642
X186500Y246000
X201500Y279000
X246500Y291500
X249500
X252591Y291409
X155500Y262000
X155000Y246000
X155350Y228642
X149500Y204000
X145000Y195500
X154500Y193500
X151000Y185000
T04
X365657Y188000
X375500
X385343
X395185
T05
X261000Y277000
X271000
X281000
X291000
T06
X340000Y207500
Y217500
Y227500
Y237500
X184500Y297000
X174500
X164500
X154500
T07
X423000Y163000
X129500
Y313000
X423000
T08
X145488Y183130
Y205886
M30
