G04*
G04 #@! TF.GenerationSoftware,Altium Limited,Altium Designer,25.6.2 (33)*
G04*
G04 Layer_Color=32896*
%FSLAX25Y25*%
%MOIN*%
G70*
G04*
G04 #@! TF.SameCoordinates,A6983FEA-D560-4925-98B3-38CB5C928B3C*
G04*
G04*
G04 #@! TF.FilePolarity,Positive*
G04*
G01*
G75*
%ADD10C,0.01000*%
%ADD11C,0.00984*%
%ADD12C,0.00787*%
%ADD14C,0.00800*%
%ADD15C,0.01200*%
%ADD71C,0.00500*%
%ADD72R,0.05906X0.00787*%
%ADD73R,0.00787X0.05906*%
D10*
X414490Y293500D02*
Y298498D01*
X411157Y293500D01*
Y298498D01*
X409491Y293500D02*
X407825D01*
X408658D01*
Y296832D01*
X409491D01*
X401994D02*
X404493D01*
X405326Y295999D01*
Y294333D01*
X404493Y293500D01*
X401994D01*
X400327Y298498D02*
Y293500D01*
Y295999D01*
X399494Y296832D01*
X397828D01*
X396995Y295999D01*
Y293500D01*
X394496D02*
X392830D01*
X391997Y294333D01*
Y295999D01*
X392830Y296832D01*
X394496D01*
X395329Y295999D01*
Y294333D01*
X394496Y293500D01*
X390331D02*
X388665D01*
X389498D01*
Y298498D01*
X390331D01*
X385332Y296832D02*
X383666D01*
X382833Y295999D01*
Y293500D01*
X385332D01*
X386165Y294333D01*
X385332Y295166D01*
X382833D01*
X381167Y293500D02*
X378668D01*
X377835Y294333D01*
X378668Y295166D01*
X380334D01*
X381167Y295999D01*
X380334Y296832D01*
X377835D01*
X371170Y293500D02*
Y298498D01*
X367838Y293500D01*
Y298498D01*
X366172Y293500D02*
X364506D01*
X365339D01*
Y296832D01*
X366172D01*
X362006Y293500D02*
X360340D01*
X361173D01*
Y298498D01*
X362006D01*
X355342Y293500D02*
X357008D01*
X357841Y294333D01*
Y295999D01*
X357008Y296832D01*
X355342D01*
X354509Y295999D01*
Y295166D01*
X357841D01*
X352843Y293500D02*
X350344D01*
X349511Y294333D01*
X350344Y295166D01*
X352010D01*
X352843Y295999D01*
X352010Y296832D01*
X349511D01*
D11*
X147630Y297000D02*
G03*
X147630Y297000I-492J0D01*
G01*
X340492Y200138D02*
G03*
X340492Y200138I-492J0D01*
G01*
D12*
X236055Y185583D02*
G03*
X236055Y185583I-394J0D01*
G01*
X173949Y255390D02*
G03*
X173949Y255390I-394J0D01*
G01*
X155016Y181713D02*
G03*
X155016Y181713I-394J0D01*
G01*
X213854Y251532D02*
Y255469D01*
X208146Y251532D02*
Y255469D01*
X204847Y252028D02*
Y254784D01*
X198153Y252028D02*
Y254784D01*
X228740Y218047D02*
X231496D01*
X228740Y223953D02*
X231496D01*
X212957Y172835D02*
Y177165D01*
X220043Y172835D02*
Y177165D01*
X221957Y172736D02*
Y177264D01*
X229043Y172736D02*
Y177264D01*
X231047Y184622D02*
Y187378D01*
X236953Y184622D02*
Y187378D01*
X222547Y194622D02*
Y197378D01*
X228453Y194622D02*
Y197378D01*
X185953Y272122D02*
Y274878D01*
X180047Y272122D02*
Y274878D01*
X148953Y255122D02*
Y257878D01*
X143047Y255122D02*
Y257878D01*
X163531Y185146D02*
X167469D01*
X163531Y190854D02*
X167469D01*
X163531Y204354D02*
X167469D01*
X163531Y198646D02*
X167469D01*
X288047Y288122D02*
Y290878D01*
X293953Y288122D02*
Y290878D01*
X278047Y288122D02*
Y290878D01*
X283953Y288122D02*
Y290878D01*
X264622Y282547D02*
X267378D01*
X264622Y288453D02*
X267378D01*
X263335Y264957D02*
X267665D01*
X263335Y272043D02*
X267665D01*
X368531Y193842D02*
X372468D01*
X368531Y199158D02*
X372468D01*
X368335Y208543D02*
X372665D01*
X368335Y201457D02*
X372665D01*
X367622Y178347D02*
X370378D01*
X367622Y171653D02*
X370378D01*
X136512Y212106D02*
X141433D01*
X136512Y176909D02*
X141433D01*
X120764Y212106D02*
X125803D01*
X120764Y176909D02*
X125803D01*
X190091Y291705D02*
Y302295D01*
X148909Y291705D02*
X190091D01*
X148909D02*
Y302295D01*
X190091D01*
X334705Y201909D02*
Y243091D01*
Y201909D02*
X345295D01*
Y243091D01*
X334705D02*
X345295D01*
D14*
X414570Y290465D02*
Y286966D01*
Y288716D01*
X413986Y289299D01*
X412820D01*
X412237Y288716D01*
Y286966D01*
X410488Y289882D02*
Y289299D01*
X411071D01*
X409904D01*
X410488D01*
Y287549D01*
X409904Y286966D01*
X407572Y289882D02*
Y289299D01*
X408155D01*
X406989D01*
X407572D01*
Y287549D01*
X406989Y286966D01*
X405239Y285800D02*
Y289299D01*
X403490D01*
X402907Y288716D01*
Y287549D01*
X403490Y286966D01*
X405239D01*
X401740D02*
X399991D01*
X399408Y287549D01*
X399991Y288133D01*
X401157D01*
X401740Y288716D01*
X401157Y289299D01*
X399408D01*
X398241D02*
X397658D01*
Y288716D01*
X398241D01*
Y289299D01*
Y287549D02*
X397658D01*
Y286966D01*
X398241D01*
Y287549D01*
X395326Y286966D02*
X392993Y289299D01*
X391827Y286966D02*
X389494Y289299D01*
X388328Y286966D02*
Y289299D01*
X386579D01*
X385996Y288716D01*
Y286966D01*
X384829D02*
X383663D01*
X384246D01*
Y289299D01*
X384829D01*
X379581D02*
X381330D01*
X381913Y288716D01*
Y287549D01*
X381330Y286966D01*
X379581D01*
X378415Y290465D02*
Y286966D01*
Y288716D01*
X377831Y289299D01*
X376665D01*
X376082Y288716D01*
Y286966D01*
X374333D02*
X373166D01*
X372583Y287549D01*
Y288716D01*
X373166Y289299D01*
X374333D01*
X374916Y288716D01*
Y287549D01*
X374333Y286966D01*
X371417D02*
X370251D01*
X370834D01*
Y290465D01*
X371417D01*
X367918Y289299D02*
X366752D01*
X366169Y288716D01*
Y286966D01*
X367918D01*
X368501Y287549D01*
X367918Y288133D01*
X366169D01*
X365002Y286966D02*
X363253D01*
X362670Y287549D01*
X363253Y288133D01*
X364419D01*
X365002Y288716D01*
X364419Y289299D01*
X362670D01*
X361503Y286966D02*
Y289299D01*
X359754D01*
X359171Y288716D01*
Y286966D01*
X358004D02*
X356838D01*
X357421D01*
Y289299D01*
X358004D01*
X355089Y286966D02*
X353923D01*
X354506D01*
Y290465D01*
X355089D01*
X350424Y286966D02*
X351590D01*
X352173Y287549D01*
Y288716D01*
X351590Y289299D01*
X350424D01*
X349840Y288716D01*
Y288133D01*
X352173D01*
X348674Y286966D02*
X346925D01*
X346342Y287549D01*
X346925Y288133D01*
X348091D01*
X348674Y288716D01*
X348091Y289299D01*
X346342D01*
X345175Y286966D02*
Y287549D01*
X344592D01*
Y286966D01*
X345175D01*
X339927Y289299D02*
X341676D01*
X342260Y288716D01*
Y287549D01*
X341676Y286966D01*
X339927D01*
X338178D02*
X337011D01*
X336428Y287549D01*
Y288716D01*
X337011Y289299D01*
X338178D01*
X338761Y288716D01*
Y287549D01*
X338178Y286966D01*
X335262D02*
Y289299D01*
X334679D01*
X334096Y288716D01*
Y286966D01*
Y288716D01*
X333512Y289299D01*
X332929Y288716D01*
Y286966D01*
X331763D02*
X329430Y289299D01*
X266867Y241799D02*
X269200D01*
Y238300D01*
X266867D01*
X269200Y240049D02*
X268034D01*
X263369Y241216D02*
X263952Y241799D01*
X265118D01*
X265701Y241216D01*
Y240633D01*
X265118Y240049D01*
X263952D01*
X263369Y239466D01*
Y238883D01*
X263952Y238300D01*
X265118D01*
X265701Y238883D01*
X262202Y238300D02*
Y241799D01*
X260453D01*
X259870Y241216D01*
Y240049D01*
X260453Y239466D01*
X262202D01*
X258703Y241216D02*
X258120Y241799D01*
X256954D01*
X256371Y241216D01*
Y240633D01*
X256954Y240049D01*
X257537D01*
X256954D01*
X256371Y239466D01*
Y238883D01*
X256954Y238300D01*
X258120D01*
X258703Y238883D01*
X252872Y238300D02*
X255205D01*
X252872Y240633D01*
Y241216D01*
X253455Y241799D01*
X254621D01*
X255205Y241216D01*
X251706Y240049D02*
X249373D01*
X245874Y241216D02*
X246457Y241799D01*
X247624D01*
X248207Y241216D01*
Y238883D01*
X247624Y238300D01*
X246457D01*
X245874Y238883D01*
X244708Y241216D02*
X244125Y241799D01*
X242958D01*
X242375Y241216D01*
Y240633D01*
X242958Y240049D01*
X243542D01*
X242958D01*
X242375Y239466D01*
Y238883D01*
X242958Y238300D01*
X244125D01*
X244708Y238883D01*
X398200Y169299D02*
Y165800D01*
X395867D01*
X392369Y169299D02*
X394701D01*
Y165800D01*
X392369D01*
X394701Y167549D02*
X393535D01*
X391202Y169299D02*
Y165800D01*
X389453D01*
X388870Y166383D01*
Y168716D01*
X389453Y169299D01*
X391202D01*
X384205D02*
Y165800D01*
X382455D01*
X381872Y166383D01*
Y166966D01*
X382455Y167549D01*
X384205D01*
X382455D01*
X381872Y168133D01*
Y168716D01*
X382455Y169299D01*
X384205D01*
X380706D02*
Y166383D01*
X380122Y165800D01*
X378956D01*
X378373Y166383D01*
Y169299D01*
X377207D02*
X376041D01*
X376624D01*
Y165800D01*
X377207D01*
X376041D01*
X374291Y169299D02*
Y165800D01*
X371958D01*
X370792Y169299D02*
X368460D01*
X369626D01*
Y165800D01*
X367293Y169299D02*
X366127D01*
X366710D01*
Y165800D01*
X367293D01*
X366127D01*
X364378D02*
Y169299D01*
X362045Y165800D01*
Y169299D01*
X353832Y225800D02*
Y228299D01*
X352583D01*
X352166Y227883D01*
Y227050D01*
X352583Y226633D01*
X353832D01*
X352999D02*
X352166Y225800D01*
X351333Y228299D02*
X349667Y225800D01*
Y228299D02*
X351333Y225800D01*
X348834Y228299D02*
Y225800D01*
X347584D01*
X347168Y226217D01*
Y227883D01*
X347584Y228299D01*
X348834D01*
X353832Y218299D02*
X352166D01*
X352999D01*
Y215800D01*
X351333Y218299D02*
X349667Y215800D01*
Y218299D02*
X351333Y215800D01*
X348834Y218299D02*
Y215800D01*
X347584D01*
X347168Y216216D01*
Y217883D01*
X347584Y218299D01*
X348834D01*
X352166Y238383D02*
X352583Y238799D01*
X353416D01*
X353832Y238383D01*
Y236717D01*
X353416Y236300D01*
X352583D01*
X352166Y236717D01*
Y237550D01*
X352999D01*
X351333Y236300D02*
Y238799D01*
X349667Y236300D01*
Y238799D01*
X348834D02*
Y236300D01*
X347584D01*
X347168Y236717D01*
Y238383D01*
X347584Y238799D01*
X348834D01*
X353832Y207883D02*
X353416Y208299D01*
X352583D01*
X352166Y207883D01*
Y207466D01*
X352583Y207050D01*
X352999D01*
X352583D01*
X352166Y206633D01*
Y206217D01*
X352583Y205800D01*
X353416D01*
X353832Y206217D01*
X351333Y208299D02*
Y206633D01*
X350500Y205800D01*
X349667Y206633D01*
Y208299D01*
X348834Y207883D02*
X348417Y208299D01*
X347584D01*
X347168Y207883D01*
Y207466D01*
X347584Y207050D01*
X348001D01*
X347584D01*
X347168Y206633D01*
Y206217D01*
X347584Y205800D01*
X348417D01*
X348834Y206217D01*
X217700Y286716D02*
X217117Y287299D01*
X215951D01*
X215367Y286716D01*
Y286133D01*
X215951Y285549D01*
X216534D01*
X215951D01*
X215367Y284966D01*
Y284383D01*
X215951Y283800D01*
X217117D01*
X217700Y284383D01*
X214201Y287299D02*
Y284966D01*
X213035Y283800D01*
X211869Y284966D01*
Y287299D01*
X210702Y286716D02*
X210119Y287299D01*
X208953D01*
X208370Y286716D01*
Y286133D01*
X208953Y285549D01*
X209536D01*
X208953D01*
X208370Y284966D01*
Y284383D01*
X208953Y283800D01*
X210119D01*
X210702Y284383D01*
X201867Y287299D02*
X204200D01*
Y285549D01*
X203034Y286133D01*
X202451D01*
X201867Y285549D01*
Y284383D01*
X202451Y283800D01*
X203617D01*
X204200Y284383D01*
X200701Y287299D02*
Y284966D01*
X199535Y283800D01*
X198369Y284966D01*
Y287299D01*
X197202Y286716D02*
X196619Y287299D01*
X195453D01*
X194870Y286716D01*
Y284383D01*
X195453Y283800D01*
X196619D01*
X197202Y284383D01*
Y286716D01*
X153250Y309298D02*
Y310964D01*
X154500D01*
X154084Y310131D01*
Y309715D01*
X154500Y309298D01*
X155333D01*
X155750Y309715D01*
Y310548D01*
X155333Y310964D01*
X153250Y308465D02*
X154917D01*
X155750Y307632D01*
X154917Y306799D01*
X153250D01*
X153667Y305966D02*
X153250Y305550D01*
Y304716D01*
X153667Y304300D01*
X155333D01*
X155750Y304716D01*
Y305550D01*
X155333Y305966D01*
X153667D01*
X163667Y311465D02*
X163250Y311048D01*
Y310215D01*
X163667Y309798D01*
X164084D01*
X164500Y310215D01*
Y310631D01*
Y310215D01*
X164917Y309798D01*
X165333D01*
X165750Y310215D01*
Y311048D01*
X165333Y311465D01*
X163250Y308965D02*
X164917D01*
X165750Y308132D01*
X164917Y307299D01*
X163250D01*
X163667Y306466D02*
X163250Y306050D01*
Y305217D01*
X163667Y304800D01*
X164084D01*
X164500Y305217D01*
Y305633D01*
Y305217D01*
X164917Y304800D01*
X165333D01*
X165750Y305217D01*
Y306050D01*
X165333Y306466D01*
X173667Y309798D02*
X173250Y310215D01*
Y311048D01*
X173667Y311465D01*
X175333D01*
X175750Y311048D01*
Y310215D01*
X175333Y309798D01*
X174500D01*
Y310631D01*
X175750Y308965D02*
X173250D01*
X175750Y307299D01*
X173250D01*
Y306466D02*
X175750D01*
Y305217D01*
X175333Y304800D01*
X173667D01*
X173250Y305217D01*
Y306466D01*
X183667Y309798D02*
X183250Y310215D01*
Y311048D01*
X183667Y311465D01*
X185333D01*
X185750Y311048D01*
Y310215D01*
X185333Y309798D01*
X184500D01*
Y310631D01*
X185750Y308965D02*
X183250D01*
X185750Y307299D01*
X183250D01*
Y306466D02*
X185750D01*
Y305217D01*
X185333Y304800D01*
X183667D01*
X183250Y305217D01*
Y306466D01*
X414869Y304965D02*
Y301466D01*
X413120D01*
X412536Y302049D01*
Y304382D01*
X413120Y304965D01*
X414869D01*
X409621Y301466D02*
X410787D01*
X411370Y302049D01*
Y303216D01*
X410787Y303799D01*
X409621D01*
X409038Y303216D01*
Y302633D01*
X411370D01*
X407871Y301466D02*
X406122D01*
X405539Y302049D01*
X406122Y302633D01*
X407288D01*
X407871Y303216D01*
X407288Y303799D01*
X405539D01*
X404372Y301466D02*
X403206D01*
X403789D01*
Y303799D01*
X404372D01*
X400290Y300300D02*
X399707D01*
X399124Y300883D01*
Y303799D01*
X400874D01*
X401457Y303216D01*
Y302049D01*
X400874Y301466D01*
X399124D01*
X397958D02*
Y303799D01*
X396208D01*
X395625Y303216D01*
Y301466D01*
X392710D02*
X393876D01*
X394459Y302049D01*
Y303216D01*
X393876Y303799D01*
X392710D01*
X392126Y303216D01*
Y302633D01*
X394459D01*
X388628Y304965D02*
Y301466D01*
X390377D01*
X390960Y302049D01*
Y303216D01*
X390377Y303799D01*
X388628D01*
X383962Y304965D02*
Y301466D01*
X382213D01*
X381630Y302049D01*
Y302633D01*
Y303216D01*
X382213Y303799D01*
X383962D01*
X380464D02*
Y302049D01*
X379880Y301466D01*
X378131D01*
Y300883D01*
X378714Y300300D01*
X379297D01*
X378131Y301466D02*
Y303799D01*
X179416Y286249D02*
Y283334D01*
X178833Y282751D01*
X177666D01*
X177083Y283334D01*
Y286249D01*
X173584Y282751D02*
X175917D01*
X173584Y285083D01*
Y285666D01*
X174167Y286249D01*
X175334D01*
X175917Y285666D01*
X141251Y294084D02*
X144749D01*
Y295834D01*
X144166Y296417D01*
X143000D01*
X142417Y295834D01*
Y294084D01*
X141251Y299916D02*
Y297583D01*
X143583Y299916D01*
X144166D01*
X144749Y299333D01*
Y298166D01*
X144166Y297583D01*
X203249Y242416D02*
X199751D01*
Y240666D01*
X200334Y240083D01*
X201500D01*
X202083Y240666D01*
Y242416D01*
Y241249D02*
X203249Y240083D01*
X202666Y238917D02*
X203249Y238334D01*
Y237167D01*
X202666Y236584D01*
X200334D01*
X199751Y237167D01*
Y238334D01*
X200334Y238917D01*
X200917D01*
X201500Y238334D01*
Y236584D01*
X212749Y242416D02*
X209251D01*
Y240666D01*
X209834Y240083D01*
X211000D01*
X211583Y240666D01*
Y242416D01*
Y241249D02*
X212749Y240083D01*
X209834Y238917D02*
X209251Y238334D01*
Y237167D01*
X209834Y236584D01*
X210417D01*
X211000Y237167D01*
X211583Y236584D01*
X212166D01*
X212749Y237167D01*
Y238334D01*
X212166Y238917D01*
X211583D01*
X211000Y238334D01*
X210417Y238917D01*
X209834D01*
X211000Y238334D02*
Y237167D01*
X358416Y173251D02*
Y176749D01*
X356666D01*
X356083Y176166D01*
Y175000D01*
X356666Y174417D01*
X358416D01*
X357249D02*
X356083Y173251D01*
X354917Y176749D02*
X352584D01*
Y176166D01*
X354917Y173834D01*
Y173251D01*
X220916Y219251D02*
Y222749D01*
X219166D01*
X218583Y222166D01*
Y221000D01*
X219166Y220417D01*
X220916D01*
X219749D02*
X218583Y219251D01*
X215084Y222749D02*
X216251Y222166D01*
X217417Y221000D01*
Y219834D01*
X216834Y219251D01*
X215667D01*
X215084Y219834D01*
Y220417D01*
X215667Y221000D01*
X217417D01*
X180916Y199751D02*
Y203249D01*
X179166D01*
X178583Y202666D01*
Y201500D01*
X179166Y200917D01*
X180916D01*
X179749D02*
X178583Y199751D01*
X177417Y202666D02*
X176834Y203249D01*
X175667D01*
X175084Y202666D01*
Y202083D01*
X175667Y201500D01*
X176251D01*
X175667D01*
X175084Y200917D01*
Y200334D01*
X175667Y199751D01*
X176834D01*
X177417Y200334D01*
X180916Y186251D02*
Y189749D01*
X179166D01*
X178583Y189166D01*
Y188000D01*
X179166Y187417D01*
X180916D01*
X179749D02*
X178583Y186251D01*
X175084D02*
X177417D01*
X175084Y188583D01*
Y189166D01*
X175667Y189749D01*
X176834D01*
X177417Y189166D01*
X235749Y176833D02*
X232251D01*
Y175083D01*
X232834Y174500D01*
X234000D01*
X234583Y175083D01*
Y176833D01*
Y175666D02*
X235749Y174500D01*
Y173334D02*
Y172167D01*
Y172751D01*
X232251D01*
X232834Y173334D01*
X196249Y270584D02*
X192751D01*
Y272334D01*
X193334Y272917D01*
X195666D01*
X196249Y272334D01*
Y270584D01*
X195666Y274083D02*
X196249Y274666D01*
Y275833D01*
X195666Y276416D01*
X195083D01*
X194500Y275833D01*
Y275249D01*
Y275833D01*
X193917Y276416D01*
X193334D01*
X192751Y275833D01*
Y274666D01*
X193334Y274083D01*
X219749Y270584D02*
X216251D01*
Y272334D01*
X216834Y272917D01*
X219166D01*
X219749Y272334D01*
Y270584D01*
X216251Y276416D02*
Y274083D01*
X218583Y276416D01*
X219166D01*
X219749Y275833D01*
Y274666D01*
X219166Y274083D01*
X407333Y176749D02*
Y173251D01*
X405583D01*
X405000Y173834D01*
Y176166D01*
X405583Y176749D01*
X407333D01*
X403834Y173251D02*
X402667D01*
X403251D01*
Y176749D01*
X403834Y176166D01*
X181834Y262083D02*
X181251Y262666D01*
Y263833D01*
X181834Y264416D01*
X184166D01*
X184749Y263833D01*
Y262666D01*
X184166Y262083D01*
X181251Y258584D02*
Y260917D01*
X183000D01*
X182417Y259751D01*
Y259167D01*
X183000Y258584D01*
X184166D01*
X184749Y259167D01*
Y260334D01*
X184166Y260917D01*
X147166Y267917D02*
X147749Y267334D01*
Y266167D01*
X147166Y265584D01*
X144834D01*
X144251Y266167D01*
Y267334D01*
X144834Y267917D01*
X144251Y270833D02*
X147749D01*
X146000Y269083D01*
Y271416D01*
X224334Y163583D02*
X223751Y164166D01*
Y165333D01*
X224334Y165916D01*
X226666D01*
X227249Y165333D01*
Y164166D01*
X226666Y163583D01*
X224334Y162417D02*
X223751Y161834D01*
Y160667D01*
X224334Y160084D01*
X224917D01*
X225500Y160667D01*
Y161251D01*
Y160667D01*
X226083Y160084D01*
X226666D01*
X227249Y160667D01*
Y161834D01*
X226666Y162417D01*
Y207417D02*
X227249Y206834D01*
Y205667D01*
X226666Y205084D01*
X224334D01*
X223751Y205667D01*
Y206834D01*
X224334Y207417D01*
X223751Y210916D02*
Y208583D01*
X226083Y210916D01*
X226666D01*
X227249Y210333D01*
Y209166D01*
X226666Y208583D01*
X215334Y163500D02*
X214751Y164083D01*
Y165250D01*
X215334Y165833D01*
X217666D01*
X218249Y165250D01*
Y164083D01*
X217666Y163500D01*
X218249Y162334D02*
Y161167D01*
Y161751D01*
X214751D01*
X215334Y162334D01*
X387874Y194751D02*
Y198249D01*
X386124D01*
X385541Y197666D01*
Y196500D01*
X386124Y195917D01*
X387874D01*
X386707D02*
X385541Y194751D01*
X384375D02*
X383208D01*
X383792D01*
Y198249D01*
X384375Y197666D01*
X381459D02*
X380876Y198249D01*
X379710D01*
X379126Y197666D01*
Y195334D01*
X379710Y194751D01*
X380876D01*
X381459Y195334D01*
Y197666D01*
X279251Y298584D02*
X282749D01*
Y300334D01*
X282166Y300917D01*
X281000D01*
X280417Y300334D01*
Y298584D01*
Y299751D02*
X279251Y300917D01*
X282749Y304416D02*
Y302083D01*
X281000D01*
X281583Y303249D01*
Y303833D01*
X281000Y304416D01*
X279834D01*
X279251Y303833D01*
Y302666D01*
X279834Y302083D01*
X289251Y298584D02*
X292749D01*
Y300334D01*
X292166Y300917D01*
X291000D01*
X290417Y300334D01*
Y298584D01*
Y299751D02*
X289251Y300917D01*
Y303833D02*
X292749D01*
X291000Y302083D01*
Y304416D01*
X382583Y206166D02*
X383166Y206749D01*
X384333D01*
X384916Y206166D01*
Y203834D01*
X384333Y203251D01*
X383166D01*
X382583Y203834D01*
X381417Y206166D02*
X380834Y206749D01*
X379667D01*
X379084Y206166D01*
Y205583D01*
X379667Y205000D01*
X379084Y204417D01*
Y203834D01*
X379667Y203251D01*
X380834D01*
X381417Y203834D01*
Y204417D01*
X380834Y205000D01*
X381417Y205583D01*
Y206166D01*
X380834Y205000D02*
X379667D01*
X254083Y269666D02*
X254666Y270249D01*
X255833D01*
X256416Y269666D01*
Y267334D01*
X255833Y266751D01*
X254666D01*
X254083Y267334D01*
X252917Y270249D02*
X250584D01*
Y269666D01*
X252917Y267334D01*
Y266751D01*
X254465Y286666D02*
X255048Y287249D01*
X256214D01*
X256798Y286666D01*
Y284334D01*
X256214Y283751D01*
X255048D01*
X254465Y284334D01*
X250966Y287249D02*
X252133Y286666D01*
X253299Y285500D01*
Y284334D01*
X252716Y283751D01*
X251549D01*
X250966Y284334D01*
Y284917D01*
X251549Y285500D01*
X253299D01*
X312333Y241749D02*
Y238834D01*
X311749Y238251D01*
X310583D01*
X310000Y238834D01*
Y241749D01*
X308834Y238251D02*
X307667D01*
X308251D01*
Y241749D01*
X308834Y241166D01*
X342333Y245251D02*
Y248749D01*
X340583D01*
X340000Y248166D01*
Y247000D01*
X340583Y246417D01*
X342333D01*
X338834Y245251D02*
X337667D01*
X338251D01*
Y248749D01*
X338834Y248166D01*
X156000Y212757D02*
X157166D01*
X156583D01*
Y209842D01*
X157166Y209258D01*
X157749D01*
X158333Y209842D01*
X154834Y209258D02*
X153667D01*
X154251D01*
Y212757D01*
X154834Y212174D01*
D15*
X178800Y216700D02*
Y221199D01*
X176551D01*
X175801Y220449D01*
Y218949D01*
X176551Y218199D01*
X178800D01*
X174301Y216700D02*
Y221199D01*
X172052D01*
X171302Y220449D01*
Y218949D01*
X172052Y218199D01*
X174301D01*
X172802D02*
X171302Y216700D01*
X167554Y221199D02*
X169053D01*
X169803Y220449D01*
Y217450D01*
X169053Y216700D01*
X167554D01*
X166804Y217450D01*
Y220449D01*
X167554Y221199D01*
X162305Y220449D02*
X163055Y221199D01*
X164555D01*
X165304Y220449D01*
Y217450D01*
X164555Y216700D01*
X163055D01*
X162305Y217450D01*
Y218949D01*
X163805D01*
X156307Y216700D02*
X153308Y219699D01*
X144311Y220449D02*
X145061Y221199D01*
X146560D01*
X147310Y220449D01*
Y219699D01*
X146560Y218949D01*
X145061D01*
X144311Y218199D01*
Y217450D01*
X145061Y216700D01*
X146560D01*
X147310Y217450D01*
X139813Y221199D02*
X142812D01*
Y216700D01*
X139813D01*
X142812Y218949D02*
X141312D01*
X138313Y216700D02*
Y221199D01*
X136064D01*
X135314Y220449D01*
Y218949D01*
X136064Y218199D01*
X138313D01*
X136813D02*
X135314Y216700D01*
X133815Y221199D02*
X132315D01*
X133065D01*
Y216700D01*
X133815D01*
X132315D01*
X130066D02*
Y219699D01*
X128566Y221199D01*
X127067Y219699D01*
Y216700D01*
Y218949D01*
X130066D01*
X125567Y221199D02*
Y216700D01*
X122568D01*
X237800Y299199D02*
X234801D01*
X236300D01*
Y294700D01*
X231052D02*
X232552D01*
X233301Y295450D01*
Y296949D01*
X232552Y297699D01*
X231052D01*
X230302Y296949D01*
Y296199D01*
X233301D01*
X228803Y294700D02*
X226554D01*
X225804Y295450D01*
X226554Y296199D01*
X228053D01*
X228803Y296949D01*
X228053Y297699D01*
X225804D01*
X223555Y298449D02*
Y297699D01*
X224304D01*
X222805D01*
X223555D01*
Y295450D01*
X222805Y294700D01*
X216057D02*
Y299199D01*
X213808D01*
X213058Y298449D01*
Y296949D01*
X213808Y296199D01*
X216057D01*
X210809Y294700D02*
X209309D01*
X208559Y295450D01*
Y296949D01*
X209309Y297699D01*
X210809D01*
X211559Y296949D01*
Y295450D01*
X210809Y294700D01*
X207060D02*
X205560D01*
X206310D01*
Y297699D01*
X207060D01*
X203311Y294700D02*
Y297699D01*
X201062D01*
X200312Y296949D01*
Y294700D01*
X198063Y298449D02*
Y297699D01*
X198813D01*
X197313D01*
X198063D01*
Y295450D01*
X197313Y294700D01*
X195064D02*
X192815D01*
X192065Y295450D01*
X192815Y296199D01*
X194314D01*
X195064Y296949D01*
X194314Y297699D01*
X192065D01*
X364300Y249199D02*
Y245450D01*
X363550Y244700D01*
X362051D01*
X361301Y245450D01*
Y249199D01*
X359802Y244700D02*
Y247699D01*
X358302Y249199D01*
X356802Y247699D01*
Y244700D01*
Y246949D01*
X359802D01*
X355303Y244700D02*
Y249199D01*
X353054D01*
X352304Y248449D01*
Y246949D01*
X353054Y246199D01*
X355303D01*
X353803D02*
X352304Y244700D01*
X350804Y249199D02*
X347805D01*
X349305D01*
Y244700D01*
D71*
X241567Y157630D02*
X312433D01*
Y182551D01*
X241567Y236370D02*
X312433D01*
X241567Y157630D02*
Y182551D01*
X312433Y235858D02*
Y236370D01*
X241567Y235858D02*
Y236370D01*
X172413Y280390D02*
X177295D01*
Y266610D02*
Y280390D01*
X151705D02*
X156587D01*
X151705Y266610D02*
Y280390D01*
D72*
X201500Y263657D02*
D03*
X211000D02*
D03*
D73*
X400343Y175000D02*
D03*
M02*
