G04*
G04 #@! TF.GenerationSoftware,Altium Limited,Altium Designer,25.6.2 (33)*
G04*
G04 Layer_Physical_Order=2*
G04 Layer_Color=16711680*
%FSLAX25Y25*%
%MOIN*%
G70*
G04*
G04 #@! TF.SameCoordinates,A6983FEA-D560-4925-98B3-38CB5C928B3C*
G04*
G04*
G04 #@! TF.FilePolarity,Positive*
G04*
G01*
G75*
%ADD10C,0.01000*%
%ADD26C,0.02000*%
%ADD27R,0.06000X0.06000*%
%ADD28C,0.06000*%
%ADD29C,0.06299*%
%ADD30O,0.08268X0.03937*%
%ADD31O,0.07087X0.03937*%
%ADD32C,0.01575*%
%ADD33C,0.02559*%
G04:AMPARAMS|DCode=34|XSize=62.99mil|YSize=62.99mil|CornerRadius=15.75mil|HoleSize=0mil|Usage=FLASHONLY|Rotation=0.000|XOffset=0mil|YOffset=0mil|HoleType=Round|Shape=RoundedRectangle|*
%AMROUNDEDRECTD34*
21,1,0.06299,0.03150,0,0,0.0*
21,1,0.03150,0.06299,0,0,0.0*
1,1,0.03150,0.01575,-0.01575*
1,1,0.03150,-0.01575,-0.01575*
1,1,0.03150,-0.01575,0.01575*
1,1,0.03150,0.01575,0.01575*
%
%ADD34ROUNDEDRECTD34*%
%ADD35C,0.13780*%
G04:AMPARAMS|DCode=36|XSize=62.99mil|YSize=62.99mil|CornerRadius=15.75mil|HoleSize=0mil|Usage=FLASHONLY|Rotation=90.000|XOffset=0mil|YOffset=0mil|HoleType=Round|Shape=RoundedRectangle|*
%AMROUNDEDRECTD36*
21,1,0.06299,0.03150,0,0,90.0*
21,1,0.03150,0.06299,0,0,90.0*
1,1,0.03150,0.01575,0.01575*
1,1,0.03150,0.01575,-0.01575*
1,1,0.03150,-0.01575,-0.01575*
1,1,0.03150,-0.01575,0.01575*
%
%ADD36ROUNDEDRECTD36*%
%ADD37C,0.02400*%
%ADD38R,0.06496X0.04331*%
%ADD39R,0.07480X0.05906*%
%ADD40R,0.04331X0.06693*%
%ADD41R,0.06693X0.03740*%
%ADD42R,0.06299X0.04134*%
%ADD43R,0.06693X0.04331*%
%ADD44R,0.04331X0.06496*%
%ADD45R,0.03740X0.06693*%
%ADD46R,0.03543X0.06102*%
%ADD47R,0.06299X0.05512*%
%ADD48R,0.05512X0.06299*%
%ADD49R,0.05906X0.07480*%
%ADD50R,0.05906X0.03543*%
%ADD51R,0.04528X0.02362*%
%ADD52R,0.03740X0.08465*%
%ADD53R,0.04528X0.01181*%
%ADD54R,0.02756X0.02756*%
%ADD55R,0.12795X0.08465*%
G36*
X425683Y321844D02*
X427356Y321150D01*
X428863Y320144D01*
X430144Y318863D01*
X431150Y317356D01*
X431844Y315683D01*
X432197Y313906D01*
Y313000D01*
Y163000D01*
Y162094D01*
X431844Y160317D01*
X431150Y158643D01*
X430144Y157137D01*
X428863Y155856D01*
X427356Y154850D01*
X425683Y154156D01*
X423906Y153803D01*
X128594D01*
X126817Y154156D01*
X125144Y154850D01*
X123637Y155856D01*
X122356Y157137D01*
X121350Y158643D01*
X120656Y160317D01*
X120303Y162094D01*
Y163000D01*
Y313000D01*
Y313906D01*
X120656Y315683D01*
X121350Y317356D01*
X122356Y318863D01*
X123637Y320144D01*
X125144Y321150D01*
X126817Y321844D01*
X128594Y322197D01*
X423906D01*
X425683Y321844D01*
D02*
G37*
%LPC*%
G36*
X423728Y320390D02*
X423250D01*
Y313250D01*
X430390D01*
Y313728D01*
X430106Y315156D01*
X429549Y316500D01*
X428740Y317711D01*
X427711Y318740D01*
X426500Y319549D01*
X425155Y320106D01*
X423728Y320390D01*
D02*
G37*
G36*
X422750D02*
X422272D01*
X420845Y320106D01*
X419500Y319549D01*
X418289Y318740D01*
X417260Y317711D01*
X416451Y316500D01*
X415894Y315156D01*
X415610Y313728D01*
Y313250D01*
X422750D01*
Y320390D01*
D02*
G37*
G36*
X130228D02*
X129750D01*
Y313250D01*
X136890D01*
Y313728D01*
X136606Y315156D01*
X136049Y316500D01*
X135240Y317711D01*
X134211Y318740D01*
X133000Y319549D01*
X131656Y320106D01*
X130228Y320390D01*
D02*
G37*
G36*
X129250D02*
X128772D01*
X127345Y320106D01*
X126000Y319549D01*
X124789Y318740D01*
X123760Y317711D01*
X122951Y316500D01*
X122394Y315156D01*
X122110Y313728D01*
Y313250D01*
X129250D01*
Y320390D01*
D02*
G37*
G36*
X430390Y312750D02*
X423250D01*
Y305610D01*
X423728D01*
X425155Y305894D01*
X426500Y306451D01*
X427711Y307260D01*
X428740Y308289D01*
X429549Y309500D01*
X430106Y310844D01*
X430390Y312272D01*
Y312750D01*
D02*
G37*
G36*
X422750D02*
X415610D01*
Y312272D01*
X415894Y310844D01*
X416451Y309500D01*
X417260Y308289D01*
X418289Y307260D01*
X419500Y306451D01*
X420845Y305894D01*
X422272Y305610D01*
X422750D01*
Y312750D01*
D02*
G37*
G36*
X136890D02*
X129750D01*
Y305610D01*
X130228D01*
X131656Y305894D01*
X133000Y306451D01*
X134211Y307260D01*
X135240Y308289D01*
X136049Y309500D01*
X136606Y310844D01*
X136890Y312272D01*
Y312750D01*
D02*
G37*
G36*
X129250D02*
X122110D01*
Y312272D01*
X122394Y310844D01*
X122951Y309500D01*
X123760Y308289D01*
X124789Y307260D01*
X126000Y306451D01*
X127345Y305894D01*
X128772Y305610D01*
X129250D01*
Y312750D01*
D02*
G37*
G36*
X184980Y300650D02*
X184750D01*
Y297250D01*
X188150D01*
Y297481D01*
X187901Y298409D01*
X187420Y299241D01*
X186741Y299920D01*
X185909Y300401D01*
X184980Y300650D01*
D02*
G37*
G36*
X184250D02*
X184019D01*
X183091Y300401D01*
X182259Y299920D01*
X181580Y299241D01*
X181099Y298409D01*
X180850Y297481D01*
Y297250D01*
X184250D01*
Y300650D01*
D02*
G37*
G36*
X174980D02*
X174750D01*
Y297250D01*
X178150D01*
Y297481D01*
X177901Y298409D01*
X177420Y299241D01*
X176741Y299920D01*
X175909Y300401D01*
X174980Y300650D01*
D02*
G37*
G36*
X174250D02*
X174020D01*
X173091Y300401D01*
X172259Y299920D01*
X171580Y299241D01*
X171099Y298409D01*
X170850Y297481D01*
Y297250D01*
X174250D01*
Y300650D01*
D02*
G37*
G36*
X188150Y296750D02*
X184750D01*
Y293350D01*
X184980D01*
X185909Y293599D01*
X186741Y294080D01*
X187420Y294759D01*
X187901Y295591D01*
X188150Y296519D01*
Y296750D01*
D02*
G37*
G36*
X184250D02*
X180850D01*
Y296519D01*
X181099Y295591D01*
X181580Y294759D01*
X182259Y294080D01*
X183091Y293599D01*
X184019Y293350D01*
X184250D01*
Y296750D01*
D02*
G37*
G36*
X178150D02*
X174750D01*
Y293350D01*
X174980D01*
X175909Y293599D01*
X176741Y294080D01*
X177420Y294759D01*
X177901Y295591D01*
X178150Y296519D01*
Y296750D01*
D02*
G37*
G36*
X174250D02*
X170850D01*
Y296519D01*
X171099Y295591D01*
X171580Y294759D01*
X172259Y294080D01*
X173091Y293599D01*
X174020Y293350D01*
X174250D01*
Y296750D01*
D02*
G37*
G36*
X263547Y289347D02*
X261132D01*
Y285750D01*
X263547D01*
Y289347D01*
D02*
G37*
G36*
X260632D02*
X258217D01*
Y285750D01*
X260632D01*
Y289347D01*
D02*
G37*
G36*
X263547Y285250D02*
X261132D01*
Y281653D01*
X263547D01*
Y285250D01*
D02*
G37*
G36*
X260632D02*
X258217D01*
Y281653D01*
X260632D01*
Y285250D01*
D02*
G37*
G36*
X264500Y280500D02*
X261250D01*
Y277250D01*
X264500D01*
Y280500D01*
D02*
G37*
G36*
X260750D02*
X257500D01*
Y277250D01*
X260750D01*
Y280500D01*
D02*
G37*
G36*
X202000Y313029D02*
X165000D01*
X164415Y312913D01*
X163919Y312581D01*
X154493Y303156D01*
X154162Y302660D01*
X154045Y302075D01*
Y300690D01*
X152925D01*
X152116Y300529D01*
X151429Y300071D01*
X150971Y299384D01*
X150810Y298575D01*
Y295425D01*
X150971Y294616D01*
X151429Y293929D01*
X152116Y293471D01*
X152925Y293310D01*
X152971D01*
Y263147D01*
X149846D01*
Y264283D01*
X142154D01*
Y258953D01*
X149846D01*
Y260089D01*
X153075D01*
Y257350D01*
X157815D01*
Y266815D01*
X156029D01*
Y293310D01*
X156075D01*
X156884Y293471D01*
X157571Y293929D01*
X158029Y294616D01*
X158190Y295425D01*
Y298575D01*
X158029Y299384D01*
X157571Y300071D01*
X157104Y300382D01*
Y301441D01*
X165633Y309971D01*
X201366D01*
X209471Y301867D01*
Y282661D01*
X207350D01*
Y276150D01*
X214650D01*
Y282661D01*
X212529D01*
Y302500D01*
X212413Y303085D01*
X212081Y303581D01*
X203081Y312581D01*
X202585Y312913D01*
X202000Y313029D01*
D02*
G37*
G36*
X164980Y300650D02*
X164020D01*
X163091Y300401D01*
X162259Y299920D01*
X161580Y299241D01*
X161099Y298409D01*
X160850Y297481D01*
Y296519D01*
X161099Y295591D01*
X161580Y294759D01*
X162259Y294080D01*
X162971Y293669D01*
Y289650D01*
X157602D01*
Y280185D01*
X162971D01*
Y266815D01*
X162130D01*
Y257350D01*
X166870D01*
Y266815D01*
X166029D01*
Y280185D01*
X171398D01*
Y283388D01*
X174886D01*
X179154Y279121D01*
Y275953D01*
X186846D01*
Y277089D01*
X197850D01*
Y276150D01*
X205150D01*
Y282661D01*
X197850D01*
Y280148D01*
X186846D01*
Y281283D01*
X181316D01*
X176601Y285999D01*
X176105Y286330D01*
X175520Y286447D01*
X171398D01*
Y289650D01*
X166029D01*
Y293669D01*
X166741Y294080D01*
X167420Y294759D01*
X167901Y295591D01*
X168150Y296519D01*
Y297481D01*
X167901Y298409D01*
X167420Y299241D01*
X166741Y299920D01*
X165909Y300401D01*
X164980Y300650D01*
D02*
G37*
G36*
X264500Y276750D02*
X261250D01*
Y273500D01*
X264500D01*
Y276750D01*
D02*
G37*
G36*
X260750D02*
X257500D01*
Y273500D01*
X260750D01*
Y276750D01*
D02*
G37*
G36*
X262358Y272346D02*
X260238D01*
Y268750D01*
X262358D01*
Y272346D01*
D02*
G37*
G36*
X259738D02*
X257618D01*
Y268750D01*
X259738D01*
Y272346D01*
D02*
G37*
G36*
X186846Y271047D02*
X183250D01*
Y268632D01*
X186846D01*
Y271047D01*
D02*
G37*
G36*
X182750D02*
X179154D01*
Y268632D01*
X182750D01*
Y271047D01*
D02*
G37*
G36*
X186846Y268132D02*
X183250D01*
Y265717D01*
X186846D01*
Y268132D01*
D02*
G37*
G36*
X182750D02*
X179154D01*
Y265717D01*
X182750D01*
Y268132D01*
D02*
G37*
G36*
X262358Y268250D02*
X260238D01*
Y264653D01*
X262358D01*
Y268250D01*
D02*
G37*
G36*
X259738D02*
X257618D01*
Y264653D01*
X259738D01*
Y268250D01*
D02*
G37*
G36*
X175925Y266815D02*
X173805D01*
Y262333D01*
X175925D01*
Y266815D01*
D02*
G37*
G36*
X173305D02*
X171185D01*
Y262333D01*
X173305D01*
Y266815D01*
D02*
G37*
G36*
X175925Y261833D02*
X173805D01*
Y257350D01*
X175925D01*
Y261833D01*
D02*
G37*
G36*
X173305D02*
X171185D01*
Y257350D01*
X173305D01*
Y261833D01*
D02*
G37*
G36*
X214650Y270850D02*
X207350D01*
Y264339D01*
X209895D01*
X209898Y264337D01*
X209906Y264317D01*
X209926Y264246D01*
X209943Y264142D01*
X209954Y264009D01*
X209959Y263836D01*
X209980Y263788D01*
Y262326D01*
X209959Y262278D01*
X209954Y262105D01*
X209943Y261972D01*
X209926Y261869D01*
X209906Y261797D01*
X209898Y261777D01*
X209895Y261776D01*
X207252D01*
Y256445D01*
X214748D01*
Y261776D01*
X212105D01*
X212102Y261777D01*
X212094Y261797D01*
X212074Y261869D01*
X212057Y261972D01*
X212046Y262105D01*
X212041Y262278D01*
X212020Y262326D01*
Y263788D01*
X212041Y263836D01*
X212046Y264009D01*
X212057Y264142D01*
X212074Y264246D01*
X212094Y264317D01*
X212102Y264337D01*
X212105Y264339D01*
X214650D01*
Y270850D01*
D02*
G37*
G36*
X205150D02*
X197850D01*
Y264339D01*
X200395D01*
X200398Y264337D01*
X200406Y264317D01*
X200426Y264246D01*
X200443Y264142D01*
X200454Y264009D01*
X200459Y263836D01*
X200480Y263788D01*
Y263314D01*
X200459Y263266D01*
X200454Y263093D01*
X200443Y262960D01*
X200426Y262857D01*
X200406Y262785D01*
X200398Y262765D01*
X200395Y262764D01*
X197260D01*
Y255858D01*
X205740D01*
Y262764D01*
X202605D01*
X202602Y262765D01*
X202594Y262785D01*
X202574Y262857D01*
X202557Y262960D01*
X202546Y263093D01*
X202541Y263266D01*
X202520Y263314D01*
Y263788D01*
X202541Y263836D01*
X202546Y264009D01*
X202557Y264142D01*
X202574Y264246D01*
X202594Y264317D01*
X202602Y264337D01*
X202605Y264339D01*
X205150D01*
Y270850D01*
D02*
G37*
G36*
X149846Y254047D02*
X146250D01*
Y251632D01*
X149846D01*
Y254047D01*
D02*
G37*
G36*
X145750D02*
X142154D01*
Y251632D01*
X145750D01*
Y254047D01*
D02*
G37*
G36*
X149846Y251132D02*
X146250D01*
Y248716D01*
X149846D01*
Y251132D01*
D02*
G37*
G36*
X145750D02*
X142154D01*
Y248716D01*
X145750D01*
Y251132D01*
D02*
G37*
G36*
X214748Y250555D02*
X211250D01*
Y248140D01*
X214748D01*
Y250555D01*
D02*
G37*
G36*
X210750D02*
X207252D01*
Y248140D01*
X210750D01*
Y250555D01*
D02*
G37*
G36*
X205740Y250953D02*
X201750D01*
Y247750D01*
X205740D01*
Y250953D01*
D02*
G37*
G36*
X201250D02*
X197260D01*
Y247750D01*
X201250D01*
Y250953D01*
D02*
G37*
G36*
X214748Y247640D02*
X211250D01*
Y245224D01*
X214748D01*
Y247640D01*
D02*
G37*
G36*
X210750D02*
X207252D01*
Y245224D01*
X210750D01*
Y247640D01*
D02*
G37*
G36*
X205740Y247250D02*
X201750D01*
Y244047D01*
X205740D01*
Y247250D01*
D02*
G37*
G36*
X201250D02*
X197260D01*
Y244047D01*
X201250D01*
Y247250D01*
D02*
G37*
G36*
X340480Y241150D02*
X340250D01*
Y237750D01*
X343650D01*
Y237981D01*
X343401Y238909D01*
X342920Y239741D01*
X342241Y240420D01*
X341409Y240901D01*
X340480Y241150D01*
D02*
G37*
G36*
X339750D02*
X339520D01*
X338591Y240901D01*
X337759Y240420D01*
X337080Y239741D01*
X336599Y238909D01*
X336350Y237981D01*
Y237750D01*
X339750D01*
Y241150D01*
D02*
G37*
G36*
X343650Y237250D02*
X340250D01*
Y233850D01*
X340480D01*
X341409Y234099D01*
X342241Y234580D01*
X342920Y235259D01*
X343401Y236091D01*
X343650Y237019D01*
Y237250D01*
D02*
G37*
G36*
X339750D02*
X336350D01*
Y237019D01*
X336599Y236091D01*
X337080Y235259D01*
X337759Y234580D01*
X338591Y234099D01*
X339520Y233850D01*
X339750D01*
Y237250D01*
D02*
G37*
G36*
X246004Y235098D02*
X242801D01*
Y233077D01*
X246004D01*
Y235098D01*
D02*
G37*
G36*
X242301D02*
X239098D01*
Y233077D01*
X242301D01*
Y235098D01*
D02*
G37*
G36*
X314902D02*
X307996D01*
Y230555D01*
X314902D01*
Y235098D01*
D02*
G37*
G36*
X246004Y232577D02*
X242801D01*
Y230555D01*
X246004D01*
Y232577D01*
D02*
G37*
G36*
X242301D02*
X239098D01*
Y230555D01*
X242301D01*
Y232577D01*
D02*
G37*
G36*
X186988Y230342D02*
X186311D01*
X185687Y230083D01*
X185516Y229912D01*
X185424Y229878D01*
X185373Y229831D01*
X185338Y229804D01*
X185299Y229779D01*
X185255Y229757D01*
X185205Y229737D01*
X185148Y229719D01*
X185083Y229704D01*
X185010Y229693D01*
X184929Y229686D01*
X184824Y229683D01*
X184776Y229661D01*
X157224D01*
X157176Y229683D01*
X157071Y229686D01*
X156990Y229693D01*
X156917Y229704D01*
X156852Y229719D01*
X156795Y229737D01*
X156745Y229757D01*
X156701Y229779D01*
X156662Y229804D01*
X156627Y229831D01*
X156576Y229878D01*
X156484Y229912D01*
X156313Y230083D01*
X155689Y230342D01*
X155012D01*
X154387Y230083D01*
X153909Y229605D01*
X153650Y228980D01*
Y228304D01*
X153909Y227679D01*
X154387Y227201D01*
X155012Y226942D01*
X155689D01*
X156313Y227201D01*
X156484Y227371D01*
X156576Y227405D01*
X156627Y227453D01*
X156662Y227480D01*
X156701Y227504D01*
X156745Y227526D01*
X156795Y227547D01*
X156852Y227564D01*
X156917Y227579D01*
X156990Y227591D01*
X157071Y227598D01*
X157176Y227601D01*
X157224Y227622D01*
X184776D01*
X184824Y227601D01*
X184929Y227598D01*
X185010Y227591D01*
X185083Y227579D01*
X185148Y227564D01*
X185205Y227547D01*
X185255Y227526D01*
X185299Y227504D01*
X185338Y227480D01*
X185373Y227452D01*
X185424Y227405D01*
X185516Y227371D01*
X185687Y227201D01*
X186311Y226942D01*
X186988D01*
X187613Y227201D01*
X188091Y227679D01*
X188350Y228304D01*
Y228980D01*
X188091Y229605D01*
X187613Y230083D01*
X186988Y230342D01*
D02*
G37*
G36*
X314902Y229193D02*
X307996D01*
Y224650D01*
X314902D01*
Y229193D01*
D02*
G37*
G36*
X246004D02*
X239098D01*
Y224650D01*
X246004D01*
Y229193D01*
D02*
G37*
G36*
X314902Y223287D02*
X307996D01*
Y218744D01*
X314902D01*
Y223287D01*
D02*
G37*
G36*
X237902Y224847D02*
X232571D01*
Y217154D01*
X237902D01*
Y218556D01*
X238570Y218946D01*
X239098Y218744D01*
Y218744D01*
X246004D01*
Y223287D01*
X239098D01*
Y223287D01*
X238556Y223062D01*
X237902Y223444D01*
Y224847D01*
D02*
G37*
G36*
X227665D02*
X222335D01*
Y217154D01*
X227665D01*
Y224847D01*
D02*
G37*
G36*
X314902Y217382D02*
X307996D01*
Y212839D01*
X314902D01*
Y217382D01*
D02*
G37*
G36*
X246004D02*
X239098D01*
Y212839D01*
X246004D01*
Y217382D01*
D02*
G37*
G36*
X149622Y214033D02*
X147707D01*
Y211766D01*
X152089D01*
X151947Y212479D01*
X151402Y213295D01*
X150585Y213841D01*
X149622Y214033D01*
D02*
G37*
G36*
X147207D02*
X145291D01*
X144328Y213841D01*
X143512Y213295D01*
X142966Y212479D01*
X142824Y211766D01*
X147207D01*
Y214033D01*
D02*
G37*
G36*
X132575D02*
X131250D01*
Y211766D01*
X135042D01*
X134900Y212479D01*
X134354Y213295D01*
X133538Y213841D01*
X132575Y214033D01*
D02*
G37*
G36*
X130750D02*
X129425D01*
X128462Y213841D01*
X127646Y213295D01*
X127100Y212479D01*
X126958Y211766D01*
X130750D01*
Y214033D01*
D02*
G37*
G36*
X135042Y211266D02*
X131250D01*
Y208999D01*
X132575D01*
X133538Y209191D01*
X134354Y209736D01*
X134900Y210553D01*
X135042Y211266D01*
D02*
G37*
G36*
X130750D02*
X126958D01*
X127100Y210553D01*
X127646Y209736D01*
X128462Y209191D01*
X129425Y208999D01*
X130750D01*
Y211266D01*
D02*
G37*
G36*
X314902Y211476D02*
X307996D01*
Y206933D01*
X314902D01*
Y211476D01*
D02*
G37*
G36*
X246004D02*
X239098D01*
Y206933D01*
X246004D01*
Y211476D01*
D02*
G37*
G36*
X378382Y208846D02*
X376262D01*
Y205250D01*
X378382D01*
Y208846D01*
D02*
G37*
G36*
X375762D02*
X373642D01*
Y205250D01*
X375762D01*
Y208846D01*
D02*
G37*
G36*
X284846Y287047D02*
X277153D01*
Y281716D01*
X278944D01*
X278993Y281693D01*
X279195Y281532D01*
X279391Y281236D01*
X279541Y280716D01*
X279481Y280626D01*
X279295Y280378D01*
X278807Y279819D01*
X278515Y279522D01*
X278475Y279425D01*
X278199Y279149D01*
X277738Y278351D01*
X277500Y277461D01*
Y276539D01*
X277738Y275649D01*
X278199Y274851D01*
X278851Y274199D01*
X279649Y273739D01*
X280077Y273624D01*
Y273086D01*
X280154Y272696D01*
X280375Y272365D01*
X282461Y270279D01*
X282792Y270058D01*
X283182Y269980D01*
X290578D01*
X319980Y240578D01*
Y208192D01*
X316107Y204319D01*
X314902D01*
Y205571D01*
X307996D01*
Y201028D01*
X314902D01*
Y202280D01*
X316529D01*
X316919Y202357D01*
X317250Y202578D01*
X321721Y207049D01*
X321942Y207380D01*
X322020Y207770D01*
Y241000D01*
X321942Y241390D01*
X321721Y241721D01*
X291721Y271721D01*
X291390Y271942D01*
X291000Y272020D01*
X283604D01*
X282763Y272861D01*
X282952Y274086D01*
X283149Y274199D01*
X283801Y274851D01*
X284261Y275649D01*
X284500Y276539D01*
Y277461D01*
X284261Y278351D01*
X283801Y279149D01*
X283525Y279425D01*
X283486Y279522D01*
X283193Y279819D01*
X282705Y280378D01*
X282519Y280625D01*
X282459Y280716D01*
X282609Y281236D01*
X282805Y281532D01*
X283007Y281693D01*
X283056Y281716D01*
X284846D01*
Y287047D01*
D02*
G37*
G36*
X278327Y216201D02*
Y216201D01*
X274571D01*
Y212445D01*
X274571D01*
Y211870D01*
X274571D01*
Y208114D01*
X274571D01*
Y207539D01*
X274571D01*
Y203783D01*
X278327D01*
Y203783D01*
X278902D01*
Y203783D01*
X282658D01*
Y203783D01*
X283232D01*
Y203783D01*
X286988D01*
Y207539D01*
X286988D01*
Y208114D01*
X286988D01*
Y211870D01*
X286988D01*
Y212445D01*
X286988D01*
Y216201D01*
X283629D01*
X283232Y216201D01*
Y216201D01*
X282658D01*
X282658Y216201D01*
X282261Y216201D01*
X278902D01*
Y216201D01*
X278327D01*
D02*
G37*
G36*
X173776Y205248D02*
X171360D01*
Y201750D01*
X173776D01*
Y205248D01*
D02*
G37*
G36*
X170860D02*
X168445D01*
Y201750D01*
X170860D01*
Y205248D01*
D02*
G37*
G36*
X229346Y203783D02*
X225750D01*
Y201368D01*
X229346D01*
Y203783D01*
D02*
G37*
G36*
X225250D02*
X221654D01*
Y201368D01*
X225250D01*
Y203783D01*
D02*
G37*
G36*
X378382Y204750D02*
X376262D01*
Y201153D01*
X378382D01*
Y204750D01*
D02*
G37*
G36*
X375762D02*
X373642D01*
Y201153D01*
X375762D01*
Y204750D01*
D02*
G37*
G36*
X246004Y205571D02*
X239098D01*
Y201028D01*
X246004D01*
Y205571D01*
D02*
G37*
G36*
X294847Y287047D02*
X287154D01*
Y281716D01*
X288944D01*
X288993Y281693D01*
X289195Y281532D01*
X289391Y281236D01*
X289541Y280716D01*
X289481Y280626D01*
X289295Y280378D01*
X288807Y279819D01*
X288514Y279522D01*
X288475Y279425D01*
X288199Y279149D01*
X287738Y278351D01*
X287500Y277461D01*
Y276539D01*
X287738Y275649D01*
X288199Y274851D01*
X288851Y274199D01*
X289649Y273739D01*
X290539Y273500D01*
X291461D01*
X292351Y273739D01*
X292648Y273910D01*
X323480Y243078D01*
Y206422D01*
X315902Y198844D01*
X314902Y199258D01*
Y199665D01*
X307996D01*
Y195122D01*
X314902D01*
Y196374D01*
X315894D01*
X316284Y196452D01*
X316615Y196673D01*
X325221Y205279D01*
X325442Y205610D01*
X325520Y206000D01*
Y243500D01*
X325442Y243890D01*
X325221Y244221D01*
X294090Y275352D01*
X294262Y275649D01*
X294500Y276539D01*
Y277461D01*
X294262Y278351D01*
X293801Y279149D01*
X293525Y279425D01*
X293485Y279522D01*
X293193Y279819D01*
X292705Y280378D01*
X292519Y280625D01*
X292459Y280716D01*
X292609Y281236D01*
X292805Y281532D01*
X293007Y281693D01*
X293056Y281716D01*
X294847D01*
Y287047D01*
D02*
G37*
G36*
X229346Y200868D02*
X225750D01*
Y198453D01*
X229346D01*
Y200868D01*
D02*
G37*
G36*
X225250D02*
X221654D01*
Y198453D01*
X225250D01*
Y200868D01*
D02*
G37*
G36*
X173776Y201250D02*
X171360D01*
Y197752D01*
X173776D01*
Y201250D01*
D02*
G37*
G36*
X170860D02*
X168445D01*
Y197752D01*
X170860D01*
Y201250D01*
D02*
G37*
G36*
X152089Y211266D02*
X142824D01*
X142966Y210553D01*
X143512Y209736D01*
X144328Y209191D01*
X144837Y209089D01*
X144815Y208074D01*
X144197Y207818D01*
X143556Y207177D01*
X143209Y206339D01*
Y205432D01*
X143556Y204595D01*
X144197Y203953D01*
X145035Y203606D01*
X145942D01*
X145957Y203612D01*
X146957Y202944D01*
Y198412D01*
X146927Y198411D01*
X146830Y198366D01*
X146558Y198312D01*
X146227Y198091D01*
X145666Y197530D01*
X145620Y197513D01*
X145617Y197508D01*
X145611Y197505D01*
X145536Y197434D01*
X145474Y197382D01*
X145416Y197341D01*
X145361Y197307D01*
X145311Y197282D01*
X145264Y197263D01*
X145221Y197251D01*
X145180Y197243D01*
X145139Y197239D01*
X145071Y197239D01*
X144974Y197200D01*
X144662D01*
X144037Y196941D01*
X143559Y196463D01*
X143300Y195838D01*
Y195162D01*
X143559Y194537D01*
X144037Y194059D01*
X144662Y193800D01*
X144945D01*
X145039Y193760D01*
X145108Y193759D01*
X145150Y193754D01*
X145193Y193746D01*
X145238Y193732D01*
X145285Y193712D01*
X145337Y193686D01*
X145392Y193652D01*
X145451Y193609D01*
X145513Y193557D01*
X145589Y193485D01*
X145589Y193485D01*
X145590Y193485D01*
X145638Y193466D01*
X146212Y192893D01*
X146542Y192672D01*
X146824Y192616D01*
X146923Y192573D01*
X146957Y192572D01*
Y190465D01*
Y186071D01*
X145957Y185403D01*
X145942Y185409D01*
X145035D01*
X144197Y185062D01*
X143556Y184421D01*
X143209Y183583D01*
Y182676D01*
X143556Y181839D01*
X144197Y181197D01*
X144815Y180942D01*
X144837Y179927D01*
X144328Y179825D01*
X143512Y179280D01*
X142966Y178463D01*
X142824Y177750D01*
X152089D01*
X151947Y178463D01*
X151436Y179228D01*
X151496Y179514D01*
X151782Y180228D01*
X152484D01*
Y181659D01*
X149721D01*
Y182159D01*
X152484D01*
Y184141D01*
X152700Y184662D01*
Y185338D01*
X152484Y185859D01*
Y188519D01*
X152799Y188537D01*
X152974Y188538D01*
X153026Y188559D01*
X156674D01*
X156722Y188538D01*
X156895Y188533D01*
X157028Y188522D01*
X157131Y188504D01*
X157203Y188485D01*
X157223Y188477D01*
X157224Y188474D01*
Y184252D01*
X162555D01*
Y191748D01*
X157224D01*
Y190684D01*
X157223Y190681D01*
X157203Y190673D01*
X157131Y190653D01*
X157028Y190636D01*
X156895Y190624D01*
X156722Y190620D01*
X156674Y190598D01*
X155161D01*
X154928Y190729D01*
X154837Y190818D01*
X154537Y191457D01*
X154550Y191598D01*
X154828Y191800D01*
X154838D01*
X155463Y192059D01*
X155941Y192537D01*
X156200Y193162D01*
Y193838D01*
X155941Y194463D01*
X155463Y194941D01*
X154838Y195200D01*
X154584D01*
X154492Y195241D01*
X154423Y195243D01*
X154380Y195248D01*
X154336Y195258D01*
X154290Y195273D01*
X154240Y195293D01*
X154188Y195320D01*
X154132Y195355D01*
X154073Y195399D01*
X154010Y195451D01*
X153934Y195523D01*
X153885Y195542D01*
X153304Y196123D01*
X152973Y196344D01*
X152693Y196399D01*
X152594Y196443D01*
X152484Y196445D01*
Y200330D01*
X152799Y200348D01*
X152974Y200349D01*
X153026Y200370D01*
X156674D01*
X156722Y200349D01*
X156895Y200344D01*
X157028Y200332D01*
X157131Y200315D01*
X157203Y200296D01*
X157223Y200288D01*
X157224Y200285D01*
Y197752D01*
X162555D01*
Y205248D01*
X157224D01*
Y202495D01*
X157223Y202492D01*
X157203Y202484D01*
X157131Y202464D01*
X157028Y202447D01*
X156895Y202435D01*
X156722Y202431D01*
X156674Y202409D01*
X153028D01*
X152977Y202431D01*
X152627Y202434D01*
X152484Y202441D01*
Y205425D01*
Y206856D01*
X149721D01*
Y207356D01*
X152484D01*
Y208787D01*
X151782D01*
X151496Y209501D01*
X151436Y209787D01*
X151947Y210553D01*
X152089Y211266D01*
D02*
G37*
G36*
X217838Y220700D02*
X217162D01*
X216537Y220441D01*
X216059Y219963D01*
X215800Y219338D01*
Y218662D01*
X216059Y218037D01*
X216537Y217559D01*
X217162Y217300D01*
X217758D01*
X237963Y197095D01*
X238294Y196874D01*
X238684Y196796D01*
X239098D01*
Y195122D01*
X246004D01*
Y199665D01*
X239098D01*
Y199665D01*
X238517Y199425D01*
X219200Y218742D01*
Y219338D01*
X218941Y219963D01*
X218463Y220441D01*
X217838Y220700D01*
D02*
G37*
G36*
X306000Y307020D02*
X255500D01*
X255110Y306942D01*
X254779Y306721D01*
X245779Y297721D01*
X245558Y297390D01*
X245480Y297000D01*
Y292885D01*
X245059Y292463D01*
X244800Y291838D01*
Y291162D01*
X245059Y290537D01*
X245537Y290059D01*
X246162Y289800D01*
X246838D01*
X247463Y290059D01*
X248000Y290490D01*
X248537Y290059D01*
X249162Y289800D01*
X249838D01*
X250463Y290059D01*
X251091Y290413D01*
X251628Y289968D01*
X252253Y289709D01*
X252929D01*
X253554Y289968D01*
X254032Y290446D01*
X254291Y291071D01*
Y291312D01*
X254332Y291401D01*
X254334Y291471D01*
X254340Y291514D01*
X254350Y291559D01*
X254365Y291606D01*
X254387Y291656D01*
X254414Y291709D01*
X254450Y291765D01*
X254493Y291825D01*
X254546Y291888D01*
X254618Y291964D01*
X254637Y292013D01*
X259888Y297264D01*
X277153D01*
Y296029D01*
X274500D01*
X273915Y295913D01*
X273419Y295581D01*
X270155Y292318D01*
X269823Y291822D01*
X269707Y291236D01*
Y289347D01*
X268453D01*
Y281653D01*
X269471D01*
Y280158D01*
X268851Y279801D01*
X268199Y279149D01*
X267739Y278351D01*
X267500Y277461D01*
Y276539D01*
X267739Y275649D01*
X268199Y274851D01*
X268851Y274199D01*
X269471Y273842D01*
Y272346D01*
X268642D01*
Y264653D01*
X273382D01*
Y272346D01*
X272529D01*
Y273842D01*
X273149Y274199D01*
X273801Y274851D01*
X274261Y275649D01*
X274500Y276539D01*
Y277461D01*
X274261Y278351D01*
X273801Y279149D01*
X273149Y279801D01*
X272529Y280158D01*
Y281653D01*
X273783D01*
Y289347D01*
X272766D01*
Y290603D01*
X275133Y292971D01*
X277153D01*
Y291953D01*
X284846D01*
Y292971D01*
X287154D01*
Y291953D01*
X294847D01*
Y297264D01*
X299794D01*
X331480Y265578D01*
Y229000D01*
X331558Y228610D01*
X331779Y228279D01*
X333279Y226779D01*
X333610Y226558D01*
X334000Y226480D01*
X334920D01*
X334959Y226460D01*
X335143Y226446D01*
X335309Y226410D01*
X335498Y226344D01*
X335710Y226246D01*
X335943Y226113D01*
X336195Y225945D01*
X336459Y225745D01*
X337053Y225223D01*
X337371Y224910D01*
X337468Y224870D01*
X337759Y224580D01*
X338591Y224099D01*
X339520Y223850D01*
X340480D01*
X341409Y224099D01*
X342241Y224580D01*
X342920Y225259D01*
X343401Y226091D01*
X343650Y227020D01*
Y227980D01*
X343401Y228909D01*
X342920Y229741D01*
X342241Y230420D01*
X341409Y230901D01*
X340480Y231150D01*
X339520D01*
X338591Y230901D01*
X337759Y230420D01*
X337468Y230130D01*
X337371Y230090D01*
X337053Y229777D01*
X336459Y229255D01*
X336195Y229055D01*
X335943Y228887D01*
X335710Y228754D01*
X335498Y228656D01*
X335309Y228590D01*
X335143Y228554D01*
X334959Y228540D01*
X334920Y228520D01*
X334422D01*
X333520Y229422D01*
Y266000D01*
X333442Y266390D01*
X333221Y266721D01*
X300938Y299004D01*
X300607Y299225D01*
X300217Y299303D01*
X259466D01*
X259075Y299225D01*
X258745Y299004D01*
X253195Y293455D01*
X253146Y293436D01*
X253070Y293364D01*
X253007Y293312D01*
X252947Y293268D01*
X252891Y293232D01*
X252838Y293205D01*
X252788Y293184D01*
X252741Y293168D01*
X252696Y293158D01*
X252653Y293152D01*
X252583Y293150D01*
X252494Y293109D01*
X252253D01*
X251768Y292908D01*
X251715Y292887D01*
X251661Y292880D01*
X251627Y292878D01*
X251604Y292878D01*
X251126Y293007D01*
X250848Y293156D01*
X250737Y293261D01*
X250727Y294285D01*
X257922Y301480D01*
X302578D01*
X345980Y258078D01*
Y219922D01*
X344652Y218594D01*
X344472Y218654D01*
X344261Y218749D01*
X344033Y218877D01*
X343790Y219038D01*
X343538Y219230D01*
X342976Y219735D01*
X342680Y220037D01*
X342677Y220038D01*
X342676Y220041D01*
X342580Y220081D01*
X342241Y220420D01*
X341409Y220901D01*
X340480Y221150D01*
X339520D01*
X338591Y220901D01*
X337759Y220420D01*
X337080Y219741D01*
X336599Y218909D01*
X336350Y217981D01*
Y217020D01*
X336599Y216091D01*
X337080Y215259D01*
X337759Y214580D01*
X338591Y214099D01*
X339520Y213850D01*
X340480D01*
X341409Y214099D01*
X342241Y214580D01*
X342578Y214917D01*
X342673Y214955D01*
X343267Y215539D01*
X343533Y215766D01*
X343790Y215962D01*
X344033Y216123D01*
X344261Y216251D01*
X344472Y216346D01*
X344665Y216410D01*
X344841Y216446D01*
X345038Y216460D01*
X345130Y216506D01*
X345390Y216558D01*
X345721Y216779D01*
X347721Y218779D01*
X347942Y219110D01*
X348020Y219500D01*
Y258500D01*
X347942Y258890D01*
X347721Y259221D01*
X303721Y303221D01*
X303390Y303442D01*
X303000Y303520D01*
X257500D01*
X257110Y303442D01*
X256779Y303221D01*
X248938Y295380D01*
X248717Y295049D01*
X248640Y294659D01*
Y293921D01*
X248457Y293792D01*
X247520Y294215D01*
Y296578D01*
X255922Y304980D01*
X305578D01*
X380480Y230078D01*
Y193422D01*
X377754Y190696D01*
X377649Y190801D01*
X376851Y191261D01*
X376520Y191350D01*
Y192949D01*
X377988D01*
Y200051D01*
X373445D01*
Y192949D01*
X374480D01*
Y191350D01*
X374149Y191261D01*
X373351Y190801D01*
X372699Y190149D01*
X372238Y189351D01*
X372000Y188461D01*
Y187539D01*
X372238Y186649D01*
X372699Y185851D01*
X373351Y185199D01*
X374149Y184739D01*
X375039Y184500D01*
X375961D01*
X376851Y184739D01*
X377649Y185199D01*
X378301Y185851D01*
X378762Y186649D01*
X379000Y187539D01*
Y188461D01*
X378874Y188932D01*
X382221Y192279D01*
X382442Y192610D01*
X382520Y193000D01*
Y230500D01*
X382442Y230890D01*
X382221Y231221D01*
X306721Y306721D01*
X306390Y306942D01*
X306000Y307020D01*
D02*
G37*
G36*
X314902Y193760D02*
X307996D01*
Y189216D01*
X314902D01*
Y193760D01*
D02*
G37*
G36*
X230154Y193783D02*
X229346Y193547D01*
X229346Y193547D01*
X221654D01*
Y188216D01*
X229251D01*
X229346Y188216D01*
Y188216D01*
X230154Y188453D01*
X230154Y188453D01*
X237846D01*
Y188910D01*
X238749Y189451D01*
X239098Y189216D01*
Y189216D01*
X246004D01*
Y193760D01*
X239098D01*
Y193186D01*
X238472Y192822D01*
X237846Y193186D01*
Y193783D01*
X230249D01*
X230154Y193783D01*
D02*
G37*
G36*
X165838Y197978D02*
X165162D01*
X164537Y197719D01*
X164059Y197240D01*
X163800Y196616D01*
Y195939D01*
X163971Y195528D01*
Y191250D01*
X163800Y190838D01*
Y190162D01*
X164059Y189537D01*
X164537Y189059D01*
X165162Y188800D01*
X165838D01*
X166463Y189059D01*
X166941Y189537D01*
X167200Y190162D01*
Y190838D01*
X167029Y191250D01*
Y195528D01*
X167200Y195939D01*
Y196616D01*
X166941Y197240D01*
X166463Y197719D01*
X165838Y197978D01*
D02*
G37*
G36*
X173776Y191748D02*
X171360D01*
Y188250D01*
X173776D01*
Y191748D01*
D02*
G37*
G36*
X395646Y191500D02*
X395435D01*
Y188250D01*
X398685D01*
Y188461D01*
X398446Y189351D01*
X397986Y190149D01*
X397334Y190801D01*
X396536Y191261D01*
X395646Y191500D01*
D02*
G37*
G36*
X394935D02*
X394724D01*
X393834Y191261D01*
X393036Y190801D01*
X392384Y190149D01*
X391924Y189351D01*
X391685Y188461D01*
Y188250D01*
X394935D01*
Y191500D01*
D02*
G37*
G36*
X170860Y191748D02*
X168445D01*
Y188250D01*
X170860D01*
Y191748D01*
D02*
G37*
G36*
X398685Y187750D02*
X395435D01*
Y184500D01*
X395646D01*
X396536Y184739D01*
X397334Y185199D01*
X397986Y185851D01*
X398446Y186649D01*
X398685Y187539D01*
Y187750D01*
D02*
G37*
G36*
X394935D02*
X391685D01*
Y187539D01*
X391924Y186649D01*
X392384Y185851D01*
X393036Y185199D01*
X393834Y184739D01*
X394724Y184500D01*
X394935D01*
Y187750D01*
D02*
G37*
G36*
X385803Y191500D02*
X384882D01*
X383992Y191261D01*
X383193Y190801D01*
X382542Y190149D01*
X382081Y189351D01*
X381842Y188461D01*
Y187539D01*
X382081Y186649D01*
X382542Y185851D01*
X383193Y185199D01*
X383992Y184739D01*
X384882Y184500D01*
X385803D01*
X386694Y184739D01*
X387492Y185199D01*
X388143Y185851D01*
X388604Y186649D01*
X388843Y187539D01*
Y188461D01*
X388604Y189351D01*
X388143Y190149D01*
X387492Y190801D01*
X386694Y191261D01*
X385803Y191500D01*
D02*
G37*
G36*
X341575Y211190D02*
X338425D01*
X337616Y211029D01*
X336929Y210571D01*
X336471Y209884D01*
X336310Y209075D01*
Y205925D01*
X336471Y205116D01*
X336929Y204429D01*
X337616Y203971D01*
X338425Y203810D01*
X341575D01*
X342384Y203971D01*
X343071Y204429D01*
X343529Y205116D01*
X343690Y205925D01*
Y205971D01*
X351867D01*
X353919Y203919D01*
X354415Y203587D01*
X355000Y203471D01*
X362618D01*
Y201153D01*
X363459D01*
Y200051D01*
X363012D01*
Y192949D01*
X364128D01*
Y191158D01*
X363508Y190801D01*
X362857Y190149D01*
X362396Y189351D01*
X362158Y188461D01*
Y187539D01*
X362396Y186649D01*
X362857Y185851D01*
X363508Y185199D01*
X364306Y184739D01*
X365197Y184500D01*
X366118D01*
X367008Y184739D01*
X367807Y185199D01*
X368458Y185851D01*
X368919Y186649D01*
X369158Y187539D01*
Y188461D01*
X368919Y189351D01*
X368458Y190149D01*
X367807Y190801D01*
X367187Y191158D01*
Y192949D01*
X367555D01*
Y200051D01*
X366518D01*
Y201153D01*
X367358D01*
Y208846D01*
X362618D01*
Y206529D01*
X355633D01*
X353581Y208581D01*
X353085Y208913D01*
X352500Y209029D01*
X343690D01*
Y209075D01*
X343529Y209884D01*
X343071Y210571D01*
X342384Y211029D01*
X341575Y211190D01*
D02*
G37*
G36*
X173776Y187750D02*
X171360D01*
Y184252D01*
X173776D01*
Y187750D01*
D02*
G37*
G36*
X170860D02*
X168445D01*
Y184252D01*
X170860D01*
Y187750D01*
D02*
G37*
G36*
X314902Y187854D02*
X307996D01*
Y183311D01*
X314902D01*
Y187854D01*
D02*
G37*
G36*
X216838Y192700D02*
X216162D01*
X215537Y192441D01*
X215059Y191963D01*
X214800Y191338D01*
Y190662D01*
X214971Y190250D01*
Y182882D01*
X212653D01*
Y178142D01*
X220346D01*
Y178982D01*
X221850D01*
Y178240D01*
X229150D01*
Y178982D01*
X230153D01*
Y178217D01*
X237846D01*
Y181384D01*
X239244Y182782D01*
X241280D01*
X241865Y182898D01*
X242361Y183230D01*
X242442Y183311D01*
X246004D01*
Y187854D01*
X239098D01*
Y185840D01*
X238610D01*
X238025Y185724D01*
X237529Y185392D01*
X235684Y183547D01*
X230153D01*
Y182041D01*
X229150D01*
Y183374D01*
X221850D01*
Y182041D01*
X220346D01*
Y182882D01*
X218029D01*
Y190250D01*
X218200Y190662D01*
Y191338D01*
X217941Y191963D01*
X217463Y192441D01*
X216838Y192700D01*
D02*
G37*
G36*
X132575Y180017D02*
X131250D01*
Y177750D01*
X135042D01*
X134900Y178463D01*
X134354Y179280D01*
X133538Y179825D01*
X132575Y180017D01*
D02*
G37*
G36*
X130750D02*
X129425D01*
X128462Y179825D01*
X127646Y179280D01*
X127100Y178463D01*
X126958Y177750D01*
X130750D01*
Y180017D01*
D02*
G37*
G36*
X399661Y178650D02*
X396656D01*
Y175250D01*
X399661D01*
Y178650D01*
D02*
G37*
G36*
X396156D02*
X393150D01*
Y175250D01*
X396156D01*
Y178650D01*
D02*
G37*
G36*
X152089Y177250D02*
X147707D01*
Y174983D01*
X149622D01*
X150585Y175175D01*
X151402Y175720D01*
X151947Y176537D01*
X152089Y177250D01*
D02*
G37*
G36*
X147207D02*
X142824D01*
X142966Y176537D01*
X143512Y175720D01*
X144328Y175175D01*
X145291Y174983D01*
X147207D01*
Y177250D01*
D02*
G37*
G36*
X135042D02*
X131250D01*
Y174983D01*
X132575D01*
X133538Y175175D01*
X134354Y175720D01*
X134900Y176537D01*
X135042Y177250D01*
D02*
G37*
G36*
X130750D02*
X126958D01*
X127100Y176537D01*
X127646Y175720D01*
X128462Y175175D01*
X129425Y174983D01*
X130750D01*
Y177250D01*
D02*
G37*
G36*
X399661Y174750D02*
X396656D01*
Y171350D01*
X399661D01*
Y174750D01*
D02*
G37*
G36*
X396156D02*
X393150D01*
Y171350D01*
X396156D01*
Y174750D01*
D02*
G37*
G36*
X378358Y179240D02*
X371453D01*
Y170760D01*
X378358D01*
Y173895D01*
X378360Y173898D01*
X378380Y173906D01*
X378451Y173925D01*
X378555Y173943D01*
X378687Y173954D01*
X378860Y173959D01*
X378909Y173980D01*
X380788D01*
X380836Y173959D01*
X381010Y173954D01*
X381142Y173943D01*
X381245Y173925D01*
X381317Y173906D01*
X381337Y173898D01*
X381339Y173895D01*
Y171350D01*
X387850D01*
Y178650D01*
X381339D01*
Y176105D01*
X381337Y176102D01*
X381317Y176094D01*
X381245Y176075D01*
X381142Y176057D01*
X381010Y176046D01*
X380836Y176041D01*
X380788Y176020D01*
X378909D01*
X378860Y176041D01*
X378687Y176046D01*
X378555Y176057D01*
X378451Y176075D01*
X378380Y176094D01*
X378360Y176102D01*
X378358Y176105D01*
Y179240D01*
D02*
G37*
G36*
X366547D02*
X359642D01*
Y170760D01*
X366547D01*
Y179240D01*
D02*
G37*
G36*
X220346Y171858D02*
X216750D01*
Y169738D01*
X220346D01*
Y171858D01*
D02*
G37*
G36*
X216250D02*
X212653D01*
Y169738D01*
X216250D01*
Y171858D01*
D02*
G37*
G36*
X229150Y171760D02*
X225750D01*
Y169443D01*
X229150D01*
Y171760D01*
D02*
G37*
G36*
X225250D02*
X221850D01*
Y169443D01*
X225250D01*
Y171760D01*
D02*
G37*
G36*
X220346Y169238D02*
X216750D01*
Y167118D01*
X220346D01*
Y169238D01*
D02*
G37*
G36*
X216250D02*
X212653D01*
Y167118D01*
X216250D01*
Y169238D01*
D02*
G37*
G36*
X229150Y168943D02*
X225750D01*
Y166626D01*
X229150D01*
Y168943D01*
D02*
G37*
G36*
X225250D02*
X221850D01*
Y166626D01*
X225250D01*
Y168943D01*
D02*
G37*
G36*
X423728Y170390D02*
X423250D01*
Y163250D01*
X430390D01*
Y163728D01*
X430106Y165155D01*
X429549Y166500D01*
X428740Y167711D01*
X427711Y168740D01*
X426500Y169549D01*
X425155Y170106D01*
X423728Y170390D01*
D02*
G37*
G36*
X422750D02*
X422272D01*
X420845Y170106D01*
X419500Y169549D01*
X418289Y168740D01*
X417260Y167711D01*
X416451Y166500D01*
X415894Y165155D01*
X415610Y163728D01*
Y163250D01*
X422750D01*
Y170390D01*
D02*
G37*
G36*
X130228D02*
X129750D01*
Y163250D01*
X136890D01*
Y163728D01*
X136606Y165155D01*
X136049Y166500D01*
X135240Y167711D01*
X134211Y168740D01*
X133000Y169549D01*
X131656Y170106D01*
X130228Y170390D01*
D02*
G37*
G36*
X129250D02*
X128772D01*
X127345Y170106D01*
X126000Y169549D01*
X124789Y168740D01*
X123760Y167711D01*
X122951Y166500D01*
X122394Y165155D01*
X122110Y163728D01*
Y163250D01*
X129250D01*
Y170390D01*
D02*
G37*
G36*
X312433Y181793D02*
X241567D01*
X241184Y181635D01*
X241026Y181252D01*
Y157630D01*
X241184Y157247D01*
X241567Y157089D01*
X312433D01*
X312816Y157247D01*
X312974Y157630D01*
Y181252D01*
X312816Y181635D01*
X312433Y181793D01*
D02*
G37*
G36*
X430390Y162750D02*
X423250D01*
Y155610D01*
X423728D01*
X425155Y155894D01*
X426500Y156451D01*
X427711Y157260D01*
X428740Y158289D01*
X429549Y159500D01*
X430106Y160845D01*
X430390Y162272D01*
Y162750D01*
D02*
G37*
G36*
X422750D02*
X415610D01*
Y162272D01*
X415894Y160845D01*
X416451Y159500D01*
X417260Y158289D01*
X418289Y157260D01*
X419500Y156451D01*
X420845Y155894D01*
X422272Y155610D01*
X422750D01*
Y162750D01*
D02*
G37*
G36*
X136890D02*
X129750D01*
Y155610D01*
X130228D01*
X131656Y155894D01*
X133000Y156451D01*
X134211Y157260D01*
X135240Y158289D01*
X136049Y159500D01*
X136606Y160845D01*
X136890Y162272D01*
Y162750D01*
D02*
G37*
G36*
X129250D02*
X122110D01*
Y162272D01*
X122394Y160845D01*
X122951Y159500D01*
X123760Y158289D01*
X124789Y157260D01*
X126000Y156451D01*
X127345Y155894D01*
X128772Y155610D01*
X129250D01*
Y162750D01*
D02*
G37*
%LPD*%
G36*
X211905Y264841D02*
X211820Y264811D01*
X211745Y264761D01*
X211680Y264691D01*
X211625Y264601D01*
X211580Y264491D01*
X211545Y264361D01*
X211520Y264211D01*
X211505Y264041D01*
X211500Y263851D01*
X210500D01*
X210495Y264041D01*
X210480Y264211D01*
X210455Y264361D01*
X210420Y264491D01*
X210375Y264601D01*
X210320Y264691D01*
X210255Y264761D01*
X210180Y264811D01*
X210095Y264841D01*
X210000Y264851D01*
X212000D01*
X211905Y264841D01*
D02*
G37*
G36*
X211505Y262074D02*
X211520Y261904D01*
X211545Y261754D01*
X211580Y261624D01*
X211625Y261514D01*
X211680Y261424D01*
X211745Y261354D01*
X211820Y261304D01*
X211905Y261274D01*
X212000Y261264D01*
X210000D01*
X210095Y261274D01*
X210180Y261304D01*
X210255Y261354D01*
X210320Y261424D01*
X210375Y261514D01*
X210420Y261624D01*
X210455Y261754D01*
X210480Y261904D01*
X210495Y262074D01*
X210500Y262264D01*
X211500D01*
X211505Y262074D01*
D02*
G37*
G36*
X202405Y264841D02*
X202320Y264811D01*
X202245Y264761D01*
X202180Y264691D01*
X202125Y264601D01*
X202080Y264491D01*
X202045Y264361D01*
X202020Y264211D01*
X202005Y264041D01*
X202000Y263851D01*
X201000D01*
X200995Y264041D01*
X200980Y264211D01*
X200955Y264361D01*
X200920Y264491D01*
X200875Y264601D01*
X200820Y264691D01*
X200755Y264761D01*
X200680Y264811D01*
X200595Y264841D01*
X200500Y264851D01*
X202500D01*
X202405Y264841D01*
D02*
G37*
G36*
X202005Y263062D02*
X202020Y262892D01*
X202045Y262742D01*
X202080Y262612D01*
X202125Y262502D01*
X202180Y262412D01*
X202245Y262342D01*
X202320Y262292D01*
X202405Y262262D01*
X202500Y262252D01*
X200500D01*
X200595Y262262D01*
X200680Y262292D01*
X200755Y262342D01*
X200820Y262412D01*
X200875Y262502D01*
X200920Y262612D01*
X200955Y262742D01*
X200980Y262892D01*
X200995Y263062D01*
X201000Y263252D01*
X202000D01*
X202005Y263062D01*
D02*
G37*
G36*
X185793Y227802D02*
X185723Y227866D01*
X185648Y227924D01*
X185567Y227975D01*
X185480Y228019D01*
X185388Y228057D01*
X185289Y228087D01*
X185185Y228111D01*
X185075Y228128D01*
X184960Y228138D01*
X184839Y228142D01*
Y229142D01*
X184960Y229145D01*
X185075Y229155D01*
X185185Y229172D01*
X185289Y229196D01*
X185388Y229227D01*
X185480Y229264D01*
X185567Y229308D01*
X185648Y229359D01*
X185723Y229417D01*
X185793Y229482D01*
Y227802D01*
D02*
G37*
G36*
X156277Y229417D02*
X156352Y229359D01*
X156433Y229308D01*
X156520Y229264D01*
X156613Y229227D01*
X156711Y229196D01*
X156815Y229172D01*
X156924Y229155D01*
X157040Y229145D01*
X157161Y229142D01*
Y228142D01*
X157040Y228138D01*
X156924Y228128D01*
X156815Y228111D01*
X156711Y228087D01*
X156613Y228057D01*
X156520Y228019D01*
X156433Y227975D01*
X156352Y227924D01*
X156277Y227866D01*
X156207Y227802D01*
Y229482D01*
X156277Y229417D01*
D02*
G37*
G36*
X239610Y220000D02*
X239600Y220095D01*
X239570Y220180D01*
X239520Y220255D01*
X239450Y220320D01*
X239360Y220375D01*
X239250Y220420D01*
X239120Y220455D01*
X238970Y220480D01*
X238800Y220495D01*
X238610Y220500D01*
Y221500D01*
X238800Y221505D01*
X238970Y221520D01*
X239120Y221545D01*
X239250Y221580D01*
X239360Y221625D01*
X239450Y221680D01*
X239520Y221745D01*
X239570Y221820D01*
X239600Y221905D01*
X239610Y222000D01*
Y220000D01*
D02*
G37*
G36*
X237400Y221905D02*
X237430Y221820D01*
X237480Y221745D01*
X237550Y221680D01*
X237640Y221625D01*
X237750Y221580D01*
X237880Y221545D01*
X238030Y221520D01*
X238200Y221505D01*
X238390Y221500D01*
Y220500D01*
X238200Y220495D01*
X238030Y220480D01*
X237880Y220455D01*
X237750Y220420D01*
X237640Y220375D01*
X237550Y220320D01*
X237480Y220255D01*
X237430Y220180D01*
X237400Y220095D01*
X237390Y220000D01*
Y222000D01*
X237400Y221905D01*
D02*
G37*
G36*
X281905Y282219D02*
X281820Y282189D01*
X281745Y282138D01*
X281680Y282068D01*
X281625Y281979D01*
X281580Y281869D01*
X281545Y281738D01*
X281520Y281589D01*
X281516Y281543D01*
X281564Y281318D01*
X281644Y281083D01*
X281756Y280837D01*
X281900Y280580D01*
X282076Y280314D01*
X282284Y280036D01*
X282796Y279451D01*
X283100Y279142D01*
X278900D01*
X279204Y279451D01*
X279716Y280036D01*
X279924Y280314D01*
X280100Y280580D01*
X280244Y280837D01*
X280356Y281083D01*
X280436Y281318D01*
X280484Y281543D01*
X280480Y281589D01*
X280455Y281738D01*
X280420Y281869D01*
X280375Y281979D01*
X280320Y282068D01*
X280255Y282138D01*
X280180Y282189D01*
X280095Y282219D01*
X280000Y282228D01*
X282000D01*
X281905Y282219D01*
D02*
G37*
G36*
X291905D02*
X291820Y282189D01*
X291745Y282138D01*
X291680Y282068D01*
X291625Y281979D01*
X291580Y281869D01*
X291545Y281738D01*
X291520Y281589D01*
X291516Y281543D01*
X291564Y281318D01*
X291644Y281083D01*
X291756Y280837D01*
X291900Y280580D01*
X292076Y280314D01*
X292284Y280036D01*
X292796Y279451D01*
X293100Y279142D01*
X288900D01*
X289204Y279451D01*
X289716Y280036D01*
X289924Y280314D01*
X290100Y280580D01*
X290244Y280837D01*
X290356Y281083D01*
X290436Y281318D01*
X290484Y281543D01*
X290480Y281589D01*
X290455Y281738D01*
X290420Y281869D01*
X290375Y281979D01*
X290320Y282068D01*
X290255Y282138D01*
X290180Y282189D01*
X290095Y282219D01*
X290000Y282228D01*
X292000D01*
X291905Y282219D01*
D02*
G37*
G36*
X150626Y209800D02*
X150540Y209705D01*
X150466Y209603D01*
X150400Y209492D01*
X150346Y209373D01*
X150301Y209245D01*
X150266Y209109D01*
X150241Y208965D01*
X150238Y208942D01*
X150241Y208915D01*
X150266Y208765D01*
X150301Y208635D01*
X150346Y208525D01*
X150400Y208435D01*
X150466Y208365D01*
X150540Y208315D01*
X150626Y208285D01*
X150721Y208275D01*
X148721D01*
X148816Y208285D01*
X148900Y208315D01*
X148976Y208365D01*
X149040Y208435D01*
X149095Y208525D01*
X149141Y208635D01*
X149176Y208765D01*
X149200Y208913D01*
X149176Y209060D01*
X149141Y209190D01*
X149095Y209300D01*
X149040Y209390D01*
X148976Y209460D01*
X148900Y209510D01*
X148816Y209540D01*
X148721Y209550D01*
X150721Y209886D01*
X150626Y209800D01*
D02*
G37*
G36*
X151982Y201960D02*
X152012Y201945D01*
X152062Y201932D01*
X152132Y201921D01*
X152222Y201911D01*
X152612Y201893D01*
X152972Y201890D01*
Y200890D01*
X152782Y200889D01*
X152012Y200845D01*
X151982Y200833D01*
X151972Y200819D01*
Y201976D01*
X151982Y201960D01*
D02*
G37*
G36*
X157736Y200390D02*
X157726Y200485D01*
X157696Y200570D01*
X157646Y200645D01*
X157576Y200710D01*
X157486Y200765D01*
X157376Y200810D01*
X157246Y200845D01*
X157096Y200870D01*
X156926Y200885D01*
X156736Y200890D01*
Y201890D01*
X156926Y201895D01*
X157096Y201910D01*
X157246Y201935D01*
X157376Y201970D01*
X157486Y202015D01*
X157576Y202070D01*
X157646Y202135D01*
X157696Y202210D01*
X157726Y202295D01*
X157736Y202390D01*
Y200390D01*
D02*
G37*
G36*
X147469Y196882D02*
X146948Y196870D01*
Y197870D01*
X147469Y197890D01*
Y196882D01*
D02*
G37*
G36*
X146654Y196369D02*
X146571Y196281D01*
X146496Y196192D01*
X146429Y196103D01*
X146371Y196013D01*
X146321Y195922D01*
X146280Y195830D01*
X146247Y195738D01*
X146223Y195645D01*
X146207Y195551D01*
X146202Y195489D01*
X146206Y195426D01*
X146220Y195332D01*
X146244Y195239D01*
X146275Y195147D01*
X146316Y195055D01*
X146364Y194964D01*
X146422Y194874D01*
X146488Y194784D01*
X146563Y194696D01*
X146646Y194608D01*
X145961Y193879D01*
X145872Y193962D01*
X145783Y194037D01*
X145694Y194102D01*
X145603Y194158D01*
X145512Y194204D01*
X145420Y194242D01*
X145327Y194270D01*
X145234Y194290D01*
X145140Y194300D01*
X145045Y194301D01*
X146170Y195489D01*
X145067Y196698D01*
X145162Y196697D01*
X145256Y196706D01*
X145349Y196724D01*
X145442Y196751D01*
X145534Y196788D01*
X145625Y196834D01*
X145715Y196890D01*
X145805Y196954D01*
X145894Y197028D01*
X145983Y197112D01*
X146654Y196369D01*
D02*
G37*
G36*
X151978Y195991D02*
X151997Y195973D01*
X152027Y195956D01*
X152070Y195941D01*
X152125Y195929D01*
X152192Y195919D01*
X152363Y195906D01*
X152583Y195902D01*
Y194902D01*
X151972Y194914D01*
Y196012D01*
X151978Y195991D01*
D02*
G37*
G36*
X147469Y194102D02*
Y193078D01*
X147463Y193085D01*
X147447Y193091D01*
X147420Y193096D01*
X147383Y193101D01*
X147276Y193108D01*
X146932Y193114D01*
Y194114D01*
X147469Y194102D01*
D02*
G37*
G36*
X153650Y195046D02*
X153739Y194972D01*
X153829Y194907D01*
X153919Y194850D01*
X154010Y194803D01*
X154102Y194764D01*
X154195Y194735D01*
X154288Y194714D01*
X154382Y194702D01*
X154477Y194700D01*
X153331Y193533D01*
X154411Y192303D01*
X154316Y192306D01*
X154222Y192298D01*
X154129Y192282D01*
X154036Y192255D01*
X153945Y192220D01*
X153853Y192174D01*
X153763Y192120D01*
X153673Y192055D01*
X153584Y191981D01*
X153495Y191898D01*
X152839Y192656D01*
X152922Y192743D01*
X152997Y192832D01*
X153064Y192921D01*
X153123Y193011D01*
X153173Y193102D01*
X153215Y193193D01*
X153249Y193285D01*
X153275Y193378D01*
X153293Y193471D01*
X153299Y193533D01*
X153296Y193596D01*
X153283Y193690D01*
X153261Y193783D01*
X153230Y193876D01*
X153191Y193968D01*
X153142Y194059D01*
X153085Y194149D01*
X153020Y194239D01*
X152945Y194328D01*
X152862Y194416D01*
X153562Y195130D01*
X153650Y195046D01*
D02*
G37*
G36*
X152536Y191146D02*
X152429Y191145D01*
X152062Y191123D01*
X152023Y191114D01*
X151995Y191105D01*
X151978Y191094D01*
X151972Y191082D01*
Y192134D01*
X152536Y192146D01*
Y191146D01*
D02*
G37*
G36*
X151982Y190149D02*
X152012Y190134D01*
X152062Y190121D01*
X152132Y190110D01*
X152222Y190100D01*
X152612Y190082D01*
X152972Y190079D01*
Y189079D01*
X152782Y189078D01*
X152012Y189033D01*
X151982Y189022D01*
X151972Y189008D01*
Y190165D01*
X151982Y190149D01*
D02*
G37*
G36*
X157736Y188579D02*
X157726Y188674D01*
X157696Y188759D01*
X157646Y188834D01*
X157576Y188899D01*
X157486Y188954D01*
X157376Y188999D01*
X157246Y189034D01*
X157096Y189059D01*
X156926Y189074D01*
X156736Y189079D01*
Y190079D01*
X156926Y190084D01*
X157096Y190099D01*
X157246Y190124D01*
X157376Y190159D01*
X157486Y190204D01*
X157576Y190259D01*
X157646Y190324D01*
X157696Y190399D01*
X157726Y190484D01*
X157736Y190579D01*
Y188579D01*
D02*
G37*
G36*
X150626Y180730D02*
X150540Y180700D01*
X150466Y180650D01*
X150400Y180580D01*
X150346Y180490D01*
X150301Y180380D01*
X150266Y180250D01*
X150241Y180100D01*
X150238Y180074D01*
X150241Y180050D01*
X150266Y179906D01*
X150301Y179771D01*
X150346Y179643D01*
X150400Y179524D01*
X150466Y179413D01*
X150540Y179310D01*
X150626Y179216D01*
X150721Y179130D01*
X148721Y179466D01*
X148816Y179476D01*
X148900Y179506D01*
X148976Y179556D01*
X149040Y179626D01*
X149095Y179716D01*
X149141Y179826D01*
X149176Y179956D01*
X149200Y180103D01*
X149176Y180250D01*
X149141Y180380D01*
X149095Y180490D01*
X149040Y180580D01*
X148976Y180650D01*
X148900Y180700D01*
X148816Y180730D01*
X148721Y180740D01*
X150721D01*
X150626Y180730D01*
D02*
G37*
G36*
X250159Y293223D02*
X250162Y293102D01*
X250185Y292875D01*
X250205Y292769D01*
X250231Y292668D01*
X250262Y292572D01*
X250300Y292481D01*
X250343Y292395D01*
X250392Y292314D01*
X250446Y292238D01*
X248781Y292461D01*
X248853Y292521D01*
X248917Y292588D01*
X248974Y292661D01*
X249023Y292742D01*
X249065Y292830D01*
X249099Y292924D01*
X249125Y293025D01*
X249144Y293134D01*
X249155Y293249D01*
X249159Y293371D01*
X250159Y293223D01*
D02*
G37*
G36*
X254225Y292336D02*
X254142Y292248D01*
X254067Y292159D01*
X254002Y292069D01*
X253945Y291979D01*
X253897Y291888D01*
X253858Y291796D01*
X253828Y291703D01*
X253807Y291610D01*
X253794Y291516D01*
X253791Y291421D01*
X252603Y292609D01*
X252698Y292612D01*
X252792Y292625D01*
X252885Y292646D01*
X252978Y292676D01*
X253070Y292715D01*
X253161Y292763D01*
X253251Y292820D01*
X253341Y292885D01*
X253430Y292960D01*
X253518Y293043D01*
X254225Y292336D01*
D02*
G37*
G36*
X337751Y225295D02*
X337422Y225619D01*
X336801Y226165D01*
X336509Y226386D01*
X336228Y226574D01*
X335959Y226727D01*
X335701Y226847D01*
X335456Y226932D01*
X335222Y226983D01*
X335001Y227000D01*
Y228000D01*
X335222Y228017D01*
X335456Y228068D01*
X335701Y228153D01*
X335959Y228273D01*
X336228Y228426D01*
X336509Y228614D01*
X336801Y228835D01*
X337422Y229381D01*
X337751Y229705D01*
Y225295D01*
D02*
G37*
G36*
X342601Y219344D02*
X343193Y218813D01*
X343476Y218597D01*
X343751Y218415D01*
X344017Y218265D01*
X344275Y218149D01*
X344525Y218066D01*
X344766Y218017D01*
X344999Y218000D01*
Y217000D01*
X344766Y216983D01*
X344525Y216934D01*
X344275Y216851D01*
X344017Y216735D01*
X343751Y216585D01*
X343476Y216403D01*
X343193Y216187D01*
X342901Y215938D01*
X342293Y215341D01*
Y219659D01*
X342601Y219344D01*
D02*
G37*
G36*
X376367Y195463D02*
X376298Y195399D01*
X376235Y195329D01*
X376180Y195253D01*
X376132Y195170D01*
X376092Y195081D01*
X376059Y194985D01*
X376033Y194883D01*
X376015Y194774D01*
X376004Y194659D01*
X376000Y194537D01*
X375000Y194637D01*
X374997Y194758D01*
X374988Y194874D01*
X374973Y194985D01*
X374951Y195090D01*
X374924Y195190D01*
X374890Y195285D01*
X374850Y195375D01*
X374804Y195460D01*
X374752Y195540D01*
X374694Y195614D01*
X376367Y195463D01*
D02*
G37*
G36*
X230665Y189882D02*
X230656Y189977D01*
X230626Y190062D01*
X230576Y190137D01*
X230505Y190202D01*
X230416Y190257D01*
X230306Y190302D01*
X230176Y190337D01*
X230026Y190362D01*
X229855Y190377D01*
X229750Y190380D01*
X229644Y190377D01*
X229474Y190362D01*
X229324Y190337D01*
X229194Y190302D01*
X229084Y190257D01*
X228994Y190202D01*
X228924Y190137D01*
X228874Y190062D01*
X228844Y189977D01*
X228835Y189882D01*
Y191882D01*
X228844Y191787D01*
X228874Y191702D01*
X228924Y191627D01*
X228994Y191562D01*
X229084Y191507D01*
X229194Y191462D01*
X229324Y191427D01*
X229474Y191402D01*
X229644Y191387D01*
X229750Y191384D01*
X229855Y191387D01*
X230026Y191402D01*
X230176Y191427D01*
X230306Y191462D01*
X230416Y191507D01*
X230505Y191562D01*
X230576Y191627D01*
X230626Y191702D01*
X230656Y191787D01*
X230665Y191882D01*
Y189882D01*
D02*
G37*
G36*
X239610D02*
X239600Y189977D01*
X239570Y190062D01*
X239520Y190137D01*
X239450Y190202D01*
X239360Y190257D01*
X239250Y190302D01*
X239120Y190337D01*
X238970Y190362D01*
X238800Y190377D01*
X238610Y190382D01*
Y191382D01*
X238800Y191387D01*
X238970Y191402D01*
X239120Y191427D01*
X239250Y191462D01*
X239360Y191507D01*
X239450Y191562D01*
X239520Y191627D01*
X239570Y191702D01*
X239600Y191787D01*
X239610Y191882D01*
Y189882D01*
D02*
G37*
G36*
X237345Y191787D02*
X237374Y191702D01*
X237424Y191627D01*
X237494Y191562D01*
X237584Y191507D01*
X237695Y191462D01*
X237824Y191427D01*
X237974Y191402D01*
X238144Y191387D01*
X238334Y191382D01*
Y190382D01*
X238144Y190377D01*
X237974Y190362D01*
X237824Y190337D01*
X237695Y190302D01*
X237584Y190257D01*
X237494Y190202D01*
X237424Y190137D01*
X237374Y190062D01*
X237345Y189977D01*
X237334Y189882D01*
Y191882D01*
X237345Y191787D01*
D02*
G37*
G36*
X381851Y174000D02*
X381841Y174095D01*
X381811Y174180D01*
X381761Y174255D01*
X381691Y174320D01*
X381601Y174375D01*
X381491Y174420D01*
X381361Y174455D01*
X381211Y174480D01*
X381041Y174495D01*
X380851Y174500D01*
Y175500D01*
X381041Y175505D01*
X381211Y175520D01*
X381361Y175545D01*
X381491Y175580D01*
X381601Y175625D01*
X381691Y175680D01*
X381761Y175745D01*
X381811Y175820D01*
X381841Y175905D01*
X381851Y176000D01*
Y174000D01*
D02*
G37*
G36*
X377856Y175905D02*
X377886Y175820D01*
X377936Y175745D01*
X378006Y175680D01*
X378096Y175625D01*
X378206Y175580D01*
X378336Y175545D01*
X378486Y175520D01*
X378656Y175505D01*
X378846Y175500D01*
Y174500D01*
X378656Y174495D01*
X378486Y174480D01*
X378336Y174455D01*
X378206Y174420D01*
X378096Y174375D01*
X378006Y174320D01*
X377936Y174255D01*
X377886Y174180D01*
X377856Y174095D01*
X377846Y174000D01*
Y176000D01*
X377856Y175905D01*
D02*
G37*
D10*
X291000Y271000D02*
X321000Y241000D01*
X283182Y271000D02*
X291000D01*
X281096Y273086D02*
X283182Y271000D01*
X311449Y203299D02*
X316529D01*
X321000Y207770D01*
Y241000D01*
X291000Y277000D02*
X324500Y243500D01*
Y206000D02*
Y243500D01*
X315894Y197394D02*
X324500Y206000D01*
X376500Y188000D02*
X381500Y193000D01*
Y230500D01*
X375500Y188000D02*
X376500D01*
X306000Y306000D02*
X381500Y230500D01*
X255500Y306000D02*
X306000D01*
X246500Y297000D02*
X255500Y306000D01*
X246500Y291500D02*
Y297000D01*
X238684Y197816D02*
X242129D01*
X217500Y219000D02*
X238684Y197816D01*
X242129D02*
X242551Y197394D01*
X257500Y302500D02*
X303000D01*
X249659Y291659D02*
Y294659D01*
X257500Y302500D01*
X303000D02*
X347000Y258500D01*
X281000Y277000D02*
X281096Y276904D01*
Y273086D02*
Y276904D01*
X332500Y229000D02*
Y266000D01*
X259466Y298284D02*
X300217D01*
X332500Y266000D01*
X311449Y197394D02*
X315894D01*
X249500Y291500D02*
X249659Y291659D01*
X347000Y219500D02*
Y258500D01*
X149721Y207106D02*
Y210159D01*
X148364Y211516D02*
X149721Y210159D01*
X147457Y211516D02*
X148364D01*
X149721Y178857D02*
Y181909D01*
X148364Y177500D02*
X149721Y178857D01*
X147457Y177500D02*
X148364D01*
X155350Y228642D02*
X186650D01*
X145000Y195500D02*
X145078D01*
X146948Y197370D02*
X148638D01*
X148721Y197453D01*
X145000Y195500D02*
X145047D01*
X146932Y193614D01*
X148622D01*
X145078Y195500D02*
X146948Y197370D01*
X148622Y193614D02*
X148721Y193516D01*
X154485Y193500D02*
X154500D01*
X152583Y195402D02*
X154485Y193500D01*
X148721Y195484D02*
X148803Y195402D01*
X148819Y191646D02*
X152536D01*
X154390Y193500D01*
X148803Y195402D02*
X152583D01*
X148721Y191547D02*
X148819Y191646D01*
X154390Y193500D02*
X154500D01*
X234000Y190882D02*
X241945D01*
X281000Y277000D02*
Y284382D01*
X252591Y291409D02*
X259466Y298284D01*
X375500Y196283D02*
X375716Y196500D01*
X375500Y188000D02*
Y196283D01*
X374905Y175000D02*
X384594D01*
X345000Y217500D02*
X347000Y219500D01*
X340000Y217500D02*
X345000D01*
X332500Y229000D02*
X334000Y227500D01*
X340000D01*
X291000Y277000D02*
Y284382D01*
X211000Y259110D02*
Y267595D01*
X201500Y259311D02*
Y267595D01*
X242535Y221000D02*
X242551Y221016D01*
X235236Y221000D02*
X242535D01*
X241945Y190882D02*
X242551Y191488D01*
X225500Y190882D02*
X234000D01*
X159811Y189579D02*
X159890Y189500D01*
X148721Y189579D02*
X159811D01*
X159780Y201390D02*
X159890Y201500D01*
X148721Y201390D02*
X159780D01*
D26*
X165500Y190500D02*
Y196278D01*
X281000Y294500D02*
X290882D01*
X364988Y196795D02*
X365657Y196126D01*
Y188000D02*
Y196126D01*
X364988Y196795D02*
Y205000D01*
X340000Y207500D02*
X352500D01*
X355000Y205000D02*
X364988D01*
X352500Y207500D02*
X355000Y205000D01*
X274500Y294500D02*
X281000D01*
X216500Y180512D02*
X233630D01*
X165000Y311500D02*
X202000D01*
X155575Y302075D02*
X165000Y311500D01*
X202000D02*
X211000Y302500D01*
Y279405D02*
Y302500D01*
X155575Y298075D02*
Y302075D01*
X154500Y297000D02*
X155575Y298075D01*
X154500Y263000D02*
Y297000D01*
Y263000D02*
X155500Y262000D01*
X146000Y261618D02*
X155118D01*
X241280Y184311D02*
X242551Y185583D01*
X238610Y184311D02*
X241280D01*
X235181Y180882D02*
X238610Y184311D01*
X234000Y180882D02*
X235181D01*
X233630Y180512D02*
X234000Y180882D01*
X216500Y180512D02*
Y191000D01*
X200713Y278618D02*
X201500Y279405D01*
X271000Y269012D02*
Y277000D01*
Y269012D02*
X271512Y268500D01*
X183000Y278618D02*
X200713D01*
X181819D02*
X183000D01*
X175520Y284917D02*
X181819Y278618D01*
X164500Y284917D02*
X175520D01*
X164500Y262083D02*
Y284917D01*
Y297000D01*
X290882Y294500D02*
X291000Y294618D01*
X271236Y291236D02*
X274500Y294500D01*
X271236Y285500D02*
Y291236D01*
X271000Y285264D02*
X271236Y285500D01*
X271000Y277000D02*
Y285264D01*
D27*
X261000Y277000D02*
D03*
D28*
X271000D02*
D03*
X281000D02*
D03*
X291000D02*
D03*
X395185Y188000D02*
D03*
X385343D02*
D03*
X365657D02*
D03*
X375500D02*
D03*
D29*
X340000Y237500D02*
D03*
X174500Y297000D02*
D03*
X184500D02*
D03*
X164500D02*
D03*
X340000Y217500D02*
D03*
Y227500D02*
D03*
D30*
X147457Y211516D02*
D03*
Y177500D02*
D03*
D31*
X131000Y211516D02*
D03*
Y177500D02*
D03*
D32*
X276449Y212158D02*
D03*
X280780D02*
D03*
X278614Y214323D02*
D03*
X282945D02*
D03*
X278614Y209992D02*
D03*
X276449Y207827D02*
D03*
X280780D02*
D03*
X282945Y209992D02*
D03*
X278614Y205661D02*
D03*
X285110Y212158D02*
D03*
Y207827D02*
D03*
X282945Y205661D02*
D03*
D33*
X145488Y183130D02*
D03*
Y205886D02*
D03*
D34*
X154500Y297000D02*
D03*
D35*
X129500Y163000D02*
D03*
X423000D02*
D03*
X129500Y313000D02*
D03*
X423000D02*
D03*
D36*
X340000Y207500D02*
D03*
D37*
X246500Y291500D02*
D03*
X165500Y190500D02*
D03*
X217500Y219000D02*
D03*
X186500Y246000D02*
D03*
X155000D02*
D03*
X171360Y187750D02*
D03*
Y201250D02*
D03*
X165500Y196278D02*
D03*
X151000Y185000D02*
D03*
X201500Y279000D02*
D03*
X155500Y262000D02*
D03*
X186650Y228642D02*
D03*
X155350D02*
D03*
X149500Y204000D02*
D03*
X145000Y195500D02*
D03*
X154500Y193500D02*
D03*
X252591Y291409D02*
D03*
X249500Y291500D02*
D03*
X311500Y185500D02*
D03*
X242500Y227000D02*
D03*
X375608Y196392D02*
D03*
X363094Y175000D02*
D03*
X311449Y221016D02*
D03*
Y226921D02*
D03*
X216500Y191000D02*
D03*
X225000Y221000D02*
D03*
X311500Y215000D02*
D03*
X311449Y209205D02*
D03*
D38*
X211000Y247890D02*
D03*
Y259110D02*
D03*
D39*
X201500Y247500D02*
D03*
Y259311D02*
D03*
D40*
X225000Y221000D02*
D03*
X235236D02*
D03*
X260882Y285500D02*
D03*
X271118D02*
D03*
D41*
X216500Y180512D02*
D03*
Y169488D02*
D03*
D42*
X225500Y180807D02*
D03*
Y169193D02*
D03*
D43*
X234000Y191118D02*
D03*
Y180882D02*
D03*
X225500Y201118D02*
D03*
Y190882D02*
D03*
X183000Y268382D02*
D03*
Y278618D02*
D03*
X146000Y251382D02*
D03*
Y261618D02*
D03*
X291000Y294618D02*
D03*
Y284382D02*
D03*
X281000Y294618D02*
D03*
Y284382D02*
D03*
D44*
X159890Y188000D02*
D03*
X171110D02*
D03*
X171110Y201500D02*
D03*
X159890D02*
D03*
D45*
X259988Y268500D02*
D03*
X271012D02*
D03*
X376012Y205000D02*
D03*
X364988D02*
D03*
D46*
X365283Y196500D02*
D03*
X375716D02*
D03*
D47*
X201500Y279405D02*
D03*
Y267595D02*
D03*
X211000Y279405D02*
D03*
Y267595D02*
D03*
D48*
X384594Y175000D02*
D03*
X396406D02*
D03*
D49*
X374905D02*
D03*
X363094D02*
D03*
D50*
X311449Y185583D02*
D03*
X242551Y232827D02*
D03*
X311449Y191488D02*
D03*
Y197394D02*
D03*
Y203299D02*
D03*
Y209205D02*
D03*
Y215110D02*
D03*
Y221016D02*
D03*
Y226921D02*
D03*
Y232827D02*
D03*
X242551Y226921D02*
D03*
Y221016D02*
D03*
Y215110D02*
D03*
Y209205D02*
D03*
Y203299D02*
D03*
Y197394D02*
D03*
Y191488D02*
D03*
Y185583D02*
D03*
D51*
X149721Y207106D02*
D03*
Y181909D02*
D03*
Y203957D02*
D03*
Y185059D02*
D03*
D52*
X173555Y262083D02*
D03*
X164500D02*
D03*
X155445D02*
D03*
D53*
X149721Y201398D02*
D03*
Y189587D02*
D03*
Y197461D02*
D03*
Y193524D02*
D03*
Y187618D02*
D03*
Y191555D02*
D03*
Y199429D02*
D03*
Y195492D02*
D03*
D54*
X276449Y214323D02*
D03*
X280780D02*
D03*
X285110D02*
D03*
Y205661D02*
D03*
X280780D02*
D03*
X276449D02*
D03*
Y209992D02*
D03*
X285110D02*
D03*
X280780D02*
D03*
D55*
X164500Y284917D02*
D03*
M02*
