G04*
G04 #@! TF.GenerationSoftware,Altium Limited,Altium Designer,25.6.2 (33)*
G04*
G04 Layer_Color=16711935*
%FSLAX25Y25*%
%MOIN*%
G70*
G04*
G04 #@! TF.SameCoordinates,A6983FEA-D560-4925-98B3-38CB5C928B3C*
G04*
G04*
G04 #@! TF.FilePolarity,Positive*
G04*
G01*
G75*
%ADD12C,0.00787*%
%ADD74C,0.00394*%
%ADD77C,0.00197*%
D12*
X212563Y167126D02*
Y182874D01*
Y167126D02*
X220437D01*
Y182874D01*
X212563D02*
X220437D01*
X221563Y166732D02*
Y183268D01*
Y166732D02*
X229437D01*
Y183268D01*
X221563D02*
X229437D01*
X257626Y264563D02*
X273374D01*
Y272437D01*
X257626D02*
X273374D01*
X257626Y264563D02*
Y272437D01*
X362626Y208937D02*
X378374D01*
X362626Y201063D02*
Y208937D01*
Y201063D02*
X378374D01*
Y208937D01*
D74*
X209032Y253500D02*
X212968D01*
X211000Y251532D02*
Y255469D01*
X199531Y253405D02*
X203468D01*
X201500Y251437D02*
Y255374D01*
X230118Y219032D02*
Y222969D01*
X228150Y221000D02*
X232087D01*
X232031Y186000D02*
X235968D01*
X234000Y184031D02*
Y187969D01*
X225500Y194032D02*
Y197968D01*
X223532Y196000D02*
X227468D01*
X183000Y271532D02*
Y275468D01*
X181032Y273500D02*
X184968D01*
X146000Y254532D02*
Y258469D01*
X144032Y256500D02*
X147968D01*
X165500Y186031D02*
Y189969D01*
X163531Y188000D02*
X167469D01*
X165500Y199531D02*
Y203468D01*
X163531Y201500D02*
X167469D01*
X289032Y289500D02*
X292969D01*
X291000Y287531D02*
Y291469D01*
X279031Y289500D02*
X282968D01*
X281000Y287531D02*
Y291469D01*
X264032Y285500D02*
X267969D01*
X266000Y283531D02*
Y287469D01*
X370500Y194532D02*
Y198468D01*
X368531Y196500D02*
X372468D01*
X369000Y173031D02*
Y176969D01*
X367032Y175000D02*
X370969D01*
D77*
X215331Y244642D02*
Y262358D01*
X206669Y244642D02*
Y262358D01*
Y244642D02*
X215331D01*
X206669Y262358D02*
X215331D01*
X207209Y242579D02*
Y264232D01*
X195791Y242579D02*
Y264232D01*
Y242579D02*
X207209D01*
X195791Y264232D02*
X207209D01*
X222441Y217063D02*
X237795D01*
X222441Y224937D02*
X237795D01*
X222441Y217063D02*
Y224937D01*
X237795Y217063D02*
Y224937D01*
X230063Y178323D02*
Y193677D01*
X237937Y178323D02*
Y193677D01*
X230063D02*
X237937D01*
X230063Y178323D02*
X237937D01*
X221563Y203677D02*
X229437D01*
X221563Y188323D02*
X229437D01*
X221563D02*
Y203677D01*
X229437Y188323D02*
Y203677D01*
X179063Y265823D02*
X186937D01*
X179063Y281177D02*
X186937D01*
Y265823D02*
Y281177D01*
X179063Y265823D02*
Y281177D01*
X142063Y248823D02*
X149937D01*
X142063Y264177D02*
X149937D01*
Y248823D02*
Y264177D01*
X142063Y248823D02*
Y264177D01*
X156642Y183669D02*
X174358D01*
X156642Y192331D02*
X174358D01*
X156642Y183669D02*
Y192331D01*
X174358Y183669D02*
Y192331D01*
X156642Y205831D02*
X174358D01*
X156642Y197169D02*
X174358D01*
Y205831D01*
X156642Y197169D02*
Y205831D01*
X287063Y281823D02*
Y297177D01*
X294937Y281823D02*
Y297177D01*
X287063D02*
X294937D01*
X287063Y281823D02*
X294937D01*
X277063D02*
Y297177D01*
X284937Y281823D02*
Y297177D01*
X277063D02*
X284937D01*
X277063Y281823D02*
X284937D01*
X258323Y281563D02*
Y289437D01*
X273677Y281563D02*
Y289437D01*
X258323Y281563D02*
X273677D01*
X258323Y289437D02*
X273677D01*
X363020Y192760D02*
X377980D01*
X363020Y200240D02*
X377980D01*
X363020Y192760D02*
Y200240D01*
X377980Y192760D02*
Y200240D01*
X205634Y264051D02*
Y282949D01*
X197366D02*
X205634D01*
X197366Y264051D02*
Y282949D01*
Y264051D02*
X205634D01*
X215134D02*
Y282949D01*
X206866D02*
X215134D01*
X206866Y264051D02*
Y282949D01*
Y264051D02*
X215134D01*
X381051Y179134D02*
X399949D01*
X381051Y170866D02*
Y179134D01*
Y170866D02*
X399949D01*
Y179134D01*
X358173Y180709D02*
X379827D01*
X358173Y169291D02*
X379827D01*
Y180709D01*
X358173Y169291D02*
Y180709D01*
X238614Y156646D02*
X315386D01*
Y237354D01*
X238614D02*
X315386D01*
X238614Y156646D02*
Y237354D01*
X171882Y281374D02*
Y290134D01*
Y281374D02*
X178279D01*
Y265626D02*
Y281374D01*
X176409Y265626D02*
X178279D01*
X176409Y256866D02*
Y265626D01*
X152591Y256866D02*
X176409D01*
X152591D02*
Y265626D01*
X150721D02*
X152591D01*
X150721D02*
Y281374D01*
X157118D01*
Y290134D01*
X171882D01*
X152969Y174547D02*
Y214469D01*
X119780D02*
X152969D01*
X119780Y174547D02*
Y214469D01*
Y174547D02*
X152969D01*
X148122Y290917D02*
X190878D01*
Y303083D01*
X148122D02*
X190878D01*
X148122Y290917D02*
Y303083D01*
X333917Y201122D02*
X346083D01*
X333917D02*
Y243878D01*
X346083D01*
Y201122D02*
Y243878D01*
M02*
