G04*
G04 #@! TF.GenerationSoftware,Altium Limited,Altium Designer,25.6.2 (33)*
G04*
G04 Layer_Color=128*
%FSLAX25Y25*%
%MOIN*%
G70*
G04*
G04 #@! TF.SameCoordinates,A6983FEA-D560-4925-98B3-38CB5C928B3C*
G04*
G04*
G04 #@! TF.FilePolarity,Positive*
G04*
G01*
G75*
%ADD71C,0.00500*%
D71*
X259000Y277000D02*
X263000D01*
X261000Y275000D02*
Y279000D01*
X269000Y277000D02*
X273000D01*
X271000Y275000D02*
Y279000D01*
X279000Y277000D02*
X283000D01*
X281000Y275000D02*
Y279000D01*
X289000Y277000D02*
X293000D01*
X291000Y275000D02*
Y279000D01*
X393685Y188000D02*
X396685D01*
X395185Y186500D02*
Y189500D01*
X383842Y188000D02*
X386842D01*
X385343Y186500D02*
Y189500D01*
X364158Y188000D02*
X367158D01*
X365657Y186500D02*
Y189500D01*
X374000Y188000D02*
X377000D01*
X375500Y186500D02*
Y189500D01*
X337835Y237500D02*
X342165D01*
X340000Y235335D02*
Y239665D01*
X146276Y211516D02*
X148638D01*
X147457Y210335D02*
Y212697D01*
X146276Y177500D02*
X148638D01*
X147457Y176319D02*
Y178681D01*
X129819Y211516D02*
X132181D01*
X131000Y210335D02*
Y212697D01*
X129819Y177500D02*
X132181D01*
X131000Y176319D02*
Y178681D01*
X172335Y297000D02*
X176665D01*
X174500Y294835D02*
Y299165D01*
X182335Y297000D02*
X186665D01*
X184500Y294835D02*
Y299165D01*
X275858Y212158D02*
X277039D01*
X276449Y211567D02*
Y212748D01*
X280189Y212158D02*
X281370D01*
X280780Y211567D02*
Y212748D01*
X278024Y214323D02*
X279205D01*
X278614Y213732D02*
Y214913D01*
X282354Y214323D02*
X283535D01*
X282945Y213732D02*
Y214913D01*
X278024Y209992D02*
X279205D01*
X278614Y209402D02*
Y210583D01*
X275858Y207827D02*
X277039D01*
X276449Y207236D02*
Y208417D01*
X280189Y207827D02*
X281370D01*
X280780Y207236D02*
Y208417D01*
X282354Y209992D02*
X283535D01*
X282945Y209402D02*
Y210583D01*
X278024Y205661D02*
X279205D01*
X278614Y205071D02*
Y206252D01*
X284520Y212158D02*
X285701D01*
X285110Y211567D02*
Y212748D01*
X284520Y207827D02*
X285701D01*
X285110Y207236D02*
Y208417D01*
X282354Y205661D02*
X283535D01*
X282945Y205071D02*
Y206252D01*
X144209Y183130D02*
X146768D01*
X145488Y181850D02*
Y184409D01*
X144209Y205886D02*
X146768D01*
X145488Y204606D02*
Y207165D01*
X152335Y297000D02*
X156665D01*
X154500Y294835D02*
Y299165D01*
X162335Y297000D02*
X166665D01*
X164500Y294835D02*
Y299165D01*
X125563Y163000D02*
X133437D01*
X129500Y159063D02*
Y166937D01*
X419063Y163000D02*
X426937D01*
X423000Y159063D02*
Y166937D01*
X125563Y313000D02*
X133437D01*
X129500Y309063D02*
Y316937D01*
X419063Y313000D02*
X426937D01*
X423000Y309063D02*
Y316937D01*
X337835Y217500D02*
X342165D01*
X340000Y215335D02*
Y219665D01*
X337835Y207500D02*
X342165D01*
X340000Y205335D02*
Y209665D01*
X337835Y227500D02*
X342165D01*
X340000Y225335D02*
Y229665D01*
X245900Y291500D02*
X247100D01*
X246500Y290900D02*
Y292100D01*
X164900Y190500D02*
X166100D01*
X165500Y189900D02*
Y191100D01*
X216900Y219000D02*
X218100D01*
X217500Y218400D02*
Y219600D01*
X185900Y246000D02*
X187100D01*
X186500Y245400D02*
Y246600D01*
X154400Y246000D02*
X155600D01*
X155000Y245400D02*
Y246600D01*
X170760Y187750D02*
X171960D01*
X171360Y187150D02*
Y188350D01*
X170760Y201250D02*
X171960D01*
X171360Y200650D02*
Y201850D01*
X164900Y196278D02*
X166100D01*
X165500Y195678D02*
Y196878D01*
X150400Y185000D02*
X151600D01*
X151000Y184400D02*
Y185600D01*
X200900Y279000D02*
X202100D01*
X201500Y278400D02*
Y279600D01*
X154900Y262000D02*
X156100D01*
X155500Y261400D02*
Y262600D01*
X186050Y228642D02*
X187250D01*
X186650Y228042D02*
Y229242D01*
X154750Y228642D02*
X155950D01*
X155350Y228042D02*
Y229242D01*
X148900Y204000D02*
X150100D01*
X149500Y203400D02*
Y204600D01*
X144400Y195500D02*
X145600D01*
X145000Y194900D02*
Y196100D01*
X153900Y193500D02*
X155100D01*
X154500Y192900D02*
Y194100D01*
X251991Y291409D02*
X253191D01*
X252591Y290809D02*
Y292009D01*
X248900Y291500D02*
X250100D01*
X249500Y290900D02*
Y292100D01*
X310900Y185500D02*
X312100D01*
X311500Y184900D02*
Y186100D01*
X241900Y227000D02*
X243100D01*
X242500Y226400D02*
Y227600D01*
X375008Y196392D02*
X376208D01*
X375608Y195792D02*
Y196992D01*
X362494Y175000D02*
X363695D01*
X363094Y174400D02*
Y175600D01*
X310849Y221016D02*
X312049D01*
X311449Y220416D02*
Y221616D01*
X310849Y226921D02*
X312049D01*
X311449Y226321D02*
Y227521D01*
X215900Y191000D02*
X217100D01*
X216500Y190400D02*
Y191600D01*
X224400Y221000D02*
X225600D01*
X225000Y220400D02*
Y221600D01*
X310900Y215000D02*
X312100D01*
X311500Y214400D02*
Y215600D01*
X310849Y209205D02*
X312049D01*
X311449Y208605D02*
Y209805D01*
M02*
