G04*
G04 #@! TF.GenerationSoftware,Altium Limited,Altium Designer,25.6.2 (33)*
G04*
G04 Layer_Color=65535*
%FSLAX25Y25*%
%MOIN*%
G70*
G04*
G04 #@! TF.SameCoordinates,A6983FEA-D560-4925-98B3-38CB5C928B3C*
G04*
G04*
G04 #@! TF.FilePolarity,Positive*
G04*
G01*
G75*
%ADD10C,0.01000*%
%ADD11C,0.00984*%
%ADD12C,0.00787*%
%ADD13C,0.01300*%
%ADD14C,0.00800*%
%ADD15C,0.01200*%
D10*
X261500Y293000D02*
G03*
X261500Y293000I-500J0D01*
G01*
X223500Y286500D02*
X328500D01*
Y176500D02*
Y286500D01*
X223500Y176500D02*
X328500D01*
X223500D02*
Y286500D01*
X350921Y183500D02*
X409921D01*
X350921Y299051D02*
X409921D01*
Y183500D02*
Y299051D01*
X350921Y183500D02*
Y299051D01*
D11*
X192358Y228642D02*
G03*
X192358Y228642I-492J0D01*
G01*
D12*
X158402Y223721D02*
X183598D01*
X158402Y250394D02*
Y251279D01*
Y232677D02*
Y242323D01*
Y223721D02*
Y224606D01*
Y251279D02*
X183598D01*
Y250394D02*
Y251279D01*
Y232677D02*
Y242323D01*
Y223721D02*
Y224606D01*
D13*
X139300Y316666D02*
X142965D01*
X141133D01*
Y311167D01*
X147547D02*
X145715D01*
X144798Y312084D01*
Y313916D01*
X145715Y314833D01*
X147547D01*
X148464Y313916D01*
Y313000D01*
X144798D01*
X150296Y311167D02*
Y314833D01*
X151213D01*
X152129Y313916D01*
Y311167D01*
Y313916D01*
X153046Y314833D01*
X153962Y313916D01*
Y311167D01*
X155795Y309334D02*
Y314833D01*
X158544D01*
X159460Y313916D01*
Y312084D01*
X158544Y311167D01*
X155795D01*
X164042D02*
X162209D01*
X161293Y312084D01*
Y313916D01*
X162209Y314833D01*
X164042D01*
X164958Y313916D01*
Y313000D01*
X161293D01*
X166791Y314833D02*
Y311167D01*
Y313000D01*
X167708Y313916D01*
X168624Y314833D01*
X169540D01*
X173206D02*
X175038D01*
X175955Y313916D01*
Y311167D01*
X173206D01*
X172289Y312084D01*
X173206Y313000D01*
X175955D01*
X178704Y315749D02*
Y314833D01*
X177787D01*
X179620D01*
X178704D01*
Y312084D01*
X179620Y311167D01*
X182369Y314833D02*
Y312084D01*
X183286Y311167D01*
X186035D01*
Y314833D01*
X187868D02*
Y311167D01*
Y313000D01*
X188784Y313916D01*
X189700Y314833D01*
X190617D01*
X196115Y311167D02*
X194282D01*
X193366Y312084D01*
Y313916D01*
X194282Y314833D01*
X196115D01*
X197031Y313916D01*
Y313000D01*
X193366D01*
X204362Y316666D02*
Y311167D01*
X207111D01*
X208028Y312084D01*
Y313000D01*
X207111Y313916D01*
X204362D01*
X207111D01*
X208028Y314833D01*
Y315749D01*
X207111Y316666D01*
X204362D01*
X210777Y311167D02*
X212610D01*
X213526Y312084D01*
Y313916D01*
X212610Y314833D01*
X210777D01*
X209860Y313916D01*
Y312084D01*
X210777Y311167D01*
X215359Y314833D02*
X219024Y311167D01*
X217191Y313000D01*
X219024Y314833D01*
X215359Y311167D01*
X226355D02*
Y316666D01*
X228188Y314833D01*
X230021Y316666D01*
Y311167D01*
X231853D02*
Y316666D01*
Y313000D02*
X234602Y314833D01*
X231853Y313000D02*
X234602Y311167D01*
X237352D02*
Y312084D01*
X238268D01*
Y311167D01*
X237352D01*
X251097D02*
X247432D01*
X251097Y314833D01*
Y315749D01*
X250181Y316666D01*
X248348D01*
X247432Y315749D01*
D14*
X152800Y253300D02*
Y256799D01*
X154549D01*
X155133Y256216D01*
Y255049D01*
X154549Y254466D01*
X152800D01*
X156299Y255633D02*
Y253883D01*
X156882Y253300D01*
X158631D01*
Y255633D01*
X159798Y253300D02*
X161547D01*
X162130Y253883D01*
X161547Y254466D01*
X160381D01*
X159798Y255049D01*
X160381Y255633D01*
X162130D01*
X163297Y256799D02*
Y253300D01*
Y255049D01*
X163880Y255633D01*
X165046D01*
X165629Y255049D01*
Y253300D01*
X170294Y256799D02*
Y253300D01*
X172044D01*
X172627Y253883D01*
Y254466D01*
X172044Y255049D01*
X170294D01*
X172044D01*
X172627Y255633D01*
Y256216D01*
X172044Y256799D01*
X170294D01*
X173793Y255633D02*
Y253883D01*
X174376Y253300D01*
X176126D01*
Y255633D01*
X177875Y256216D02*
Y255633D01*
X177292D01*
X178458D01*
X177875D01*
Y253883D01*
X178458Y253300D01*
X180791Y256216D02*
Y255633D01*
X180208D01*
X181374D01*
X180791D01*
Y253883D01*
X181374Y253300D01*
X183707D02*
X184873D01*
X185456Y253883D01*
Y255049D01*
X184873Y255633D01*
X183707D01*
X183124Y255049D01*
Y253883D01*
X183707Y253300D01*
X186622D02*
Y255633D01*
X188372D01*
X188955Y255049D01*
Y253300D01*
X308133Y291716D02*
X307549Y292299D01*
X306383D01*
X305800Y291716D01*
Y291133D01*
X306383Y290549D01*
X307549D01*
X308133Y289966D01*
Y289383D01*
X307549Y288800D01*
X306383D01*
X305800Y289383D01*
X311631Y291716D02*
X311048Y292299D01*
X309882D01*
X309299Y291716D01*
Y291133D01*
X309882Y290549D01*
X311048D01*
X311631Y289966D01*
Y289383D01*
X311048Y288800D01*
X309882D01*
X309299Y289383D01*
X312798Y292299D02*
Y288800D01*
X314547D01*
X315130Y289383D01*
Y291716D01*
X314547Y292299D01*
X312798D01*
X316297Y288800D02*
X317463D01*
X316880D01*
Y292299D01*
X316297Y291716D01*
X319212D02*
X319795Y292299D01*
X320962D01*
X321545Y291716D01*
Y291133D01*
X320962Y290549D01*
X320379D01*
X320962D01*
X321545Y289966D01*
Y289383D01*
X320962Y288800D01*
X319795D01*
X319212Y289383D01*
X322711Y291716D02*
X323294Y292299D01*
X324461D01*
X325044Y291716D01*
Y289383D01*
X324461Y288800D01*
X323294D01*
X322711Y289383D01*
Y291716D01*
X328543Y292299D02*
X327376Y291716D01*
X326210Y290549D01*
Y289383D01*
X326793Y288800D01*
X327959D01*
X328543Y289383D01*
Y289966D01*
X327959Y290549D01*
X326210D01*
X393300Y304799D02*
Y301300D01*
X395049D01*
X395633Y301883D01*
Y304216D01*
X395049Y304799D01*
X393300D01*
X396799D02*
Y301300D01*
Y303049D01*
X399131D01*
Y304799D01*
Y301300D01*
X400298Y304799D02*
X402630D01*
X401464D01*
Y301300D01*
X406129D02*
X403797D01*
X406129Y303633D01*
Y304216D01*
X405546Y304799D01*
X404380D01*
X403797Y304216D01*
X409628Y301300D02*
X407296D01*
X409628Y303633D01*
Y304216D01*
X409045Y304799D01*
X407879D01*
X407296Y304216D01*
X353000Y304166D02*
X352417Y304749D01*
X351251D01*
X350667Y304166D01*
Y303583D01*
X351251Y303000D01*
X352417D01*
X353000Y302417D01*
Y301834D01*
X352417Y301251D01*
X351251D01*
X350667Y301834D01*
X354166Y301251D02*
X355333D01*
X354749D01*
Y304749D01*
X354166Y304166D01*
X223584Y292249D02*
Y289334D01*
X224167Y288751D01*
X225334D01*
X225917Y289334D01*
Y292249D01*
X227083Y291666D02*
X227666Y292249D01*
X228833D01*
X229416Y291666D01*
Y291083D01*
X228833Y290500D01*
X228249D01*
X228833D01*
X229416Y289917D01*
Y289334D01*
X228833Y288751D01*
X227666D01*
X227083Y289334D01*
X168751Y220666D02*
X168167Y221249D01*
X167001D01*
X166418Y220666D01*
Y220083D01*
X167001Y219500D01*
X168167D01*
X168751Y218917D01*
Y218334D01*
X168167Y217751D01*
X167001D01*
X166418Y218334D01*
X169917Y221249D02*
Y217751D01*
X171083Y218917D01*
X172249Y217751D01*
Y221249D01*
X173416Y217751D02*
X174582D01*
X173999D01*
Y221249D01*
X173416Y220666D01*
D15*
X366426Y254499D02*
Y248501D01*
X369425D01*
X370425Y249501D01*
Y253499D01*
X369425Y254499D01*
X366426D01*
X372424D02*
Y248501D01*
Y251500D01*
X376423D01*
Y254499D01*
Y248501D01*
X378422Y254499D02*
X382421D01*
X380421D01*
Y248501D01*
X388419D02*
X384420D01*
X388419Y252500D01*
Y253499D01*
X387419Y254499D01*
X385420D01*
X384420Y253499D01*
X394417Y248501D02*
X390418D01*
X394417Y252500D01*
Y253499D01*
X393417Y254499D01*
X391418D01*
X390418Y253499D01*
M02*
