G04*
G04 #@! TF.GenerationSoftware,Altium Limited,Altium Designer,25.6.2 (33)*
G04*
G04 Layer_Color=255*
%FSLAX25Y25*%
%MOIN*%
G70*
G04*
G04 #@! TF.SameCoordinates,A6983FEA-D560-4925-98B3-38CB5C928B3C*
G04*
G04*
G04 #@! TF.FilePolarity,Positive*
G04*
G01*
G75*
%ADD16R,0.06102X0.05118*%
%ADD27R,0.06000X0.06000*%
%ADD28C,0.06000*%
%ADD29C,0.06299*%
%ADD30O,0.08268X0.03937*%
%ADD31O,0.07087X0.03937*%
%ADD32C,0.01575*%
%ADD33C,0.02559*%
G04:AMPARAMS|DCode=34|XSize=62.99mil|YSize=62.99mil|CornerRadius=15.75mil|HoleSize=0mil|Usage=FLASHONLY|Rotation=0.000|XOffset=0mil|YOffset=0mil|HoleType=Round|Shape=RoundedRectangle|*
%AMROUNDEDRECTD34*
21,1,0.06299,0.03150,0,0,0.0*
21,1,0.03150,0.06299,0,0,0.0*
1,1,0.03150,0.01575,-0.01575*
1,1,0.03150,-0.01575,-0.01575*
1,1,0.03150,-0.01575,0.01575*
1,1,0.03150,0.01575,0.01575*
%
%ADD34ROUNDEDRECTD34*%
%ADD35C,0.13780*%
G04:AMPARAMS|DCode=36|XSize=62.99mil|YSize=62.99mil|CornerRadius=15.75mil|HoleSize=0mil|Usage=FLASHONLY|Rotation=90.000|XOffset=0mil|YOffset=0mil|HoleType=Round|Shape=RoundedRectangle|*
%AMROUNDEDRECTD36*
21,1,0.06299,0.03150,0,0,90.0*
21,1,0.03150,0.06299,0,0,90.0*
1,1,0.03150,0.01575,0.01575*
1,1,0.03150,0.01575,-0.01575*
1,1,0.03150,-0.01575,-0.01575*
1,1,0.03150,-0.01575,0.01575*
%
%ADD36ROUNDEDRECTD36*%
D16*
X186650Y246358D02*
D03*
X155350D02*
D03*
X186650Y228642D02*
D03*
X155350D02*
D03*
D27*
X261000Y277000D02*
D03*
D28*
X271000D02*
D03*
X281000D02*
D03*
X291000D02*
D03*
X395185Y188000D02*
D03*
X385343D02*
D03*
X365657D02*
D03*
X375500D02*
D03*
D29*
X340000Y237500D02*
D03*
X174500Y297000D02*
D03*
X184500D02*
D03*
X164500D02*
D03*
X340000Y217500D02*
D03*
Y227500D02*
D03*
D30*
X147457Y211516D02*
D03*
Y177500D02*
D03*
D31*
X131000Y211516D02*
D03*
Y177500D02*
D03*
D32*
X276449Y212158D02*
D03*
X280780D02*
D03*
X278614Y214323D02*
D03*
X282945D02*
D03*
X278614Y209992D02*
D03*
X276449Y207827D02*
D03*
X280780D02*
D03*
X282945Y209992D02*
D03*
X278614Y205661D02*
D03*
X285110Y212158D02*
D03*
Y207827D02*
D03*
X282945Y205661D02*
D03*
D33*
X145488Y183130D02*
D03*
Y205886D02*
D03*
D34*
X154500Y297000D02*
D03*
D35*
X129500Y163000D02*
D03*
X423000D02*
D03*
X129500Y313000D02*
D03*
X423000D02*
D03*
D36*
X340000Y207500D02*
D03*
M02*
