G04*
G04 #@! TF.GenerationSoftware,Altium Limited,Altium Designer,25.6.2 (33)*
G04*
G04 Layer_Color=8388736*
%FSLAX25Y25*%
%MOIN*%
G70*
G04*
G04 #@! TF.SameCoordinates,A6983FEA-D560-4925-98B3-38CB5C928B3C*
G04*
G04*
G04 #@! TF.FilePolarity,Positive*
G04*
G01*
G75*
%ADD14C,0.00800*%
%ADD74C,0.00394*%
D14*
X166584Y298749D02*
Y295251D01*
X168334D01*
X168917Y295834D01*
Y297000D01*
X168334Y297583D01*
X166584D01*
X172416Y298749D02*
X170083D01*
X172416Y296417D01*
Y295834D01*
X171833Y295251D01*
X170666D01*
X170083Y295834D01*
X338251Y220167D02*
X341749D01*
Y221917D01*
X341166Y222500D01*
X340000D01*
X339417Y221917D01*
Y220167D01*
X338251Y223666D02*
Y224833D01*
Y224249D01*
X341749D01*
X341166Y223666D01*
D74*
X203468Y270220D02*
X199532D01*
Y272188D01*
X200188Y272844D01*
X202812D01*
X203468Y272188D01*
Y270220D01*
X202812Y274156D02*
X203468Y274812D01*
Y276124D01*
X202812Y276780D01*
X202156D01*
X201500Y276124D01*
Y275468D01*
Y276124D01*
X200844Y276780D01*
X200188D01*
X199532Y276124D01*
Y274812D01*
X200188Y274156D01*
X212968Y270220D02*
X209032D01*
Y272188D01*
X209688Y272844D01*
X212312D01*
X212968Y272188D01*
Y270220D01*
X209032Y276780D02*
Y274156D01*
X211656Y276780D01*
X212312D01*
X212968Y276124D01*
Y274812D01*
X212312Y274156D01*
X393124Y176968D02*
Y173032D01*
X391156D01*
X390500Y173688D01*
Y176312D01*
X391156Y176968D01*
X393124D01*
X389188Y173032D02*
X387876D01*
X388532D01*
Y176968D01*
X389188Y176312D01*
M02*
