G04*
G04 #@! TF.GenerationSoftware,Altium Limited,Altium Designer,25.6.2 (33)*
G04*
G04 Layer_Color=32768*
%FSLAX25Y25*%
%MOIN*%
G70*
G04*
G04 #@! TF.SameCoordinates,A6983FEA-D560-4925-98B3-38CB5C928B3C*
G04*
G04*
G04 #@! TF.FilePolarity,Positive*
G04*
G01*
G75*
%ADD12C,0.00787*%
%ADD71C,0.00500*%
%ADD74C,0.00394*%
%ADD78C,0.00333*%
D12*
X236055Y185583D02*
G03*
X236055Y185583I-394J0D01*
G01*
X173949Y255390D02*
G03*
X173949Y255390I-394J0D01*
G01*
X155016Y181713D02*
G03*
X155016Y181713I-394J0D01*
G01*
X212957Y168307D02*
Y181693D01*
Y168307D02*
X220043D01*
Y181693D01*
X212957D02*
X220043D01*
X221957Y168307D02*
Y181693D01*
Y168307D02*
X229043D01*
Y181693D01*
X221957D02*
X229043D01*
X258807Y264957D02*
X272193D01*
Y272043D01*
X258807D02*
X272193D01*
X258807Y264957D02*
Y272043D01*
X363807Y208543D02*
X377193D01*
X363807Y201457D02*
Y208543D01*
Y201457D02*
X377193D01*
Y208543D01*
D71*
X241567Y181252D02*
X312433D01*
X241567Y157630D02*
X312433D01*
Y181252D01*
Y236370D01*
X241567D02*
X312433D01*
X241567Y181252D02*
Y236370D01*
Y157630D02*
Y181252D01*
X151705Y280390D02*
X177295D01*
X151705Y266610D02*
X177295D01*
Y280390D01*
X151705Y266610D02*
Y280390D01*
D74*
X214248Y247102D02*
Y259898D01*
X207752Y247102D02*
Y259898D01*
Y247102D02*
X214248D01*
X207752Y259898D02*
X214248D01*
X205043Y246713D02*
Y260098D01*
X197957Y246713D02*
Y260098D01*
Y246713D02*
X205043D01*
X197957Y260098D02*
X205043D01*
X223425Y217457D02*
X236811D01*
X223425Y224543D02*
X236811D01*
X223425Y217457D02*
Y224543D01*
X236811Y217457D02*
Y224543D01*
X230457Y179307D02*
Y192693D01*
X237543Y179307D02*
Y192693D01*
X230457D02*
X237543D01*
X230457Y179307D02*
X237543D01*
X221957Y202693D02*
X229043D01*
X221957Y189307D02*
X229043D01*
X221957D02*
Y202693D01*
X229043Y189307D02*
Y202693D01*
X179457Y266807D02*
X186543D01*
X179457Y280193D02*
X186543D01*
Y266807D02*
Y280193D01*
X179457Y266807D02*
Y280193D01*
X142457Y249807D02*
X149543D01*
X142457Y263193D02*
X149543D01*
Y249807D02*
Y263193D01*
X142457Y249807D02*
Y263193D01*
X159102Y184752D02*
X171898D01*
X159102Y191248D02*
X171898D01*
X159102Y184752D02*
Y191248D01*
X171898Y184752D02*
Y191248D01*
X159102Y204748D02*
X171898D01*
X159102Y198252D02*
X171898D01*
Y204748D01*
X159102Y198252D02*
Y204748D01*
X287457Y282807D02*
Y296193D01*
X294543Y282807D02*
Y296193D01*
X287457D02*
X294543D01*
X287457Y282807D02*
X294543D01*
X277457D02*
Y296193D01*
X284543Y282807D02*
Y296193D01*
X277457D02*
X284543D01*
X277457Y282807D02*
X284543D01*
X259307Y281957D02*
Y289043D01*
X272693Y281957D02*
Y289043D01*
X259307Y281957D02*
X272693D01*
X259307Y289043D02*
X272693D01*
X364102Y193252D02*
X376898D01*
X364102Y199748D02*
X376898D01*
X364102Y193252D02*
Y199748D01*
X376898Y193252D02*
Y199748D01*
X362307Y178543D02*
X375693D01*
X362307Y171457D02*
X375693D01*
Y178543D01*
X362307Y171457D02*
Y178543D01*
X120764Y212106D02*
Y227579D01*
Y176909D02*
X149701D01*
X120764D02*
Y212106D01*
X149701D01*
Y176909D02*
Y212106D01*
D78*
X121158Y215768D02*
X122757D01*
Y216567D01*
X122490Y216834D01*
X121957D01*
X121691Y216567D01*
Y215768D01*
X122490Y218433D02*
X122757Y218167D01*
Y217634D01*
X122490Y217367D01*
X121424D01*
X121158Y217634D01*
Y218167D01*
X121424Y218433D01*
X122757Y218967D02*
X121158D01*
Y219766D01*
X121424Y220033D01*
X121691D01*
X121957Y219766D01*
Y218967D01*
Y219766D01*
X122224Y220033D01*
X122490D01*
X122757Y219766D01*
Y218967D01*
Y223232D02*
Y222166D01*
X121158D01*
Y223232D01*
X121957Y222166D02*
Y222699D01*
X122757Y223765D02*
X121158D01*
Y224565D01*
X121424Y224831D01*
X122490D01*
X122757Y224565D01*
Y223765D01*
X122490Y226431D02*
X122757Y226164D01*
Y225631D01*
X122490Y225365D01*
X121424D01*
X121158Y225631D01*
Y226164D01*
X121424Y226431D01*
X121957D01*
Y225898D01*
X122757Y228030D02*
Y226964D01*
X121158D01*
Y228030D01*
X121957Y226964D02*
Y227497D01*
M02*
